M48
; DRILL file {KiCad (5.1.5)-3} date 5/28/2020 12:56:51 PM
; FORMAT={-:-/ absolute / inch / decimal}
; #@! TF.CreationDate,2020-05-28T12:56:51-05:00
; #@! TF.GenerationSoftware,Kicad,Pcbnew,(5.1.5)-3
; #@! TF.FileFunction,Plated,1,2,PTH
FMAT,2
INCH
T1C0.0157
T2C0.0315
%
G90
G05
T1
X5.705Y-3.42
X5.705Y-3.505
X5.795Y-3.095
X5.855Y-3.42
X5.855Y-3.505
X6.005Y-3.42
X6.005Y-3.505
X6.0094Y-3.0
X6.0094Y-3.05
X6.0125Y-2.795
X6.045Y-2.865
T2
X5.6Y-2.8
X5.6Y-2.9
X5.6Y-3.0
X5.6Y-3.1
X5.6Y-3.2
X5.6Y-3.3
X5.6Y-3.4
X5.6Y-3.5
X6.1Y-2.8
X6.1Y-2.9
X6.1Y-3.0
X6.1Y-3.1
X6.1Y-3.2
X6.1Y-3.3
X6.1Y-3.4
X6.1Y-3.5
T0
M30
