G04 #@! TF.GenerationSoftware,KiCad,Pcbnew,(5.1.5)-3*
G04 #@! TF.CreationDate,2020-06-24T17:03:48-05:00*
G04 #@! TF.ProjectId,pt100stick,70743130-3073-4746-9963-6b2e6b696361,rev?*
G04 #@! TF.SameCoordinates,Original*
G04 #@! TF.FileFunction,Legend,Bot*
G04 #@! TF.FilePolarity,Positive*
%FSLAX46Y46*%
G04 Gerber Fmt 4.6, Leading zero omitted, Abs format (unit mm)*
G04 Created by KiCad (PCBNEW (5.1.5)-3) date 2020-06-24 17:03:48*
%MOMM*%
%LPD*%
G04 APERTURE LIST*
%ADD10C,0.150000*%
%ADD11C,0.075000*%
G04 APERTURE END LIST*
D10*
X143960385Y-74053571D02*
X143960385Y-74482142D01*
X144710385Y-74267857D02*
X143960385Y-74267857D01*
X144710385Y-74732142D02*
X143960385Y-74732142D01*
X144710385Y-75053571D02*
X144317528Y-75053571D01*
X144246100Y-75017857D01*
X144210385Y-74946428D01*
X144210385Y-74839285D01*
X144246100Y-74767857D01*
X144281814Y-74732142D01*
X144710385Y-75410714D02*
X144210385Y-75410714D01*
X143960385Y-75410714D02*
X143996100Y-75375000D01*
X144031814Y-75410714D01*
X143996100Y-75446428D01*
X143960385Y-75410714D01*
X144031814Y-75410714D01*
X144674671Y-75732142D02*
X144710385Y-75803571D01*
X144710385Y-75946428D01*
X144674671Y-76017857D01*
X144603242Y-76053571D01*
X144567528Y-76053571D01*
X144496100Y-76017857D01*
X144460385Y-75946428D01*
X144460385Y-75839285D01*
X144424671Y-75767857D01*
X144353242Y-75732142D01*
X144317528Y-75732142D01*
X144246100Y-75767857D01*
X144210385Y-75839285D01*
X144210385Y-75946428D01*
X144246100Y-76017857D01*
X144710385Y-76946428D02*
X143960385Y-76946428D01*
X143960385Y-77232142D01*
X143996100Y-77303571D01*
X144031814Y-77339285D01*
X144103242Y-77375000D01*
X144210385Y-77375000D01*
X144281814Y-77339285D01*
X144317528Y-77303571D01*
X144353242Y-77232142D01*
X144353242Y-76946428D01*
X144638957Y-78125000D02*
X144674671Y-78089285D01*
X144710385Y-77982142D01*
X144710385Y-77910714D01*
X144674671Y-77803571D01*
X144603242Y-77732142D01*
X144531814Y-77696428D01*
X144388957Y-77660714D01*
X144281814Y-77660714D01*
X144138957Y-77696428D01*
X144067528Y-77732142D01*
X143996100Y-77803571D01*
X143960385Y-77910714D01*
X143960385Y-77982142D01*
X143996100Y-78089285D01*
X144031814Y-78125000D01*
X144317528Y-78696428D02*
X144353242Y-78803571D01*
X144388957Y-78839285D01*
X144460385Y-78875000D01*
X144567528Y-78875000D01*
X144638957Y-78839285D01*
X144674671Y-78803571D01*
X144710385Y-78732142D01*
X144710385Y-78446428D01*
X143960385Y-78446428D01*
X143960385Y-78696428D01*
X143996100Y-78767857D01*
X144031814Y-78803571D01*
X144103242Y-78839285D01*
X144174671Y-78839285D01*
X144246100Y-78803571D01*
X144281814Y-78767857D01*
X144317528Y-78696428D01*
X144317528Y-78446428D01*
X144710385Y-80089285D02*
X143960385Y-80089285D01*
X144674671Y-80089285D02*
X144710385Y-80017857D01*
X144710385Y-79875000D01*
X144674671Y-79803571D01*
X144638957Y-79767857D01*
X144567528Y-79732142D01*
X144353242Y-79732142D01*
X144281814Y-79767857D01*
X144246100Y-79803571D01*
X144210385Y-79875000D01*
X144210385Y-80017857D01*
X144246100Y-80089285D01*
X144674671Y-80732142D02*
X144710385Y-80660714D01*
X144710385Y-80517857D01*
X144674671Y-80446428D01*
X144603242Y-80410714D01*
X144317528Y-80410714D01*
X144246100Y-80446428D01*
X144210385Y-80517857D01*
X144210385Y-80660714D01*
X144246100Y-80732142D01*
X144317528Y-80767857D01*
X144388957Y-80767857D01*
X144460385Y-80410714D01*
X144674671Y-81053571D02*
X144710385Y-81124999D01*
X144710385Y-81267857D01*
X144674671Y-81339285D01*
X144603242Y-81375000D01*
X144567528Y-81375000D01*
X144496100Y-81339285D01*
X144460385Y-81267857D01*
X144460385Y-81160714D01*
X144424671Y-81089285D01*
X144353242Y-81053571D01*
X144317528Y-81053571D01*
X144246100Y-81089285D01*
X144210385Y-81160714D01*
X144210385Y-81267857D01*
X144246100Y-81339285D01*
X144710385Y-81696428D02*
X144210385Y-81696428D01*
X143960385Y-81696428D02*
X143996100Y-81660714D01*
X144031814Y-81696428D01*
X143996100Y-81732142D01*
X143960385Y-81696428D01*
X144031814Y-81696428D01*
X144210385Y-82375000D02*
X144817528Y-82375000D01*
X144888957Y-82339285D01*
X144924671Y-82303571D01*
X144960385Y-82232142D01*
X144960385Y-82125000D01*
X144924671Y-82053571D01*
X144674671Y-82375000D02*
X144710385Y-82303571D01*
X144710385Y-82160714D01*
X144674671Y-82089285D01*
X144638957Y-82053571D01*
X144567528Y-82017857D01*
X144353242Y-82017857D01*
X144281814Y-82053571D01*
X144246100Y-82089285D01*
X144210385Y-82160714D01*
X144210385Y-82303571D01*
X144246100Y-82375000D01*
X144210385Y-82732142D02*
X144710385Y-82732142D01*
X144281814Y-82732142D02*
X144246100Y-82767857D01*
X144210385Y-82839285D01*
X144210385Y-82946428D01*
X144246100Y-83017857D01*
X144317528Y-83053571D01*
X144710385Y-83053571D01*
X144710385Y-83982142D02*
X144210385Y-83982142D01*
X143960385Y-83982142D02*
X143996100Y-83946428D01*
X144031814Y-83982142D01*
X143996100Y-84017857D01*
X143960385Y-83982142D01*
X144031814Y-83982142D01*
X144674671Y-84303571D02*
X144710385Y-84374999D01*
X144710385Y-84517857D01*
X144674671Y-84589285D01*
X144603242Y-84625000D01*
X144567528Y-84625000D01*
X144496100Y-84589285D01*
X144460385Y-84517857D01*
X144460385Y-84410714D01*
X144424671Y-84339285D01*
X144353242Y-84303571D01*
X144317528Y-84303571D01*
X144246100Y-84339285D01*
X144210385Y-84410714D01*
X144210385Y-84517857D01*
X144246100Y-84589285D01*
X145985385Y-73785714D02*
X145949671Y-73714285D01*
X145878242Y-73678571D01*
X145235385Y-73678571D01*
X145985385Y-74071428D02*
X145485385Y-74071428D01*
X145235385Y-74071428D02*
X145271100Y-74035714D01*
X145306814Y-74071428D01*
X145271100Y-74107142D01*
X145235385Y-74071428D01*
X145306814Y-74071428D01*
X145949671Y-74750000D02*
X145985385Y-74678571D01*
X145985385Y-74535714D01*
X145949671Y-74464285D01*
X145913957Y-74428571D01*
X145842528Y-74392857D01*
X145628242Y-74392857D01*
X145556814Y-74428571D01*
X145521100Y-74464285D01*
X145485385Y-74535714D01*
X145485385Y-74678571D01*
X145521100Y-74750000D01*
X145949671Y-75357142D02*
X145985385Y-75285714D01*
X145985385Y-75142857D01*
X145949671Y-75071428D01*
X145878242Y-75035714D01*
X145592528Y-75035714D01*
X145521100Y-75071428D01*
X145485385Y-75142857D01*
X145485385Y-75285714D01*
X145521100Y-75357142D01*
X145592528Y-75392857D01*
X145663957Y-75392857D01*
X145735385Y-75035714D01*
X145485385Y-75714285D02*
X145985385Y-75714285D01*
X145556814Y-75714285D02*
X145521100Y-75750000D01*
X145485385Y-75821428D01*
X145485385Y-75928571D01*
X145521100Y-76000000D01*
X145592528Y-76035714D01*
X145985385Y-76035714D01*
X145949671Y-76357142D02*
X145985385Y-76428571D01*
X145985385Y-76571428D01*
X145949671Y-76642857D01*
X145878242Y-76678571D01*
X145842528Y-76678571D01*
X145771100Y-76642857D01*
X145735385Y-76571428D01*
X145735385Y-76464285D01*
X145699671Y-76392857D01*
X145628242Y-76357142D01*
X145592528Y-76357142D01*
X145521100Y-76392857D01*
X145485385Y-76464285D01*
X145485385Y-76571428D01*
X145521100Y-76642857D01*
X145949671Y-77285714D02*
X145985385Y-77214285D01*
X145985385Y-77071428D01*
X145949671Y-77000000D01*
X145878242Y-76964285D01*
X145592528Y-76964285D01*
X145521100Y-77000000D01*
X145485385Y-77071428D01*
X145485385Y-77214285D01*
X145521100Y-77285714D01*
X145592528Y-77321428D01*
X145663957Y-77321428D01*
X145735385Y-76964285D01*
X145985385Y-77964285D02*
X145235385Y-77964285D01*
X145949671Y-77964285D02*
X145985385Y-77892857D01*
X145985385Y-77750000D01*
X145949671Y-77678571D01*
X145913957Y-77642857D01*
X145842528Y-77607142D01*
X145628242Y-77607142D01*
X145556814Y-77642857D01*
X145521100Y-77678571D01*
X145485385Y-77750000D01*
X145485385Y-77892857D01*
X145521100Y-77964285D01*
X145485385Y-79214285D02*
X145985385Y-79214285D01*
X145485385Y-78892857D02*
X145878242Y-78892857D01*
X145949671Y-78928571D01*
X145985385Y-79000000D01*
X145985385Y-79107142D01*
X145949671Y-79178571D01*
X145913957Y-79214285D01*
X145485385Y-79571428D02*
X145985385Y-79571428D01*
X145556814Y-79571428D02*
X145521100Y-79607142D01*
X145485385Y-79678571D01*
X145485385Y-79785714D01*
X145521100Y-79857142D01*
X145592528Y-79892857D01*
X145985385Y-79892857D01*
X145985385Y-80571428D02*
X145235385Y-80571428D01*
X145949671Y-80571428D02*
X145985385Y-80500000D01*
X145985385Y-80357142D01*
X145949671Y-80285714D01*
X145913957Y-80250000D01*
X145842528Y-80214285D01*
X145628242Y-80214285D01*
X145556814Y-80250000D01*
X145521100Y-80285714D01*
X145485385Y-80357142D01*
X145485385Y-80500000D01*
X145521100Y-80571428D01*
X145949671Y-81214285D02*
X145985385Y-81142857D01*
X145985385Y-81000000D01*
X145949671Y-80928571D01*
X145878242Y-80892857D01*
X145592528Y-80892857D01*
X145521100Y-80928571D01*
X145485385Y-81000000D01*
X145485385Y-81142857D01*
X145521100Y-81214285D01*
X145592528Y-81250000D01*
X145663957Y-81250000D01*
X145735385Y-80892857D01*
X145985385Y-81571428D02*
X145485385Y-81571428D01*
X145628242Y-81571428D02*
X145556814Y-81607142D01*
X145521100Y-81642857D01*
X145485385Y-81714285D01*
X145485385Y-81785714D01*
X145271100Y-83000000D02*
X145235385Y-82928571D01*
X145235385Y-82821428D01*
X145271100Y-82714285D01*
X145342528Y-82642857D01*
X145413957Y-82607142D01*
X145556814Y-82571428D01*
X145663957Y-82571428D01*
X145806814Y-82607142D01*
X145878242Y-82642857D01*
X145949671Y-82714285D01*
X145985385Y-82821428D01*
X145985385Y-82892857D01*
X145949671Y-83000000D01*
X145913957Y-83035714D01*
X145663957Y-83035714D01*
X145663957Y-82892857D01*
X145985385Y-83357142D02*
X145235385Y-83357142D01*
X145235385Y-83642857D01*
X145271100Y-83714285D01*
X145306814Y-83750000D01*
X145378242Y-83785714D01*
X145485385Y-83785714D01*
X145556814Y-83750000D01*
X145592528Y-83714285D01*
X145628242Y-83642857D01*
X145628242Y-83357142D01*
X145985385Y-84464285D02*
X145985385Y-84107142D01*
X145235385Y-84107142D01*
X145235385Y-84642857D02*
X145235385Y-85107142D01*
X145521100Y-84857142D01*
X145521100Y-84964285D01*
X145556814Y-85035714D01*
X145592528Y-85071428D01*
X145663957Y-85107142D01*
X145842528Y-85107142D01*
X145913957Y-85071428D01*
X145949671Y-85035714D01*
X145985385Y-84964285D01*
X145985385Y-84750000D01*
X145949671Y-84678571D01*
X145913957Y-84642857D01*
D11*
X147763120Y-81218699D02*
X146503060Y-79036079D01*
X150283420Y-81218699D02*
X147763120Y-81218699D01*
X150283420Y-76853519D02*
X151543599Y-79036079D01*
X146503060Y-79036079D02*
X147763120Y-76853519D01*
X151543599Y-79036079D02*
X150283420Y-81218699D01*
X150393400Y-79677899D02*
X150393400Y-79019400D01*
X151543599Y-79036079D02*
X151543599Y-79036079D01*
X147763120Y-76853519D02*
X150283420Y-76853519D01*
X147653260Y-79052639D02*
X149023300Y-78152159D01*
X147653260Y-79607519D02*
X147653260Y-80265839D01*
X150393400Y-77806199D02*
X147653260Y-79607519D01*
X147653260Y-78394259D02*
X147653260Y-78394259D01*
X147653260Y-78394259D02*
X147653260Y-79052639D01*
X150393400Y-78464579D02*
X150393400Y-77806199D01*
X149023300Y-77493659D02*
X147653260Y-78394259D01*
X147653260Y-80265839D02*
X150393400Y-78464579D01*
X149023300Y-78152159D02*
X149023300Y-77493659D01*
X147653260Y-80265839D02*
X147653260Y-80265839D01*
X149023300Y-80578499D02*
X150393400Y-79677899D01*
X150393400Y-79677899D02*
X150393400Y-79677899D01*
X149023300Y-79920059D02*
X149023300Y-80578499D01*
X150393400Y-79019400D02*
X149023300Y-79920059D01*
M02*
