G04 #@! TF.GenerationSoftware,KiCad,Pcbnew,(5.1.5)-3*
G04 #@! TF.CreationDate,2020-06-24T12:54:59-05:00*
G04 #@! TF.ProjectId,pt100stick,70743130-3073-4746-9963-6b2e6b696361,rev?*
G04 #@! TF.SameCoordinates,Original*
G04 #@! TF.FileFunction,Legend,Top*
G04 #@! TF.FilePolarity,Positive*
%FSLAX46Y46*%
G04 Gerber Fmt 4.6, Leading zero omitted, Abs format (unit mm)*
G04 Created by KiCad (PCBNEW (5.1.5)-3) date 2020-06-24 12:54:59*
%MOMM*%
%LPD*%
G04 APERTURE LIST*
%ADD10C,0.150000*%
%ADD11C,0.120000*%
G04 APERTURE END LIST*
D10*
X144812238Y-89479380D02*
X144812238Y-88479380D01*
X145193190Y-88479380D01*
X145288428Y-88527000D01*
X145336047Y-88574619D01*
X145383666Y-88669857D01*
X145383666Y-88812714D01*
X145336047Y-88907952D01*
X145288428Y-88955571D01*
X145193190Y-89003190D01*
X144812238Y-89003190D01*
X145669380Y-88479380D02*
X146240809Y-88479380D01*
X145955095Y-89479380D02*
X145955095Y-88479380D01*
X147097952Y-89479380D02*
X146526523Y-89479380D01*
X146812238Y-89479380D02*
X146812238Y-88479380D01*
X146717000Y-88622238D01*
X146621761Y-88717476D01*
X146526523Y-88765095D01*
X147717000Y-88479380D02*
X147812238Y-88479380D01*
X147907476Y-88527000D01*
X147955095Y-88574619D01*
X148002714Y-88669857D01*
X148050333Y-88860333D01*
X148050333Y-89098428D01*
X148002714Y-89288904D01*
X147955095Y-89384142D01*
X147907476Y-89431761D01*
X147812238Y-89479380D01*
X147717000Y-89479380D01*
X147621761Y-89431761D01*
X147574142Y-89384142D01*
X147526523Y-89288904D01*
X147478904Y-89098428D01*
X147478904Y-88860333D01*
X147526523Y-88669857D01*
X147574142Y-88574619D01*
X147621761Y-88527000D01*
X147717000Y-88479380D01*
X148669380Y-88479380D02*
X148764619Y-88479380D01*
X148859857Y-88527000D01*
X148907476Y-88574619D01*
X148955095Y-88669857D01*
X149002714Y-88860333D01*
X149002714Y-89098428D01*
X148955095Y-89288904D01*
X148907476Y-89384142D01*
X148859857Y-89431761D01*
X148764619Y-89479380D01*
X148669380Y-89479380D01*
X148574142Y-89431761D01*
X148526523Y-89384142D01*
X148478904Y-89288904D01*
X148431285Y-89098428D01*
X148431285Y-88860333D01*
X148478904Y-88669857D01*
X148526523Y-88574619D01*
X148574142Y-88527000D01*
X148669380Y-88479380D01*
X149383666Y-89431761D02*
X149526523Y-89479380D01*
X149764619Y-89479380D01*
X149859857Y-89431761D01*
X149907476Y-89384142D01*
X149955095Y-89288904D01*
X149955095Y-89193666D01*
X149907476Y-89098428D01*
X149859857Y-89050809D01*
X149764619Y-89003190D01*
X149574142Y-88955571D01*
X149478904Y-88907952D01*
X149431285Y-88860333D01*
X149383666Y-88765095D01*
X149383666Y-88669857D01*
X149431285Y-88574619D01*
X149478904Y-88527000D01*
X149574142Y-88479380D01*
X149812238Y-88479380D01*
X149955095Y-88527000D01*
X150240809Y-88812714D02*
X150621761Y-88812714D01*
X150383666Y-88479380D02*
X150383666Y-89336523D01*
X150431285Y-89431761D01*
X150526523Y-89479380D01*
X150621761Y-89479380D01*
X150955095Y-89479380D02*
X150955095Y-88812714D01*
X150955095Y-88479380D02*
X150907476Y-88527000D01*
X150955095Y-88574619D01*
X151002714Y-88527000D01*
X150955095Y-88479380D01*
X150955095Y-88574619D01*
X151859857Y-89431761D02*
X151764619Y-89479380D01*
X151574142Y-89479380D01*
X151478904Y-89431761D01*
X151431285Y-89384142D01*
X151383666Y-89288904D01*
X151383666Y-89003190D01*
X151431285Y-88907952D01*
X151478904Y-88860333D01*
X151574142Y-88812714D01*
X151764619Y-88812714D01*
X151859857Y-88860333D01*
X152288428Y-89479380D02*
X152288428Y-88479380D01*
X152383666Y-89098428D02*
X152669380Y-89479380D01*
X152669380Y-88812714D02*
X152288428Y-89193666D01*
X145191571Y-87971285D02*
X145163000Y-87999857D01*
X145077285Y-88028428D01*
X145020142Y-88028428D01*
X144934428Y-87999857D01*
X144877285Y-87942714D01*
X144848714Y-87885571D01*
X144820142Y-87771285D01*
X144820142Y-87685571D01*
X144848714Y-87571285D01*
X144877285Y-87514142D01*
X144934428Y-87457000D01*
X145020142Y-87428428D01*
X145077285Y-87428428D01*
X145163000Y-87457000D01*
X145191571Y-87485571D01*
X145705857Y-87628428D02*
X145705857Y-88028428D01*
X145448714Y-87628428D02*
X145448714Y-87942714D01*
X145477285Y-87999857D01*
X145534428Y-88028428D01*
X145620142Y-88028428D01*
X145677285Y-87999857D01*
X145705857Y-87971285D01*
X145905857Y-87628428D02*
X146134428Y-87628428D01*
X145991571Y-87428428D02*
X145991571Y-87942714D01*
X146020142Y-87999857D01*
X146077285Y-88028428D01*
X146134428Y-88028428D01*
X146963000Y-87428428D02*
X146963000Y-87857000D01*
X146934428Y-87942714D01*
X146877285Y-87999857D01*
X146791571Y-88028428D01*
X146734428Y-88028428D01*
X147248714Y-88028428D02*
X147248714Y-87428428D01*
X147477285Y-87428428D01*
X147534428Y-87457000D01*
X147563000Y-87485571D01*
X147591571Y-87542714D01*
X147591571Y-87628428D01*
X147563000Y-87685571D01*
X147534428Y-87714142D01*
X147477285Y-87742714D01*
X147248714Y-87742714D01*
X147820142Y-87485571D02*
X147848714Y-87457000D01*
X147905857Y-87428428D01*
X148048714Y-87428428D01*
X148105857Y-87457000D01*
X148134428Y-87485571D01*
X148163000Y-87542714D01*
X148163000Y-87599857D01*
X148134428Y-87685571D01*
X147791571Y-88028428D01*
X148163000Y-88028428D01*
X148791571Y-87628428D02*
X149020142Y-87628428D01*
X148877285Y-88028428D02*
X148877285Y-87514142D01*
X148905857Y-87457000D01*
X148963000Y-87428428D01*
X149020142Y-87428428D01*
X149305857Y-88028428D02*
X149248714Y-87999857D01*
X149220142Y-87971285D01*
X149191571Y-87914142D01*
X149191571Y-87742714D01*
X149220142Y-87685571D01*
X149248714Y-87657000D01*
X149305857Y-87628428D01*
X149391571Y-87628428D01*
X149448714Y-87657000D01*
X149477285Y-87685571D01*
X149505857Y-87742714D01*
X149505857Y-87914142D01*
X149477285Y-87971285D01*
X149448714Y-87999857D01*
X149391571Y-88028428D01*
X149305857Y-88028428D01*
X149763000Y-88028428D02*
X149763000Y-87628428D01*
X149763000Y-87742714D02*
X149791571Y-87685571D01*
X149820142Y-87657000D01*
X149877285Y-87628428D01*
X149934428Y-87628428D01*
X150534428Y-87428428D02*
X150905857Y-87428428D01*
X150705857Y-87657000D01*
X150791571Y-87657000D01*
X150848714Y-87685571D01*
X150877285Y-87714142D01*
X150905857Y-87771285D01*
X150905857Y-87914142D01*
X150877285Y-87971285D01*
X150848714Y-87999857D01*
X150791571Y-88028428D01*
X150620142Y-88028428D01*
X150563000Y-87999857D01*
X150534428Y-87971285D01*
X151591571Y-87399857D02*
X151077285Y-88171285D01*
X152048714Y-87628428D02*
X152048714Y-88028428D01*
X151905857Y-87399857D02*
X151763000Y-87828428D01*
X152134428Y-87828428D01*
X145791571Y-86955285D02*
X145763000Y-86983857D01*
X145677285Y-87012428D01*
X145620142Y-87012428D01*
X145534428Y-86983857D01*
X145477285Y-86926714D01*
X145448714Y-86869571D01*
X145420142Y-86755285D01*
X145420142Y-86669571D01*
X145448714Y-86555285D01*
X145477285Y-86498142D01*
X145534428Y-86441000D01*
X145620142Y-86412428D01*
X145677285Y-86412428D01*
X145763000Y-86441000D01*
X145791571Y-86469571D01*
X146305857Y-86612428D02*
X146305857Y-87012428D01*
X146048714Y-86612428D02*
X146048714Y-86926714D01*
X146077285Y-86983857D01*
X146134428Y-87012428D01*
X146220142Y-87012428D01*
X146277285Y-86983857D01*
X146305857Y-86955285D01*
X146505857Y-86612428D02*
X146734428Y-86612428D01*
X146591571Y-86412428D02*
X146591571Y-86926714D01*
X146620142Y-86983857D01*
X146677285Y-87012428D01*
X146734428Y-87012428D01*
X147563000Y-86412428D02*
X147563000Y-86841000D01*
X147534428Y-86926714D01*
X147477285Y-86983857D01*
X147391571Y-87012428D01*
X147334428Y-87012428D01*
X147848714Y-87012428D02*
X147848714Y-86412428D01*
X148077285Y-86412428D01*
X148134428Y-86441000D01*
X148163000Y-86469571D01*
X148191571Y-86526714D01*
X148191571Y-86612428D01*
X148163000Y-86669571D01*
X148134428Y-86698142D01*
X148077285Y-86726714D01*
X147848714Y-86726714D01*
X148763000Y-87012428D02*
X148420142Y-87012428D01*
X148591571Y-87012428D02*
X148591571Y-86412428D01*
X148534428Y-86498142D01*
X148477285Y-86555285D01*
X148420142Y-86583857D01*
X149391571Y-86612428D02*
X149620142Y-86612428D01*
X149477285Y-87012428D02*
X149477285Y-86498142D01*
X149505857Y-86441000D01*
X149563000Y-86412428D01*
X149620142Y-86412428D01*
X149905857Y-87012428D02*
X149848714Y-86983857D01*
X149820142Y-86955285D01*
X149791571Y-86898142D01*
X149791571Y-86726714D01*
X149820142Y-86669571D01*
X149848714Y-86641000D01*
X149905857Y-86612428D01*
X149991571Y-86612428D01*
X150048714Y-86641000D01*
X150077285Y-86669571D01*
X150105857Y-86726714D01*
X150105857Y-86898142D01*
X150077285Y-86955285D01*
X150048714Y-86983857D01*
X149991571Y-87012428D01*
X149905857Y-87012428D01*
X150363000Y-87012428D02*
X150363000Y-86612428D01*
X150363000Y-86726714D02*
X150391571Y-86669571D01*
X150420142Y-86641000D01*
X150477285Y-86612428D01*
X150534428Y-86612428D01*
X151448714Y-86612428D02*
X151448714Y-87012428D01*
X151305857Y-86383857D02*
X151163000Y-86812428D01*
X151534428Y-86812428D01*
X148242785Y-82863500D02*
X148242785Y-82399214D01*
X148528500Y-82649214D01*
X148528500Y-82542071D01*
X148564214Y-82470642D01*
X148599928Y-82434928D01*
X148671357Y-82399214D01*
X148849928Y-82399214D01*
X148921357Y-82434928D01*
X148957071Y-82470642D01*
X148992785Y-82542071D01*
X148992785Y-82756357D01*
X148957071Y-82827785D01*
X148921357Y-82863500D01*
X148314214Y-81037785D02*
X148278500Y-81002071D01*
X148242785Y-80930642D01*
X148242785Y-80752071D01*
X148278500Y-80680642D01*
X148314214Y-80644928D01*
X148385642Y-80609214D01*
X148457071Y-80609214D01*
X148564214Y-80644928D01*
X148992785Y-81073500D01*
X148992785Y-80609214D01*
X148207071Y-79752071D02*
X149171357Y-80394928D01*
X148492785Y-79180642D02*
X148992785Y-79180642D01*
X148207071Y-79359214D02*
X148742785Y-79537785D01*
X148742785Y-79073500D01*
D11*
X147366000Y-79357000D02*
G75*
G02X148066000Y-80057000I0J-700000D01*
G01*
X146066000Y-80057000D02*
G75*
G02X146766000Y-79357000I700000J0D01*
G01*
X146766000Y-83457000D02*
G75*
G02X146066000Y-82757000I0J700000D01*
G01*
X148066000Y-82757000D02*
G75*
G02X147366000Y-83457000I-700000J0D01*
G01*
X148066000Y-80007000D02*
X148066000Y-82807000D01*
X147366000Y-83457000D02*
X146766000Y-83457000D01*
X146066000Y-82807000D02*
X146066000Y-80007000D01*
X146766000Y-79357000D02*
X147366000Y-79357000D01*
X145866000Y-80207000D02*
X145566000Y-79907000D01*
X145566000Y-79907000D02*
X145566000Y-80507000D01*
X145866000Y-80207000D02*
X145566000Y-80507000D01*
X146034000Y-77696000D02*
X146034000Y-79096000D01*
X145334000Y-79796000D02*
X144734000Y-79796000D01*
X144034000Y-79096000D02*
X144034000Y-77696000D01*
X144734000Y-76996000D02*
X145334000Y-76996000D01*
X145334000Y-76996000D02*
G75*
G02X146034000Y-77696000I0J-700000D01*
G01*
X144034000Y-77696000D02*
G75*
G02X144734000Y-76996000I700000J0D01*
G01*
X144734000Y-79796000D02*
G75*
G02X144034000Y-79096000I0J700000D01*
G01*
X146034000Y-79096000D02*
G75*
G02X145334000Y-79796000I-700000J0D01*
G01*
X144034000Y-85155000D02*
X144034000Y-83755000D01*
X144734000Y-83055000D02*
X145334000Y-83055000D01*
X146034000Y-83755000D02*
X146034000Y-85155000D01*
X145334000Y-85855000D02*
X144734000Y-85855000D01*
X144734000Y-85855000D02*
G75*
G02X144034000Y-85155000I0J700000D01*
G01*
X146034000Y-85155000D02*
G75*
G02X145334000Y-85855000I-700000J0D01*
G01*
X145334000Y-83055000D02*
G75*
G02X146034000Y-83755000I0J-700000D01*
G01*
X144034000Y-83755000D02*
G75*
G02X144734000Y-83055000I700000J0D01*
G01*
X145159000Y-73347733D02*
X145159000Y-73690267D01*
X146179000Y-73347733D02*
X146179000Y-73690267D01*
X145219267Y-75563000D02*
X144876733Y-75563000D01*
X145219267Y-76583000D02*
X144876733Y-76583000D01*
X144876733Y-71630000D02*
X145219267Y-71630000D01*
X144876733Y-70610000D02*
X145219267Y-70610000D01*
X143685800Y-73347733D02*
X143685800Y-73690267D01*
X144705800Y-73347733D02*
X144705800Y-73690267D01*
X144524000Y-81235733D02*
X144524000Y-81578267D01*
X145544000Y-81235733D02*
X145544000Y-81578267D01*
X156340000Y-69720000D02*
X143510000Y-69720000D01*
X156340000Y-90300000D02*
X156340000Y-69720000D01*
X140840000Y-90300000D02*
X156340000Y-90300000D01*
X140840000Y-72390000D02*
X140840000Y-90300000D01*
X143510000Y-72390000D02*
X140840000Y-72390000D01*
X143510000Y-69720000D02*
X143510000Y-72390000D01*
X140840000Y-69720000D02*
X140840000Y-71120000D01*
X142240000Y-69720000D02*
X140840000Y-69720000D01*
X143510000Y-72390000D02*
X143510000Y-90300000D01*
X153670000Y-69720000D02*
X153670000Y-90300000D01*
X151824000Y-70923000D02*
X152724000Y-70923000D01*
X152724000Y-70923000D02*
X152724000Y-71823000D01*
X148404000Y-76143000D02*
X147504000Y-76143000D01*
X147504000Y-76143000D02*
X147504000Y-75243000D01*
X151824000Y-76143000D02*
X152724000Y-76143000D01*
X152724000Y-76143000D02*
X152724000Y-75243000D01*
X148404000Y-70923000D02*
X147504000Y-70923000D01*
D10*
X146264380Y-78811333D02*
X146978666Y-78811333D01*
X147121523Y-78858952D01*
X147216761Y-78954190D01*
X147264380Y-79097047D01*
X147264380Y-79192285D01*
X147264380Y-78335142D02*
X146264380Y-78335142D01*
X146264380Y-77954190D01*
X146312000Y-77858952D01*
X146359619Y-77811333D01*
X146454857Y-77763714D01*
X146597714Y-77763714D01*
X146692952Y-77811333D01*
X146740571Y-77858952D01*
X146788190Y-77954190D01*
X146788190Y-78335142D01*
X146359619Y-77382761D02*
X146312000Y-77335142D01*
X146264380Y-77239904D01*
X146264380Y-77001809D01*
X146312000Y-76906571D01*
X146359619Y-76858952D01*
X146454857Y-76811333D01*
X146550095Y-76811333D01*
X146692952Y-76858952D01*
X147264380Y-77430380D01*
X147264380Y-76811333D01*
X146264380Y-85669333D02*
X146978666Y-85669333D01*
X147121523Y-85716952D01*
X147216761Y-85812190D01*
X147264380Y-85955047D01*
X147264380Y-86050285D01*
X147264380Y-85193142D02*
X146264380Y-85193142D01*
X146264380Y-84812190D01*
X146312000Y-84716952D01*
X146359619Y-84669333D01*
X146454857Y-84621714D01*
X146597714Y-84621714D01*
X146692952Y-84669333D01*
X146740571Y-84716952D01*
X146788190Y-84812190D01*
X146788190Y-85193142D01*
X147264380Y-83669333D02*
X147264380Y-84240761D01*
X147264380Y-83955047D02*
X146264380Y-83955047D01*
X146407238Y-84050285D01*
X146502476Y-84145523D01*
X146550095Y-84240761D01*
M02*
