G04 #@! TF.GenerationSoftware,KiCad,Pcbnew,(5.1.5)-3*
G04 #@! TF.CreationDate,2020-05-29T21:58:10-05:00*
G04 #@! TF.ProjectId,pt100stick,70743130-3073-4746-9963-6b2e6b696361,rev?*
G04 #@! TF.SameCoordinates,Original*
G04 #@! TF.FileFunction,Copper,L1,Top*
G04 #@! TF.FilePolarity,Positive*
%FSLAX46Y46*%
G04 Gerber Fmt 4.6, Leading zero omitted, Abs format (unit mm)*
G04 Created by KiCad (PCBNEW (5.1.5)-3) date 2020-05-29 21:58:10*
%MOMM*%
%LPD*%
G04 APERTURE LIST*
%ADD10C,0.100000*%
%ADD11R,1.500000X1.000000*%
%ADD12O,1.600000X1.600000*%
%ADD13R,1.600000X1.600000*%
%ADD14C,0.800000*%
%ADD15C,0.250000*%
%ADD16C,0.300000*%
%ADD17C,0.500000*%
%ADD18C,0.254000*%
G04 APERTURE END LIST*
D10*
G36*
X147366000Y-80507000D02*
G01*
X147366000Y-81007000D01*
X146766000Y-81007000D01*
X146766000Y-80507000D01*
X147366000Y-80507000D01*
G37*
G36*
X145334000Y-78646000D02*
G01*
X145334000Y-78146000D01*
X144734000Y-78146000D01*
X144734000Y-78646000D01*
X145334000Y-78646000D01*
G37*
G36*
X144734000Y-84205000D02*
G01*
X144734000Y-84705000D01*
X145334000Y-84705000D01*
X145334000Y-84205000D01*
X144734000Y-84205000D01*
G37*
G04 #@! TA.AperFunction,SMDPad,CuDef*
G36*
X146316000Y-80657000D02*
G01*
X146316000Y-80107000D01*
X146316602Y-80107000D01*
X146316602Y-80082466D01*
X146321412Y-80033635D01*
X146330984Y-79985510D01*
X146345228Y-79938555D01*
X146364005Y-79893222D01*
X146387136Y-79849949D01*
X146414396Y-79809150D01*
X146445524Y-79771221D01*
X146480221Y-79736524D01*
X146518150Y-79705396D01*
X146558949Y-79678136D01*
X146602222Y-79655005D01*
X146647555Y-79636228D01*
X146694510Y-79621984D01*
X146742635Y-79612412D01*
X146791466Y-79607602D01*
X146816000Y-79607602D01*
X146816000Y-79607000D01*
X147316000Y-79607000D01*
X147316000Y-79607602D01*
X147340534Y-79607602D01*
X147389365Y-79612412D01*
X147437490Y-79621984D01*
X147484445Y-79636228D01*
X147529778Y-79655005D01*
X147573051Y-79678136D01*
X147613850Y-79705396D01*
X147651779Y-79736524D01*
X147686476Y-79771221D01*
X147717604Y-79809150D01*
X147744864Y-79849949D01*
X147767995Y-79893222D01*
X147786772Y-79938555D01*
X147801016Y-79985510D01*
X147810588Y-80033635D01*
X147815398Y-80082466D01*
X147815398Y-80107000D01*
X147816000Y-80107000D01*
X147816000Y-80657000D01*
X146316000Y-80657000D01*
G37*
G04 #@! TD.AperFunction*
D11*
X147066000Y-81407000D03*
G04 #@! TA.AperFunction,SMDPad,CuDef*
D10*
G36*
X147815398Y-82707000D02*
G01*
X147815398Y-82731534D01*
X147810588Y-82780365D01*
X147801016Y-82828490D01*
X147786772Y-82875445D01*
X147767995Y-82920778D01*
X147744864Y-82964051D01*
X147717604Y-83004850D01*
X147686476Y-83042779D01*
X147651779Y-83077476D01*
X147613850Y-83108604D01*
X147573051Y-83135864D01*
X147529778Y-83158995D01*
X147484445Y-83177772D01*
X147437490Y-83192016D01*
X147389365Y-83201588D01*
X147340534Y-83206398D01*
X147316000Y-83206398D01*
X147316000Y-83207000D01*
X146816000Y-83207000D01*
X146816000Y-83206398D01*
X146791466Y-83206398D01*
X146742635Y-83201588D01*
X146694510Y-83192016D01*
X146647555Y-83177772D01*
X146602222Y-83158995D01*
X146558949Y-83135864D01*
X146518150Y-83108604D01*
X146480221Y-83077476D01*
X146445524Y-83042779D01*
X146414396Y-83004850D01*
X146387136Y-82964051D01*
X146364005Y-82920778D01*
X146345228Y-82875445D01*
X146330984Y-82828490D01*
X146321412Y-82780365D01*
X146316602Y-82731534D01*
X146316602Y-82707000D01*
X146316000Y-82707000D01*
X146316000Y-82157000D01*
X147816000Y-82157000D01*
X147816000Y-82707000D01*
X147815398Y-82707000D01*
G37*
G04 #@! TD.AperFunction*
G04 #@! TA.AperFunction,SMDPad,CuDef*
G36*
X144284000Y-78246000D02*
G01*
X144284000Y-77746000D01*
X144284602Y-77746000D01*
X144284602Y-77721466D01*
X144289412Y-77672635D01*
X144298984Y-77624510D01*
X144313228Y-77577555D01*
X144332005Y-77532222D01*
X144355136Y-77488949D01*
X144382396Y-77448150D01*
X144413524Y-77410221D01*
X144448221Y-77375524D01*
X144486150Y-77344396D01*
X144526949Y-77317136D01*
X144570222Y-77294005D01*
X144615555Y-77275228D01*
X144662510Y-77260984D01*
X144710635Y-77251412D01*
X144759466Y-77246602D01*
X144784000Y-77246602D01*
X144784000Y-77246000D01*
X145284000Y-77246000D01*
X145284000Y-77246602D01*
X145308534Y-77246602D01*
X145357365Y-77251412D01*
X145405490Y-77260984D01*
X145452445Y-77275228D01*
X145497778Y-77294005D01*
X145541051Y-77317136D01*
X145581850Y-77344396D01*
X145619779Y-77375524D01*
X145654476Y-77410221D01*
X145685604Y-77448150D01*
X145712864Y-77488949D01*
X145735995Y-77532222D01*
X145754772Y-77577555D01*
X145769016Y-77624510D01*
X145778588Y-77672635D01*
X145783398Y-77721466D01*
X145783398Y-77746000D01*
X145784000Y-77746000D01*
X145784000Y-78246000D01*
X144284000Y-78246000D01*
G37*
G04 #@! TD.AperFunction*
G04 #@! TA.AperFunction,SMDPad,CuDef*
G36*
X145783398Y-79046000D02*
G01*
X145783398Y-79070534D01*
X145778588Y-79119365D01*
X145769016Y-79167490D01*
X145754772Y-79214445D01*
X145735995Y-79259778D01*
X145712864Y-79303051D01*
X145685604Y-79343850D01*
X145654476Y-79381779D01*
X145619779Y-79416476D01*
X145581850Y-79447604D01*
X145541051Y-79474864D01*
X145497778Y-79497995D01*
X145452445Y-79516772D01*
X145405490Y-79531016D01*
X145357365Y-79540588D01*
X145308534Y-79545398D01*
X145284000Y-79545398D01*
X145284000Y-79546000D01*
X144784000Y-79546000D01*
X144784000Y-79545398D01*
X144759466Y-79545398D01*
X144710635Y-79540588D01*
X144662510Y-79531016D01*
X144615555Y-79516772D01*
X144570222Y-79497995D01*
X144526949Y-79474864D01*
X144486150Y-79447604D01*
X144448221Y-79416476D01*
X144413524Y-79381779D01*
X144382396Y-79343850D01*
X144355136Y-79303051D01*
X144332005Y-79259778D01*
X144313228Y-79214445D01*
X144298984Y-79167490D01*
X144289412Y-79119365D01*
X144284602Y-79070534D01*
X144284602Y-79046000D01*
X144284000Y-79046000D01*
X144284000Y-78546000D01*
X145784000Y-78546000D01*
X145784000Y-79046000D01*
X145783398Y-79046000D01*
G37*
G04 #@! TD.AperFunction*
G04 #@! TA.AperFunction,SMDPad,CuDef*
G36*
X145784000Y-84605000D02*
G01*
X145784000Y-85105000D01*
X145783398Y-85105000D01*
X145783398Y-85129534D01*
X145778588Y-85178365D01*
X145769016Y-85226490D01*
X145754772Y-85273445D01*
X145735995Y-85318778D01*
X145712864Y-85362051D01*
X145685604Y-85402850D01*
X145654476Y-85440779D01*
X145619779Y-85475476D01*
X145581850Y-85506604D01*
X145541051Y-85533864D01*
X145497778Y-85556995D01*
X145452445Y-85575772D01*
X145405490Y-85590016D01*
X145357365Y-85599588D01*
X145308534Y-85604398D01*
X145284000Y-85604398D01*
X145284000Y-85605000D01*
X144784000Y-85605000D01*
X144784000Y-85604398D01*
X144759466Y-85604398D01*
X144710635Y-85599588D01*
X144662510Y-85590016D01*
X144615555Y-85575772D01*
X144570222Y-85556995D01*
X144526949Y-85533864D01*
X144486150Y-85506604D01*
X144448221Y-85475476D01*
X144413524Y-85440779D01*
X144382396Y-85402850D01*
X144355136Y-85362051D01*
X144332005Y-85318778D01*
X144313228Y-85273445D01*
X144298984Y-85226490D01*
X144289412Y-85178365D01*
X144284602Y-85129534D01*
X144284602Y-85105000D01*
X144284000Y-85105000D01*
X144284000Y-84605000D01*
X145784000Y-84605000D01*
G37*
G04 #@! TD.AperFunction*
G04 #@! TA.AperFunction,SMDPad,CuDef*
G36*
X144284602Y-83805000D02*
G01*
X144284602Y-83780466D01*
X144289412Y-83731635D01*
X144298984Y-83683510D01*
X144313228Y-83636555D01*
X144332005Y-83591222D01*
X144355136Y-83547949D01*
X144382396Y-83507150D01*
X144413524Y-83469221D01*
X144448221Y-83434524D01*
X144486150Y-83403396D01*
X144526949Y-83376136D01*
X144570222Y-83353005D01*
X144615555Y-83334228D01*
X144662510Y-83319984D01*
X144710635Y-83310412D01*
X144759466Y-83305602D01*
X144784000Y-83305602D01*
X144784000Y-83305000D01*
X145284000Y-83305000D01*
X145284000Y-83305602D01*
X145308534Y-83305602D01*
X145357365Y-83310412D01*
X145405490Y-83319984D01*
X145452445Y-83334228D01*
X145497778Y-83353005D01*
X145541051Y-83376136D01*
X145581850Y-83403396D01*
X145619779Y-83434524D01*
X145654476Y-83469221D01*
X145685604Y-83507150D01*
X145712864Y-83547949D01*
X145735995Y-83591222D01*
X145754772Y-83636555D01*
X145769016Y-83683510D01*
X145778588Y-83731635D01*
X145783398Y-83780466D01*
X145783398Y-83805000D01*
X145784000Y-83805000D01*
X145784000Y-84305000D01*
X144284000Y-84305000D01*
X144284000Y-83805000D01*
X144284602Y-83805000D01*
G37*
G04 #@! TD.AperFunction*
G04 #@! TA.AperFunction,SMDPad,CuDef*
G36*
X145929779Y-73870144D02*
G01*
X145952834Y-73873563D01*
X145975443Y-73879227D01*
X145997387Y-73887079D01*
X146018457Y-73897044D01*
X146038448Y-73909026D01*
X146057168Y-73922910D01*
X146074438Y-73938562D01*
X146090090Y-73955832D01*
X146103974Y-73974552D01*
X146115956Y-73994543D01*
X146125921Y-74015613D01*
X146133773Y-74037557D01*
X146139437Y-74060166D01*
X146142856Y-74083221D01*
X146144000Y-74106500D01*
X146144000Y-74681500D01*
X146142856Y-74704779D01*
X146139437Y-74727834D01*
X146133773Y-74750443D01*
X146125921Y-74772387D01*
X146115956Y-74793457D01*
X146103974Y-74813448D01*
X146090090Y-74832168D01*
X146074438Y-74849438D01*
X146057168Y-74865090D01*
X146038448Y-74878974D01*
X146018457Y-74890956D01*
X145997387Y-74900921D01*
X145975443Y-74908773D01*
X145952834Y-74914437D01*
X145929779Y-74917856D01*
X145906500Y-74919000D01*
X145431500Y-74919000D01*
X145408221Y-74917856D01*
X145385166Y-74914437D01*
X145362557Y-74908773D01*
X145340613Y-74900921D01*
X145319543Y-74890956D01*
X145299552Y-74878974D01*
X145280832Y-74865090D01*
X145263562Y-74849438D01*
X145247910Y-74832168D01*
X145234026Y-74813448D01*
X145222044Y-74793457D01*
X145212079Y-74772387D01*
X145204227Y-74750443D01*
X145198563Y-74727834D01*
X145195144Y-74704779D01*
X145194000Y-74681500D01*
X145194000Y-74106500D01*
X145195144Y-74083221D01*
X145198563Y-74060166D01*
X145204227Y-74037557D01*
X145212079Y-74015613D01*
X145222044Y-73994543D01*
X145234026Y-73974552D01*
X145247910Y-73955832D01*
X145263562Y-73938562D01*
X145280832Y-73922910D01*
X145299552Y-73909026D01*
X145319543Y-73897044D01*
X145340613Y-73887079D01*
X145362557Y-73879227D01*
X145385166Y-73873563D01*
X145408221Y-73870144D01*
X145431500Y-73869000D01*
X145906500Y-73869000D01*
X145929779Y-73870144D01*
G37*
G04 #@! TD.AperFunction*
G04 #@! TA.AperFunction,SMDPad,CuDef*
G36*
X145929779Y-72120144D02*
G01*
X145952834Y-72123563D01*
X145975443Y-72129227D01*
X145997387Y-72137079D01*
X146018457Y-72147044D01*
X146038448Y-72159026D01*
X146057168Y-72172910D01*
X146074438Y-72188562D01*
X146090090Y-72205832D01*
X146103974Y-72224552D01*
X146115956Y-72244543D01*
X146125921Y-72265613D01*
X146133773Y-72287557D01*
X146139437Y-72310166D01*
X146142856Y-72333221D01*
X146144000Y-72356500D01*
X146144000Y-72931500D01*
X146142856Y-72954779D01*
X146139437Y-72977834D01*
X146133773Y-73000443D01*
X146125921Y-73022387D01*
X146115956Y-73043457D01*
X146103974Y-73063448D01*
X146090090Y-73082168D01*
X146074438Y-73099438D01*
X146057168Y-73115090D01*
X146038448Y-73128974D01*
X146018457Y-73140956D01*
X145997387Y-73150921D01*
X145975443Y-73158773D01*
X145952834Y-73164437D01*
X145929779Y-73167856D01*
X145906500Y-73169000D01*
X145431500Y-73169000D01*
X145408221Y-73167856D01*
X145385166Y-73164437D01*
X145362557Y-73158773D01*
X145340613Y-73150921D01*
X145319543Y-73140956D01*
X145299552Y-73128974D01*
X145280832Y-73115090D01*
X145263562Y-73099438D01*
X145247910Y-73082168D01*
X145234026Y-73063448D01*
X145222044Y-73043457D01*
X145212079Y-73022387D01*
X145204227Y-73000443D01*
X145198563Y-72977834D01*
X145195144Y-72954779D01*
X145194000Y-72931500D01*
X145194000Y-72356500D01*
X145195144Y-72333221D01*
X145198563Y-72310166D01*
X145204227Y-72287557D01*
X145212079Y-72265613D01*
X145222044Y-72244543D01*
X145234026Y-72224552D01*
X145247910Y-72205832D01*
X145263562Y-72188562D01*
X145280832Y-72172910D01*
X145299552Y-72159026D01*
X145319543Y-72147044D01*
X145340613Y-72137079D01*
X145362557Y-72129227D01*
X145385166Y-72123563D01*
X145408221Y-72120144D01*
X145431500Y-72119000D01*
X145906500Y-72119000D01*
X145929779Y-72120144D01*
G37*
G04 #@! TD.AperFunction*
G04 #@! TA.AperFunction,SMDPad,CuDef*
G36*
X144483779Y-75599144D02*
G01*
X144506834Y-75602563D01*
X144529443Y-75608227D01*
X144551387Y-75616079D01*
X144572457Y-75626044D01*
X144592448Y-75638026D01*
X144611168Y-75651910D01*
X144628438Y-75667562D01*
X144644090Y-75684832D01*
X144657974Y-75703552D01*
X144669956Y-75723543D01*
X144679921Y-75744613D01*
X144687773Y-75766557D01*
X144693437Y-75789166D01*
X144696856Y-75812221D01*
X144698000Y-75835500D01*
X144698000Y-76310500D01*
X144696856Y-76333779D01*
X144693437Y-76356834D01*
X144687773Y-76379443D01*
X144679921Y-76401387D01*
X144669956Y-76422457D01*
X144657974Y-76442448D01*
X144644090Y-76461168D01*
X144628438Y-76478438D01*
X144611168Y-76494090D01*
X144592448Y-76507974D01*
X144572457Y-76519956D01*
X144551387Y-76529921D01*
X144529443Y-76537773D01*
X144506834Y-76543437D01*
X144483779Y-76546856D01*
X144460500Y-76548000D01*
X143885500Y-76548000D01*
X143862221Y-76546856D01*
X143839166Y-76543437D01*
X143816557Y-76537773D01*
X143794613Y-76529921D01*
X143773543Y-76519956D01*
X143753552Y-76507974D01*
X143734832Y-76494090D01*
X143717562Y-76478438D01*
X143701910Y-76461168D01*
X143688026Y-76442448D01*
X143676044Y-76422457D01*
X143666079Y-76401387D01*
X143658227Y-76379443D01*
X143652563Y-76356834D01*
X143649144Y-76333779D01*
X143648000Y-76310500D01*
X143648000Y-75835500D01*
X143649144Y-75812221D01*
X143652563Y-75789166D01*
X143658227Y-75766557D01*
X143666079Y-75744613D01*
X143676044Y-75723543D01*
X143688026Y-75703552D01*
X143701910Y-75684832D01*
X143717562Y-75667562D01*
X143734832Y-75651910D01*
X143753552Y-75638026D01*
X143773543Y-75626044D01*
X143794613Y-75616079D01*
X143816557Y-75608227D01*
X143839166Y-75602563D01*
X143862221Y-75599144D01*
X143885500Y-75598000D01*
X144460500Y-75598000D01*
X144483779Y-75599144D01*
G37*
G04 #@! TD.AperFunction*
G04 #@! TA.AperFunction,SMDPad,CuDef*
G36*
X146233779Y-75599144D02*
G01*
X146256834Y-75602563D01*
X146279443Y-75608227D01*
X146301387Y-75616079D01*
X146322457Y-75626044D01*
X146342448Y-75638026D01*
X146361168Y-75651910D01*
X146378438Y-75667562D01*
X146394090Y-75684832D01*
X146407974Y-75703552D01*
X146419956Y-75723543D01*
X146429921Y-75744613D01*
X146437773Y-75766557D01*
X146443437Y-75789166D01*
X146446856Y-75812221D01*
X146448000Y-75835500D01*
X146448000Y-76310500D01*
X146446856Y-76333779D01*
X146443437Y-76356834D01*
X146437773Y-76379443D01*
X146429921Y-76401387D01*
X146419956Y-76422457D01*
X146407974Y-76442448D01*
X146394090Y-76461168D01*
X146378438Y-76478438D01*
X146361168Y-76494090D01*
X146342448Y-76507974D01*
X146322457Y-76519956D01*
X146301387Y-76529921D01*
X146279443Y-76537773D01*
X146256834Y-76543437D01*
X146233779Y-76546856D01*
X146210500Y-76548000D01*
X145635500Y-76548000D01*
X145612221Y-76546856D01*
X145589166Y-76543437D01*
X145566557Y-76537773D01*
X145544613Y-76529921D01*
X145523543Y-76519956D01*
X145503552Y-76507974D01*
X145484832Y-76494090D01*
X145467562Y-76478438D01*
X145451910Y-76461168D01*
X145438026Y-76442448D01*
X145426044Y-76422457D01*
X145416079Y-76401387D01*
X145408227Y-76379443D01*
X145402563Y-76356834D01*
X145399144Y-76333779D01*
X145398000Y-76310500D01*
X145398000Y-75835500D01*
X145399144Y-75812221D01*
X145402563Y-75789166D01*
X145408227Y-75766557D01*
X145416079Y-75744613D01*
X145426044Y-75723543D01*
X145438026Y-75703552D01*
X145451910Y-75684832D01*
X145467562Y-75667562D01*
X145484832Y-75651910D01*
X145503552Y-75638026D01*
X145523543Y-75626044D01*
X145544613Y-75616079D01*
X145566557Y-75608227D01*
X145589166Y-75602563D01*
X145612221Y-75599144D01*
X145635500Y-75598000D01*
X146210500Y-75598000D01*
X146233779Y-75599144D01*
G37*
G04 #@! TD.AperFunction*
G04 #@! TA.AperFunction,SMDPad,CuDef*
G36*
X146233779Y-70646144D02*
G01*
X146256834Y-70649563D01*
X146279443Y-70655227D01*
X146301387Y-70663079D01*
X146322457Y-70673044D01*
X146342448Y-70685026D01*
X146361168Y-70698910D01*
X146378438Y-70714562D01*
X146394090Y-70731832D01*
X146407974Y-70750552D01*
X146419956Y-70770543D01*
X146429921Y-70791613D01*
X146437773Y-70813557D01*
X146443437Y-70836166D01*
X146446856Y-70859221D01*
X146448000Y-70882500D01*
X146448000Y-71357500D01*
X146446856Y-71380779D01*
X146443437Y-71403834D01*
X146437773Y-71426443D01*
X146429921Y-71448387D01*
X146419956Y-71469457D01*
X146407974Y-71489448D01*
X146394090Y-71508168D01*
X146378438Y-71525438D01*
X146361168Y-71541090D01*
X146342448Y-71554974D01*
X146322457Y-71566956D01*
X146301387Y-71576921D01*
X146279443Y-71584773D01*
X146256834Y-71590437D01*
X146233779Y-71593856D01*
X146210500Y-71595000D01*
X145635500Y-71595000D01*
X145612221Y-71593856D01*
X145589166Y-71590437D01*
X145566557Y-71584773D01*
X145544613Y-71576921D01*
X145523543Y-71566956D01*
X145503552Y-71554974D01*
X145484832Y-71541090D01*
X145467562Y-71525438D01*
X145451910Y-71508168D01*
X145438026Y-71489448D01*
X145426044Y-71469457D01*
X145416079Y-71448387D01*
X145408227Y-71426443D01*
X145402563Y-71403834D01*
X145399144Y-71380779D01*
X145398000Y-71357500D01*
X145398000Y-70882500D01*
X145399144Y-70859221D01*
X145402563Y-70836166D01*
X145408227Y-70813557D01*
X145416079Y-70791613D01*
X145426044Y-70770543D01*
X145438026Y-70750552D01*
X145451910Y-70731832D01*
X145467562Y-70714562D01*
X145484832Y-70698910D01*
X145503552Y-70685026D01*
X145523543Y-70673044D01*
X145544613Y-70663079D01*
X145566557Y-70655227D01*
X145589166Y-70649563D01*
X145612221Y-70646144D01*
X145635500Y-70645000D01*
X146210500Y-70645000D01*
X146233779Y-70646144D01*
G37*
G04 #@! TD.AperFunction*
G04 #@! TA.AperFunction,SMDPad,CuDef*
G36*
X144483779Y-70646144D02*
G01*
X144506834Y-70649563D01*
X144529443Y-70655227D01*
X144551387Y-70663079D01*
X144572457Y-70673044D01*
X144592448Y-70685026D01*
X144611168Y-70698910D01*
X144628438Y-70714562D01*
X144644090Y-70731832D01*
X144657974Y-70750552D01*
X144669956Y-70770543D01*
X144679921Y-70791613D01*
X144687773Y-70813557D01*
X144693437Y-70836166D01*
X144696856Y-70859221D01*
X144698000Y-70882500D01*
X144698000Y-71357500D01*
X144696856Y-71380779D01*
X144693437Y-71403834D01*
X144687773Y-71426443D01*
X144679921Y-71448387D01*
X144669956Y-71469457D01*
X144657974Y-71489448D01*
X144644090Y-71508168D01*
X144628438Y-71525438D01*
X144611168Y-71541090D01*
X144592448Y-71554974D01*
X144572457Y-71566956D01*
X144551387Y-71576921D01*
X144529443Y-71584773D01*
X144506834Y-71590437D01*
X144483779Y-71593856D01*
X144460500Y-71595000D01*
X143885500Y-71595000D01*
X143862221Y-71593856D01*
X143839166Y-71590437D01*
X143816557Y-71584773D01*
X143794613Y-71576921D01*
X143773543Y-71566956D01*
X143753552Y-71554974D01*
X143734832Y-71541090D01*
X143717562Y-71525438D01*
X143701910Y-71508168D01*
X143688026Y-71489448D01*
X143676044Y-71469457D01*
X143666079Y-71448387D01*
X143658227Y-71426443D01*
X143652563Y-71403834D01*
X143649144Y-71380779D01*
X143648000Y-71357500D01*
X143648000Y-70882500D01*
X143649144Y-70859221D01*
X143652563Y-70836166D01*
X143658227Y-70813557D01*
X143666079Y-70791613D01*
X143676044Y-70770543D01*
X143688026Y-70750552D01*
X143701910Y-70731832D01*
X143717562Y-70714562D01*
X143734832Y-70698910D01*
X143753552Y-70685026D01*
X143773543Y-70673044D01*
X143794613Y-70663079D01*
X143816557Y-70655227D01*
X143839166Y-70649563D01*
X143862221Y-70646144D01*
X143885500Y-70645000D01*
X144460500Y-70645000D01*
X144483779Y-70646144D01*
G37*
G04 #@! TD.AperFunction*
G04 #@! TA.AperFunction,SMDPad,CuDef*
G36*
X144532779Y-72148144D02*
G01*
X144555834Y-72151563D01*
X144578443Y-72157227D01*
X144600387Y-72165079D01*
X144621457Y-72175044D01*
X144641448Y-72187026D01*
X144660168Y-72200910D01*
X144677438Y-72216562D01*
X144693090Y-72233832D01*
X144706974Y-72252552D01*
X144718956Y-72272543D01*
X144728921Y-72293613D01*
X144736773Y-72315557D01*
X144742437Y-72338166D01*
X144745856Y-72361221D01*
X144747000Y-72384500D01*
X144747000Y-72959500D01*
X144745856Y-72982779D01*
X144742437Y-73005834D01*
X144736773Y-73028443D01*
X144728921Y-73050387D01*
X144718956Y-73071457D01*
X144706974Y-73091448D01*
X144693090Y-73110168D01*
X144677438Y-73127438D01*
X144660168Y-73143090D01*
X144641448Y-73156974D01*
X144621457Y-73168956D01*
X144600387Y-73178921D01*
X144578443Y-73186773D01*
X144555834Y-73192437D01*
X144532779Y-73195856D01*
X144509500Y-73197000D01*
X144034500Y-73197000D01*
X144011221Y-73195856D01*
X143988166Y-73192437D01*
X143965557Y-73186773D01*
X143943613Y-73178921D01*
X143922543Y-73168956D01*
X143902552Y-73156974D01*
X143883832Y-73143090D01*
X143866562Y-73127438D01*
X143850910Y-73110168D01*
X143837026Y-73091448D01*
X143825044Y-73071457D01*
X143815079Y-73050387D01*
X143807227Y-73028443D01*
X143801563Y-73005834D01*
X143798144Y-72982779D01*
X143797000Y-72959500D01*
X143797000Y-72384500D01*
X143798144Y-72361221D01*
X143801563Y-72338166D01*
X143807227Y-72315557D01*
X143815079Y-72293613D01*
X143825044Y-72272543D01*
X143837026Y-72252552D01*
X143850910Y-72233832D01*
X143866562Y-72216562D01*
X143883832Y-72200910D01*
X143902552Y-72187026D01*
X143922543Y-72175044D01*
X143943613Y-72165079D01*
X143965557Y-72157227D01*
X143988166Y-72151563D01*
X144011221Y-72148144D01*
X144034500Y-72147000D01*
X144509500Y-72147000D01*
X144532779Y-72148144D01*
G37*
G04 #@! TD.AperFunction*
G04 #@! TA.AperFunction,SMDPad,CuDef*
G36*
X144532779Y-73898144D02*
G01*
X144555834Y-73901563D01*
X144578443Y-73907227D01*
X144600387Y-73915079D01*
X144621457Y-73925044D01*
X144641448Y-73937026D01*
X144660168Y-73950910D01*
X144677438Y-73966562D01*
X144693090Y-73983832D01*
X144706974Y-74002552D01*
X144718956Y-74022543D01*
X144728921Y-74043613D01*
X144736773Y-74065557D01*
X144742437Y-74088166D01*
X144745856Y-74111221D01*
X144747000Y-74134500D01*
X144747000Y-74709500D01*
X144745856Y-74732779D01*
X144742437Y-74755834D01*
X144736773Y-74778443D01*
X144728921Y-74800387D01*
X144718956Y-74821457D01*
X144706974Y-74841448D01*
X144693090Y-74860168D01*
X144677438Y-74877438D01*
X144660168Y-74893090D01*
X144641448Y-74906974D01*
X144621457Y-74918956D01*
X144600387Y-74928921D01*
X144578443Y-74936773D01*
X144555834Y-74942437D01*
X144532779Y-74945856D01*
X144509500Y-74947000D01*
X144034500Y-74947000D01*
X144011221Y-74945856D01*
X143988166Y-74942437D01*
X143965557Y-74936773D01*
X143943613Y-74928921D01*
X143922543Y-74918956D01*
X143902552Y-74906974D01*
X143883832Y-74893090D01*
X143866562Y-74877438D01*
X143850910Y-74860168D01*
X143837026Y-74841448D01*
X143825044Y-74821457D01*
X143815079Y-74800387D01*
X143807227Y-74778443D01*
X143801563Y-74755834D01*
X143798144Y-74732779D01*
X143797000Y-74709500D01*
X143797000Y-74134500D01*
X143798144Y-74111221D01*
X143801563Y-74088166D01*
X143807227Y-74065557D01*
X143815079Y-74043613D01*
X143825044Y-74022543D01*
X143837026Y-74002552D01*
X143850910Y-73983832D01*
X143866562Y-73966562D01*
X143883832Y-73950910D01*
X143902552Y-73937026D01*
X143922543Y-73925044D01*
X143943613Y-73915079D01*
X143965557Y-73907227D01*
X143988166Y-73901563D01*
X144011221Y-73898144D01*
X144034500Y-73897000D01*
X144509500Y-73897000D01*
X144532779Y-73898144D01*
G37*
G04 #@! TD.AperFunction*
G04 #@! TA.AperFunction,SMDPad,CuDef*
G36*
X145294779Y-81758144D02*
G01*
X145317834Y-81761563D01*
X145340443Y-81767227D01*
X145362387Y-81775079D01*
X145383457Y-81785044D01*
X145403448Y-81797026D01*
X145422168Y-81810910D01*
X145439438Y-81826562D01*
X145455090Y-81843832D01*
X145468974Y-81862552D01*
X145480956Y-81882543D01*
X145490921Y-81903613D01*
X145498773Y-81925557D01*
X145504437Y-81948166D01*
X145507856Y-81971221D01*
X145509000Y-81994500D01*
X145509000Y-82569500D01*
X145507856Y-82592779D01*
X145504437Y-82615834D01*
X145498773Y-82638443D01*
X145490921Y-82660387D01*
X145480956Y-82681457D01*
X145468974Y-82701448D01*
X145455090Y-82720168D01*
X145439438Y-82737438D01*
X145422168Y-82753090D01*
X145403448Y-82766974D01*
X145383457Y-82778956D01*
X145362387Y-82788921D01*
X145340443Y-82796773D01*
X145317834Y-82802437D01*
X145294779Y-82805856D01*
X145271500Y-82807000D01*
X144796500Y-82807000D01*
X144773221Y-82805856D01*
X144750166Y-82802437D01*
X144727557Y-82796773D01*
X144705613Y-82788921D01*
X144684543Y-82778956D01*
X144664552Y-82766974D01*
X144645832Y-82753090D01*
X144628562Y-82737438D01*
X144612910Y-82720168D01*
X144599026Y-82701448D01*
X144587044Y-82681457D01*
X144577079Y-82660387D01*
X144569227Y-82638443D01*
X144563563Y-82615834D01*
X144560144Y-82592779D01*
X144559000Y-82569500D01*
X144559000Y-81994500D01*
X144560144Y-81971221D01*
X144563563Y-81948166D01*
X144569227Y-81925557D01*
X144577079Y-81903613D01*
X144587044Y-81882543D01*
X144599026Y-81862552D01*
X144612910Y-81843832D01*
X144628562Y-81826562D01*
X144645832Y-81810910D01*
X144664552Y-81797026D01*
X144684543Y-81785044D01*
X144705613Y-81775079D01*
X144727557Y-81767227D01*
X144750166Y-81761563D01*
X144773221Y-81758144D01*
X144796500Y-81757000D01*
X145271500Y-81757000D01*
X145294779Y-81758144D01*
G37*
G04 #@! TD.AperFunction*
G04 #@! TA.AperFunction,SMDPad,CuDef*
G36*
X145294779Y-80008144D02*
G01*
X145317834Y-80011563D01*
X145340443Y-80017227D01*
X145362387Y-80025079D01*
X145383457Y-80035044D01*
X145403448Y-80047026D01*
X145422168Y-80060910D01*
X145439438Y-80076562D01*
X145455090Y-80093832D01*
X145468974Y-80112552D01*
X145480956Y-80132543D01*
X145490921Y-80153613D01*
X145498773Y-80175557D01*
X145504437Y-80198166D01*
X145507856Y-80221221D01*
X145509000Y-80244500D01*
X145509000Y-80819500D01*
X145507856Y-80842779D01*
X145504437Y-80865834D01*
X145498773Y-80888443D01*
X145490921Y-80910387D01*
X145480956Y-80931457D01*
X145468974Y-80951448D01*
X145455090Y-80970168D01*
X145439438Y-80987438D01*
X145422168Y-81003090D01*
X145403448Y-81016974D01*
X145383457Y-81028956D01*
X145362387Y-81038921D01*
X145340443Y-81046773D01*
X145317834Y-81052437D01*
X145294779Y-81055856D01*
X145271500Y-81057000D01*
X144796500Y-81057000D01*
X144773221Y-81055856D01*
X144750166Y-81052437D01*
X144727557Y-81046773D01*
X144705613Y-81038921D01*
X144684543Y-81028956D01*
X144664552Y-81016974D01*
X144645832Y-81003090D01*
X144628562Y-80987438D01*
X144612910Y-80970168D01*
X144599026Y-80951448D01*
X144587044Y-80931457D01*
X144577079Y-80910387D01*
X144569227Y-80888443D01*
X144563563Y-80865834D01*
X144560144Y-80842779D01*
X144559000Y-80819500D01*
X144559000Y-80244500D01*
X144560144Y-80221221D01*
X144563563Y-80198166D01*
X144569227Y-80175557D01*
X144577079Y-80153613D01*
X144587044Y-80132543D01*
X144599026Y-80112552D01*
X144612910Y-80093832D01*
X144628562Y-80076562D01*
X144645832Y-80060910D01*
X144664552Y-80047026D01*
X144684543Y-80035044D01*
X144705613Y-80025079D01*
X144727557Y-80017227D01*
X144750166Y-80011563D01*
X144773221Y-80008144D01*
X144796500Y-80007000D01*
X145271500Y-80007000D01*
X145294779Y-80008144D01*
G37*
G04 #@! TD.AperFunction*
D12*
X154940000Y-71120000D03*
X142240000Y-88900000D03*
X154940000Y-73660000D03*
X142240000Y-86360000D03*
X154940000Y-76200000D03*
X142240000Y-83820000D03*
X154940000Y-78740000D03*
X142240000Y-81280000D03*
X154940000Y-81280000D03*
X142240000Y-78740000D03*
X154940000Y-83820000D03*
X142240000Y-76200000D03*
X154940000Y-86360000D03*
X142240000Y-73660000D03*
X154940000Y-88900000D03*
D13*
X142240000Y-71120000D03*
G04 #@! TA.AperFunction,SMDPad,CuDef*
D10*
G36*
X151438505Y-71984204D02*
G01*
X151462773Y-71987804D01*
X151486572Y-71993765D01*
X151509671Y-72002030D01*
X151531850Y-72012520D01*
X151552893Y-72025132D01*
X151572599Y-72039747D01*
X151590777Y-72056223D01*
X151607253Y-72074401D01*
X151621868Y-72094107D01*
X151634480Y-72115150D01*
X151644970Y-72137329D01*
X151653235Y-72160428D01*
X151659196Y-72184227D01*
X151662796Y-72208495D01*
X151664000Y-72232999D01*
X151664000Y-74833001D01*
X151662796Y-74857505D01*
X151659196Y-74881773D01*
X151653235Y-74905572D01*
X151644970Y-74928671D01*
X151634480Y-74950850D01*
X151621868Y-74971893D01*
X151607253Y-74991599D01*
X151590777Y-75009777D01*
X151572599Y-75026253D01*
X151552893Y-75040868D01*
X151531850Y-75053480D01*
X151509671Y-75063970D01*
X151486572Y-75072235D01*
X151462773Y-75078196D01*
X151438505Y-75081796D01*
X151414001Y-75083000D01*
X148813999Y-75083000D01*
X148789495Y-75081796D01*
X148765227Y-75078196D01*
X148741428Y-75072235D01*
X148718329Y-75063970D01*
X148696150Y-75053480D01*
X148675107Y-75040868D01*
X148655401Y-75026253D01*
X148637223Y-75009777D01*
X148620747Y-74991599D01*
X148606132Y-74971893D01*
X148593520Y-74950850D01*
X148583030Y-74928671D01*
X148574765Y-74905572D01*
X148568804Y-74881773D01*
X148565204Y-74857505D01*
X148564000Y-74833001D01*
X148564000Y-72232999D01*
X148565204Y-72208495D01*
X148568804Y-72184227D01*
X148574765Y-72160428D01*
X148583030Y-72137329D01*
X148593520Y-72115150D01*
X148606132Y-72094107D01*
X148620747Y-72074401D01*
X148637223Y-72056223D01*
X148655401Y-72039747D01*
X148675107Y-72025132D01*
X148696150Y-72012520D01*
X148718329Y-72002030D01*
X148741428Y-71993765D01*
X148765227Y-71987804D01*
X148789495Y-71984204D01*
X148813999Y-71983000D01*
X151414001Y-71983000D01*
X151438505Y-71984204D01*
G37*
G04 #@! TD.AperFunction*
G04 #@! TA.AperFunction,SMDPad,CuDef*
G36*
X148171351Y-72083361D02*
G01*
X148178632Y-72084441D01*
X148185771Y-72086229D01*
X148192701Y-72088709D01*
X148199355Y-72091856D01*
X148205668Y-72095640D01*
X148211579Y-72100024D01*
X148217033Y-72104967D01*
X148221976Y-72110421D01*
X148226360Y-72116332D01*
X148230144Y-72122645D01*
X148233291Y-72129299D01*
X148235771Y-72136229D01*
X148237559Y-72143368D01*
X148238639Y-72150649D01*
X148239000Y-72158000D01*
X148239000Y-72308000D01*
X148238639Y-72315351D01*
X148237559Y-72322632D01*
X148235771Y-72329771D01*
X148233291Y-72336701D01*
X148230144Y-72343355D01*
X148226360Y-72349668D01*
X148221976Y-72355579D01*
X148217033Y-72361033D01*
X148211579Y-72365976D01*
X148205668Y-72370360D01*
X148199355Y-72374144D01*
X148192701Y-72377291D01*
X148185771Y-72379771D01*
X148178632Y-72381559D01*
X148171351Y-72382639D01*
X148164000Y-72383000D01*
X147339000Y-72383000D01*
X147331649Y-72382639D01*
X147324368Y-72381559D01*
X147317229Y-72379771D01*
X147310299Y-72377291D01*
X147303645Y-72374144D01*
X147297332Y-72370360D01*
X147291421Y-72365976D01*
X147285967Y-72361033D01*
X147281024Y-72355579D01*
X147276640Y-72349668D01*
X147272856Y-72343355D01*
X147269709Y-72336701D01*
X147267229Y-72329771D01*
X147265441Y-72322632D01*
X147264361Y-72315351D01*
X147264000Y-72308000D01*
X147264000Y-72158000D01*
X147264361Y-72150649D01*
X147265441Y-72143368D01*
X147267229Y-72136229D01*
X147269709Y-72129299D01*
X147272856Y-72122645D01*
X147276640Y-72116332D01*
X147281024Y-72110421D01*
X147285967Y-72104967D01*
X147291421Y-72100024D01*
X147297332Y-72095640D01*
X147303645Y-72091856D01*
X147310299Y-72088709D01*
X147317229Y-72086229D01*
X147324368Y-72084441D01*
X147331649Y-72083361D01*
X147339000Y-72083000D01*
X148164000Y-72083000D01*
X148171351Y-72083361D01*
G37*
G04 #@! TD.AperFunction*
G04 #@! TA.AperFunction,SMDPad,CuDef*
G36*
X148171351Y-72733361D02*
G01*
X148178632Y-72734441D01*
X148185771Y-72736229D01*
X148192701Y-72738709D01*
X148199355Y-72741856D01*
X148205668Y-72745640D01*
X148211579Y-72750024D01*
X148217033Y-72754967D01*
X148221976Y-72760421D01*
X148226360Y-72766332D01*
X148230144Y-72772645D01*
X148233291Y-72779299D01*
X148235771Y-72786229D01*
X148237559Y-72793368D01*
X148238639Y-72800649D01*
X148239000Y-72808000D01*
X148239000Y-72958000D01*
X148238639Y-72965351D01*
X148237559Y-72972632D01*
X148235771Y-72979771D01*
X148233291Y-72986701D01*
X148230144Y-72993355D01*
X148226360Y-72999668D01*
X148221976Y-73005579D01*
X148217033Y-73011033D01*
X148211579Y-73015976D01*
X148205668Y-73020360D01*
X148199355Y-73024144D01*
X148192701Y-73027291D01*
X148185771Y-73029771D01*
X148178632Y-73031559D01*
X148171351Y-73032639D01*
X148164000Y-73033000D01*
X147339000Y-73033000D01*
X147331649Y-73032639D01*
X147324368Y-73031559D01*
X147317229Y-73029771D01*
X147310299Y-73027291D01*
X147303645Y-73024144D01*
X147297332Y-73020360D01*
X147291421Y-73015976D01*
X147285967Y-73011033D01*
X147281024Y-73005579D01*
X147276640Y-72999668D01*
X147272856Y-72993355D01*
X147269709Y-72986701D01*
X147267229Y-72979771D01*
X147265441Y-72972632D01*
X147264361Y-72965351D01*
X147264000Y-72958000D01*
X147264000Y-72808000D01*
X147264361Y-72800649D01*
X147265441Y-72793368D01*
X147267229Y-72786229D01*
X147269709Y-72779299D01*
X147272856Y-72772645D01*
X147276640Y-72766332D01*
X147281024Y-72760421D01*
X147285967Y-72754967D01*
X147291421Y-72750024D01*
X147297332Y-72745640D01*
X147303645Y-72741856D01*
X147310299Y-72738709D01*
X147317229Y-72736229D01*
X147324368Y-72734441D01*
X147331649Y-72733361D01*
X147339000Y-72733000D01*
X148164000Y-72733000D01*
X148171351Y-72733361D01*
G37*
G04 #@! TD.AperFunction*
G04 #@! TA.AperFunction,SMDPad,CuDef*
G36*
X148171351Y-73383361D02*
G01*
X148178632Y-73384441D01*
X148185771Y-73386229D01*
X148192701Y-73388709D01*
X148199355Y-73391856D01*
X148205668Y-73395640D01*
X148211579Y-73400024D01*
X148217033Y-73404967D01*
X148221976Y-73410421D01*
X148226360Y-73416332D01*
X148230144Y-73422645D01*
X148233291Y-73429299D01*
X148235771Y-73436229D01*
X148237559Y-73443368D01*
X148238639Y-73450649D01*
X148239000Y-73458000D01*
X148239000Y-73608000D01*
X148238639Y-73615351D01*
X148237559Y-73622632D01*
X148235771Y-73629771D01*
X148233291Y-73636701D01*
X148230144Y-73643355D01*
X148226360Y-73649668D01*
X148221976Y-73655579D01*
X148217033Y-73661033D01*
X148211579Y-73665976D01*
X148205668Y-73670360D01*
X148199355Y-73674144D01*
X148192701Y-73677291D01*
X148185771Y-73679771D01*
X148178632Y-73681559D01*
X148171351Y-73682639D01*
X148164000Y-73683000D01*
X147339000Y-73683000D01*
X147331649Y-73682639D01*
X147324368Y-73681559D01*
X147317229Y-73679771D01*
X147310299Y-73677291D01*
X147303645Y-73674144D01*
X147297332Y-73670360D01*
X147291421Y-73665976D01*
X147285967Y-73661033D01*
X147281024Y-73655579D01*
X147276640Y-73649668D01*
X147272856Y-73643355D01*
X147269709Y-73636701D01*
X147267229Y-73629771D01*
X147265441Y-73622632D01*
X147264361Y-73615351D01*
X147264000Y-73608000D01*
X147264000Y-73458000D01*
X147264361Y-73450649D01*
X147265441Y-73443368D01*
X147267229Y-73436229D01*
X147269709Y-73429299D01*
X147272856Y-73422645D01*
X147276640Y-73416332D01*
X147281024Y-73410421D01*
X147285967Y-73404967D01*
X147291421Y-73400024D01*
X147297332Y-73395640D01*
X147303645Y-73391856D01*
X147310299Y-73388709D01*
X147317229Y-73386229D01*
X147324368Y-73384441D01*
X147331649Y-73383361D01*
X147339000Y-73383000D01*
X148164000Y-73383000D01*
X148171351Y-73383361D01*
G37*
G04 #@! TD.AperFunction*
G04 #@! TA.AperFunction,SMDPad,CuDef*
G36*
X148171351Y-74033361D02*
G01*
X148178632Y-74034441D01*
X148185771Y-74036229D01*
X148192701Y-74038709D01*
X148199355Y-74041856D01*
X148205668Y-74045640D01*
X148211579Y-74050024D01*
X148217033Y-74054967D01*
X148221976Y-74060421D01*
X148226360Y-74066332D01*
X148230144Y-74072645D01*
X148233291Y-74079299D01*
X148235771Y-74086229D01*
X148237559Y-74093368D01*
X148238639Y-74100649D01*
X148239000Y-74108000D01*
X148239000Y-74258000D01*
X148238639Y-74265351D01*
X148237559Y-74272632D01*
X148235771Y-74279771D01*
X148233291Y-74286701D01*
X148230144Y-74293355D01*
X148226360Y-74299668D01*
X148221976Y-74305579D01*
X148217033Y-74311033D01*
X148211579Y-74315976D01*
X148205668Y-74320360D01*
X148199355Y-74324144D01*
X148192701Y-74327291D01*
X148185771Y-74329771D01*
X148178632Y-74331559D01*
X148171351Y-74332639D01*
X148164000Y-74333000D01*
X147339000Y-74333000D01*
X147331649Y-74332639D01*
X147324368Y-74331559D01*
X147317229Y-74329771D01*
X147310299Y-74327291D01*
X147303645Y-74324144D01*
X147297332Y-74320360D01*
X147291421Y-74315976D01*
X147285967Y-74311033D01*
X147281024Y-74305579D01*
X147276640Y-74299668D01*
X147272856Y-74293355D01*
X147269709Y-74286701D01*
X147267229Y-74279771D01*
X147265441Y-74272632D01*
X147264361Y-74265351D01*
X147264000Y-74258000D01*
X147264000Y-74108000D01*
X147264361Y-74100649D01*
X147265441Y-74093368D01*
X147267229Y-74086229D01*
X147269709Y-74079299D01*
X147272856Y-74072645D01*
X147276640Y-74066332D01*
X147281024Y-74060421D01*
X147285967Y-74054967D01*
X147291421Y-74050024D01*
X147297332Y-74045640D01*
X147303645Y-74041856D01*
X147310299Y-74038709D01*
X147317229Y-74036229D01*
X147324368Y-74034441D01*
X147331649Y-74033361D01*
X147339000Y-74033000D01*
X148164000Y-74033000D01*
X148171351Y-74033361D01*
G37*
G04 #@! TD.AperFunction*
G04 #@! TA.AperFunction,SMDPad,CuDef*
G36*
X148171351Y-74683361D02*
G01*
X148178632Y-74684441D01*
X148185771Y-74686229D01*
X148192701Y-74688709D01*
X148199355Y-74691856D01*
X148205668Y-74695640D01*
X148211579Y-74700024D01*
X148217033Y-74704967D01*
X148221976Y-74710421D01*
X148226360Y-74716332D01*
X148230144Y-74722645D01*
X148233291Y-74729299D01*
X148235771Y-74736229D01*
X148237559Y-74743368D01*
X148238639Y-74750649D01*
X148239000Y-74758000D01*
X148239000Y-74908000D01*
X148238639Y-74915351D01*
X148237559Y-74922632D01*
X148235771Y-74929771D01*
X148233291Y-74936701D01*
X148230144Y-74943355D01*
X148226360Y-74949668D01*
X148221976Y-74955579D01*
X148217033Y-74961033D01*
X148211579Y-74965976D01*
X148205668Y-74970360D01*
X148199355Y-74974144D01*
X148192701Y-74977291D01*
X148185771Y-74979771D01*
X148178632Y-74981559D01*
X148171351Y-74982639D01*
X148164000Y-74983000D01*
X147339000Y-74983000D01*
X147331649Y-74982639D01*
X147324368Y-74981559D01*
X147317229Y-74979771D01*
X147310299Y-74977291D01*
X147303645Y-74974144D01*
X147297332Y-74970360D01*
X147291421Y-74965976D01*
X147285967Y-74961033D01*
X147281024Y-74955579D01*
X147276640Y-74949668D01*
X147272856Y-74943355D01*
X147269709Y-74936701D01*
X147267229Y-74929771D01*
X147265441Y-74922632D01*
X147264361Y-74915351D01*
X147264000Y-74908000D01*
X147264000Y-74758000D01*
X147264361Y-74750649D01*
X147265441Y-74743368D01*
X147267229Y-74736229D01*
X147269709Y-74729299D01*
X147272856Y-74722645D01*
X147276640Y-74716332D01*
X147281024Y-74710421D01*
X147285967Y-74704967D01*
X147291421Y-74700024D01*
X147297332Y-74695640D01*
X147303645Y-74691856D01*
X147310299Y-74688709D01*
X147317229Y-74686229D01*
X147324368Y-74684441D01*
X147331649Y-74683361D01*
X147339000Y-74683000D01*
X148164000Y-74683000D01*
X148171351Y-74683361D01*
G37*
G04 #@! TD.AperFunction*
G04 #@! TA.AperFunction,SMDPad,CuDef*
G36*
X148896351Y-75408361D02*
G01*
X148903632Y-75409441D01*
X148910771Y-75411229D01*
X148917701Y-75413709D01*
X148924355Y-75416856D01*
X148930668Y-75420640D01*
X148936579Y-75425024D01*
X148942033Y-75429967D01*
X148946976Y-75435421D01*
X148951360Y-75441332D01*
X148955144Y-75447645D01*
X148958291Y-75454299D01*
X148960771Y-75461229D01*
X148962559Y-75468368D01*
X148963639Y-75475649D01*
X148964000Y-75483000D01*
X148964000Y-76308000D01*
X148963639Y-76315351D01*
X148962559Y-76322632D01*
X148960771Y-76329771D01*
X148958291Y-76336701D01*
X148955144Y-76343355D01*
X148951360Y-76349668D01*
X148946976Y-76355579D01*
X148942033Y-76361033D01*
X148936579Y-76365976D01*
X148930668Y-76370360D01*
X148924355Y-76374144D01*
X148917701Y-76377291D01*
X148910771Y-76379771D01*
X148903632Y-76381559D01*
X148896351Y-76382639D01*
X148889000Y-76383000D01*
X148739000Y-76383000D01*
X148731649Y-76382639D01*
X148724368Y-76381559D01*
X148717229Y-76379771D01*
X148710299Y-76377291D01*
X148703645Y-76374144D01*
X148697332Y-76370360D01*
X148691421Y-76365976D01*
X148685967Y-76361033D01*
X148681024Y-76355579D01*
X148676640Y-76349668D01*
X148672856Y-76343355D01*
X148669709Y-76336701D01*
X148667229Y-76329771D01*
X148665441Y-76322632D01*
X148664361Y-76315351D01*
X148664000Y-76308000D01*
X148664000Y-75483000D01*
X148664361Y-75475649D01*
X148665441Y-75468368D01*
X148667229Y-75461229D01*
X148669709Y-75454299D01*
X148672856Y-75447645D01*
X148676640Y-75441332D01*
X148681024Y-75435421D01*
X148685967Y-75429967D01*
X148691421Y-75425024D01*
X148697332Y-75420640D01*
X148703645Y-75416856D01*
X148710299Y-75413709D01*
X148717229Y-75411229D01*
X148724368Y-75409441D01*
X148731649Y-75408361D01*
X148739000Y-75408000D01*
X148889000Y-75408000D01*
X148896351Y-75408361D01*
G37*
G04 #@! TD.AperFunction*
G04 #@! TA.AperFunction,SMDPad,CuDef*
G36*
X149546351Y-75408361D02*
G01*
X149553632Y-75409441D01*
X149560771Y-75411229D01*
X149567701Y-75413709D01*
X149574355Y-75416856D01*
X149580668Y-75420640D01*
X149586579Y-75425024D01*
X149592033Y-75429967D01*
X149596976Y-75435421D01*
X149601360Y-75441332D01*
X149605144Y-75447645D01*
X149608291Y-75454299D01*
X149610771Y-75461229D01*
X149612559Y-75468368D01*
X149613639Y-75475649D01*
X149614000Y-75483000D01*
X149614000Y-76308000D01*
X149613639Y-76315351D01*
X149612559Y-76322632D01*
X149610771Y-76329771D01*
X149608291Y-76336701D01*
X149605144Y-76343355D01*
X149601360Y-76349668D01*
X149596976Y-76355579D01*
X149592033Y-76361033D01*
X149586579Y-76365976D01*
X149580668Y-76370360D01*
X149574355Y-76374144D01*
X149567701Y-76377291D01*
X149560771Y-76379771D01*
X149553632Y-76381559D01*
X149546351Y-76382639D01*
X149539000Y-76383000D01*
X149389000Y-76383000D01*
X149381649Y-76382639D01*
X149374368Y-76381559D01*
X149367229Y-76379771D01*
X149360299Y-76377291D01*
X149353645Y-76374144D01*
X149347332Y-76370360D01*
X149341421Y-76365976D01*
X149335967Y-76361033D01*
X149331024Y-76355579D01*
X149326640Y-76349668D01*
X149322856Y-76343355D01*
X149319709Y-76336701D01*
X149317229Y-76329771D01*
X149315441Y-76322632D01*
X149314361Y-76315351D01*
X149314000Y-76308000D01*
X149314000Y-75483000D01*
X149314361Y-75475649D01*
X149315441Y-75468368D01*
X149317229Y-75461229D01*
X149319709Y-75454299D01*
X149322856Y-75447645D01*
X149326640Y-75441332D01*
X149331024Y-75435421D01*
X149335967Y-75429967D01*
X149341421Y-75425024D01*
X149347332Y-75420640D01*
X149353645Y-75416856D01*
X149360299Y-75413709D01*
X149367229Y-75411229D01*
X149374368Y-75409441D01*
X149381649Y-75408361D01*
X149389000Y-75408000D01*
X149539000Y-75408000D01*
X149546351Y-75408361D01*
G37*
G04 #@! TD.AperFunction*
G04 #@! TA.AperFunction,SMDPad,CuDef*
G36*
X150196351Y-75408361D02*
G01*
X150203632Y-75409441D01*
X150210771Y-75411229D01*
X150217701Y-75413709D01*
X150224355Y-75416856D01*
X150230668Y-75420640D01*
X150236579Y-75425024D01*
X150242033Y-75429967D01*
X150246976Y-75435421D01*
X150251360Y-75441332D01*
X150255144Y-75447645D01*
X150258291Y-75454299D01*
X150260771Y-75461229D01*
X150262559Y-75468368D01*
X150263639Y-75475649D01*
X150264000Y-75483000D01*
X150264000Y-76308000D01*
X150263639Y-76315351D01*
X150262559Y-76322632D01*
X150260771Y-76329771D01*
X150258291Y-76336701D01*
X150255144Y-76343355D01*
X150251360Y-76349668D01*
X150246976Y-76355579D01*
X150242033Y-76361033D01*
X150236579Y-76365976D01*
X150230668Y-76370360D01*
X150224355Y-76374144D01*
X150217701Y-76377291D01*
X150210771Y-76379771D01*
X150203632Y-76381559D01*
X150196351Y-76382639D01*
X150189000Y-76383000D01*
X150039000Y-76383000D01*
X150031649Y-76382639D01*
X150024368Y-76381559D01*
X150017229Y-76379771D01*
X150010299Y-76377291D01*
X150003645Y-76374144D01*
X149997332Y-76370360D01*
X149991421Y-76365976D01*
X149985967Y-76361033D01*
X149981024Y-76355579D01*
X149976640Y-76349668D01*
X149972856Y-76343355D01*
X149969709Y-76336701D01*
X149967229Y-76329771D01*
X149965441Y-76322632D01*
X149964361Y-76315351D01*
X149964000Y-76308000D01*
X149964000Y-75483000D01*
X149964361Y-75475649D01*
X149965441Y-75468368D01*
X149967229Y-75461229D01*
X149969709Y-75454299D01*
X149972856Y-75447645D01*
X149976640Y-75441332D01*
X149981024Y-75435421D01*
X149985967Y-75429967D01*
X149991421Y-75425024D01*
X149997332Y-75420640D01*
X150003645Y-75416856D01*
X150010299Y-75413709D01*
X150017229Y-75411229D01*
X150024368Y-75409441D01*
X150031649Y-75408361D01*
X150039000Y-75408000D01*
X150189000Y-75408000D01*
X150196351Y-75408361D01*
G37*
G04 #@! TD.AperFunction*
G04 #@! TA.AperFunction,SMDPad,CuDef*
G36*
X150846351Y-75408361D02*
G01*
X150853632Y-75409441D01*
X150860771Y-75411229D01*
X150867701Y-75413709D01*
X150874355Y-75416856D01*
X150880668Y-75420640D01*
X150886579Y-75425024D01*
X150892033Y-75429967D01*
X150896976Y-75435421D01*
X150901360Y-75441332D01*
X150905144Y-75447645D01*
X150908291Y-75454299D01*
X150910771Y-75461229D01*
X150912559Y-75468368D01*
X150913639Y-75475649D01*
X150914000Y-75483000D01*
X150914000Y-76308000D01*
X150913639Y-76315351D01*
X150912559Y-76322632D01*
X150910771Y-76329771D01*
X150908291Y-76336701D01*
X150905144Y-76343355D01*
X150901360Y-76349668D01*
X150896976Y-76355579D01*
X150892033Y-76361033D01*
X150886579Y-76365976D01*
X150880668Y-76370360D01*
X150874355Y-76374144D01*
X150867701Y-76377291D01*
X150860771Y-76379771D01*
X150853632Y-76381559D01*
X150846351Y-76382639D01*
X150839000Y-76383000D01*
X150689000Y-76383000D01*
X150681649Y-76382639D01*
X150674368Y-76381559D01*
X150667229Y-76379771D01*
X150660299Y-76377291D01*
X150653645Y-76374144D01*
X150647332Y-76370360D01*
X150641421Y-76365976D01*
X150635967Y-76361033D01*
X150631024Y-76355579D01*
X150626640Y-76349668D01*
X150622856Y-76343355D01*
X150619709Y-76336701D01*
X150617229Y-76329771D01*
X150615441Y-76322632D01*
X150614361Y-76315351D01*
X150614000Y-76308000D01*
X150614000Y-75483000D01*
X150614361Y-75475649D01*
X150615441Y-75468368D01*
X150617229Y-75461229D01*
X150619709Y-75454299D01*
X150622856Y-75447645D01*
X150626640Y-75441332D01*
X150631024Y-75435421D01*
X150635967Y-75429967D01*
X150641421Y-75425024D01*
X150647332Y-75420640D01*
X150653645Y-75416856D01*
X150660299Y-75413709D01*
X150667229Y-75411229D01*
X150674368Y-75409441D01*
X150681649Y-75408361D01*
X150689000Y-75408000D01*
X150839000Y-75408000D01*
X150846351Y-75408361D01*
G37*
G04 #@! TD.AperFunction*
G04 #@! TA.AperFunction,SMDPad,CuDef*
G36*
X151496351Y-75408361D02*
G01*
X151503632Y-75409441D01*
X151510771Y-75411229D01*
X151517701Y-75413709D01*
X151524355Y-75416856D01*
X151530668Y-75420640D01*
X151536579Y-75425024D01*
X151542033Y-75429967D01*
X151546976Y-75435421D01*
X151551360Y-75441332D01*
X151555144Y-75447645D01*
X151558291Y-75454299D01*
X151560771Y-75461229D01*
X151562559Y-75468368D01*
X151563639Y-75475649D01*
X151564000Y-75483000D01*
X151564000Y-76308000D01*
X151563639Y-76315351D01*
X151562559Y-76322632D01*
X151560771Y-76329771D01*
X151558291Y-76336701D01*
X151555144Y-76343355D01*
X151551360Y-76349668D01*
X151546976Y-76355579D01*
X151542033Y-76361033D01*
X151536579Y-76365976D01*
X151530668Y-76370360D01*
X151524355Y-76374144D01*
X151517701Y-76377291D01*
X151510771Y-76379771D01*
X151503632Y-76381559D01*
X151496351Y-76382639D01*
X151489000Y-76383000D01*
X151339000Y-76383000D01*
X151331649Y-76382639D01*
X151324368Y-76381559D01*
X151317229Y-76379771D01*
X151310299Y-76377291D01*
X151303645Y-76374144D01*
X151297332Y-76370360D01*
X151291421Y-76365976D01*
X151285967Y-76361033D01*
X151281024Y-76355579D01*
X151276640Y-76349668D01*
X151272856Y-76343355D01*
X151269709Y-76336701D01*
X151267229Y-76329771D01*
X151265441Y-76322632D01*
X151264361Y-76315351D01*
X151264000Y-76308000D01*
X151264000Y-75483000D01*
X151264361Y-75475649D01*
X151265441Y-75468368D01*
X151267229Y-75461229D01*
X151269709Y-75454299D01*
X151272856Y-75447645D01*
X151276640Y-75441332D01*
X151281024Y-75435421D01*
X151285967Y-75429967D01*
X151291421Y-75425024D01*
X151297332Y-75420640D01*
X151303645Y-75416856D01*
X151310299Y-75413709D01*
X151317229Y-75411229D01*
X151324368Y-75409441D01*
X151331649Y-75408361D01*
X151339000Y-75408000D01*
X151489000Y-75408000D01*
X151496351Y-75408361D01*
G37*
G04 #@! TD.AperFunction*
G04 #@! TA.AperFunction,SMDPad,CuDef*
G36*
X152896351Y-74683361D02*
G01*
X152903632Y-74684441D01*
X152910771Y-74686229D01*
X152917701Y-74688709D01*
X152924355Y-74691856D01*
X152930668Y-74695640D01*
X152936579Y-74700024D01*
X152942033Y-74704967D01*
X152946976Y-74710421D01*
X152951360Y-74716332D01*
X152955144Y-74722645D01*
X152958291Y-74729299D01*
X152960771Y-74736229D01*
X152962559Y-74743368D01*
X152963639Y-74750649D01*
X152964000Y-74758000D01*
X152964000Y-74908000D01*
X152963639Y-74915351D01*
X152962559Y-74922632D01*
X152960771Y-74929771D01*
X152958291Y-74936701D01*
X152955144Y-74943355D01*
X152951360Y-74949668D01*
X152946976Y-74955579D01*
X152942033Y-74961033D01*
X152936579Y-74965976D01*
X152930668Y-74970360D01*
X152924355Y-74974144D01*
X152917701Y-74977291D01*
X152910771Y-74979771D01*
X152903632Y-74981559D01*
X152896351Y-74982639D01*
X152889000Y-74983000D01*
X152064000Y-74983000D01*
X152056649Y-74982639D01*
X152049368Y-74981559D01*
X152042229Y-74979771D01*
X152035299Y-74977291D01*
X152028645Y-74974144D01*
X152022332Y-74970360D01*
X152016421Y-74965976D01*
X152010967Y-74961033D01*
X152006024Y-74955579D01*
X152001640Y-74949668D01*
X151997856Y-74943355D01*
X151994709Y-74936701D01*
X151992229Y-74929771D01*
X151990441Y-74922632D01*
X151989361Y-74915351D01*
X151989000Y-74908000D01*
X151989000Y-74758000D01*
X151989361Y-74750649D01*
X151990441Y-74743368D01*
X151992229Y-74736229D01*
X151994709Y-74729299D01*
X151997856Y-74722645D01*
X152001640Y-74716332D01*
X152006024Y-74710421D01*
X152010967Y-74704967D01*
X152016421Y-74700024D01*
X152022332Y-74695640D01*
X152028645Y-74691856D01*
X152035299Y-74688709D01*
X152042229Y-74686229D01*
X152049368Y-74684441D01*
X152056649Y-74683361D01*
X152064000Y-74683000D01*
X152889000Y-74683000D01*
X152896351Y-74683361D01*
G37*
G04 #@! TD.AperFunction*
G04 #@! TA.AperFunction,SMDPad,CuDef*
G36*
X152896351Y-74033361D02*
G01*
X152903632Y-74034441D01*
X152910771Y-74036229D01*
X152917701Y-74038709D01*
X152924355Y-74041856D01*
X152930668Y-74045640D01*
X152936579Y-74050024D01*
X152942033Y-74054967D01*
X152946976Y-74060421D01*
X152951360Y-74066332D01*
X152955144Y-74072645D01*
X152958291Y-74079299D01*
X152960771Y-74086229D01*
X152962559Y-74093368D01*
X152963639Y-74100649D01*
X152964000Y-74108000D01*
X152964000Y-74258000D01*
X152963639Y-74265351D01*
X152962559Y-74272632D01*
X152960771Y-74279771D01*
X152958291Y-74286701D01*
X152955144Y-74293355D01*
X152951360Y-74299668D01*
X152946976Y-74305579D01*
X152942033Y-74311033D01*
X152936579Y-74315976D01*
X152930668Y-74320360D01*
X152924355Y-74324144D01*
X152917701Y-74327291D01*
X152910771Y-74329771D01*
X152903632Y-74331559D01*
X152896351Y-74332639D01*
X152889000Y-74333000D01*
X152064000Y-74333000D01*
X152056649Y-74332639D01*
X152049368Y-74331559D01*
X152042229Y-74329771D01*
X152035299Y-74327291D01*
X152028645Y-74324144D01*
X152022332Y-74320360D01*
X152016421Y-74315976D01*
X152010967Y-74311033D01*
X152006024Y-74305579D01*
X152001640Y-74299668D01*
X151997856Y-74293355D01*
X151994709Y-74286701D01*
X151992229Y-74279771D01*
X151990441Y-74272632D01*
X151989361Y-74265351D01*
X151989000Y-74258000D01*
X151989000Y-74108000D01*
X151989361Y-74100649D01*
X151990441Y-74093368D01*
X151992229Y-74086229D01*
X151994709Y-74079299D01*
X151997856Y-74072645D01*
X152001640Y-74066332D01*
X152006024Y-74060421D01*
X152010967Y-74054967D01*
X152016421Y-74050024D01*
X152022332Y-74045640D01*
X152028645Y-74041856D01*
X152035299Y-74038709D01*
X152042229Y-74036229D01*
X152049368Y-74034441D01*
X152056649Y-74033361D01*
X152064000Y-74033000D01*
X152889000Y-74033000D01*
X152896351Y-74033361D01*
G37*
G04 #@! TD.AperFunction*
G04 #@! TA.AperFunction,SMDPad,CuDef*
G36*
X152896351Y-73383361D02*
G01*
X152903632Y-73384441D01*
X152910771Y-73386229D01*
X152917701Y-73388709D01*
X152924355Y-73391856D01*
X152930668Y-73395640D01*
X152936579Y-73400024D01*
X152942033Y-73404967D01*
X152946976Y-73410421D01*
X152951360Y-73416332D01*
X152955144Y-73422645D01*
X152958291Y-73429299D01*
X152960771Y-73436229D01*
X152962559Y-73443368D01*
X152963639Y-73450649D01*
X152964000Y-73458000D01*
X152964000Y-73608000D01*
X152963639Y-73615351D01*
X152962559Y-73622632D01*
X152960771Y-73629771D01*
X152958291Y-73636701D01*
X152955144Y-73643355D01*
X152951360Y-73649668D01*
X152946976Y-73655579D01*
X152942033Y-73661033D01*
X152936579Y-73665976D01*
X152930668Y-73670360D01*
X152924355Y-73674144D01*
X152917701Y-73677291D01*
X152910771Y-73679771D01*
X152903632Y-73681559D01*
X152896351Y-73682639D01*
X152889000Y-73683000D01*
X152064000Y-73683000D01*
X152056649Y-73682639D01*
X152049368Y-73681559D01*
X152042229Y-73679771D01*
X152035299Y-73677291D01*
X152028645Y-73674144D01*
X152022332Y-73670360D01*
X152016421Y-73665976D01*
X152010967Y-73661033D01*
X152006024Y-73655579D01*
X152001640Y-73649668D01*
X151997856Y-73643355D01*
X151994709Y-73636701D01*
X151992229Y-73629771D01*
X151990441Y-73622632D01*
X151989361Y-73615351D01*
X151989000Y-73608000D01*
X151989000Y-73458000D01*
X151989361Y-73450649D01*
X151990441Y-73443368D01*
X151992229Y-73436229D01*
X151994709Y-73429299D01*
X151997856Y-73422645D01*
X152001640Y-73416332D01*
X152006024Y-73410421D01*
X152010967Y-73404967D01*
X152016421Y-73400024D01*
X152022332Y-73395640D01*
X152028645Y-73391856D01*
X152035299Y-73388709D01*
X152042229Y-73386229D01*
X152049368Y-73384441D01*
X152056649Y-73383361D01*
X152064000Y-73383000D01*
X152889000Y-73383000D01*
X152896351Y-73383361D01*
G37*
G04 #@! TD.AperFunction*
G04 #@! TA.AperFunction,SMDPad,CuDef*
G36*
X152896351Y-72733361D02*
G01*
X152903632Y-72734441D01*
X152910771Y-72736229D01*
X152917701Y-72738709D01*
X152924355Y-72741856D01*
X152930668Y-72745640D01*
X152936579Y-72750024D01*
X152942033Y-72754967D01*
X152946976Y-72760421D01*
X152951360Y-72766332D01*
X152955144Y-72772645D01*
X152958291Y-72779299D01*
X152960771Y-72786229D01*
X152962559Y-72793368D01*
X152963639Y-72800649D01*
X152964000Y-72808000D01*
X152964000Y-72958000D01*
X152963639Y-72965351D01*
X152962559Y-72972632D01*
X152960771Y-72979771D01*
X152958291Y-72986701D01*
X152955144Y-72993355D01*
X152951360Y-72999668D01*
X152946976Y-73005579D01*
X152942033Y-73011033D01*
X152936579Y-73015976D01*
X152930668Y-73020360D01*
X152924355Y-73024144D01*
X152917701Y-73027291D01*
X152910771Y-73029771D01*
X152903632Y-73031559D01*
X152896351Y-73032639D01*
X152889000Y-73033000D01*
X152064000Y-73033000D01*
X152056649Y-73032639D01*
X152049368Y-73031559D01*
X152042229Y-73029771D01*
X152035299Y-73027291D01*
X152028645Y-73024144D01*
X152022332Y-73020360D01*
X152016421Y-73015976D01*
X152010967Y-73011033D01*
X152006024Y-73005579D01*
X152001640Y-72999668D01*
X151997856Y-72993355D01*
X151994709Y-72986701D01*
X151992229Y-72979771D01*
X151990441Y-72972632D01*
X151989361Y-72965351D01*
X151989000Y-72958000D01*
X151989000Y-72808000D01*
X151989361Y-72800649D01*
X151990441Y-72793368D01*
X151992229Y-72786229D01*
X151994709Y-72779299D01*
X151997856Y-72772645D01*
X152001640Y-72766332D01*
X152006024Y-72760421D01*
X152010967Y-72754967D01*
X152016421Y-72750024D01*
X152022332Y-72745640D01*
X152028645Y-72741856D01*
X152035299Y-72738709D01*
X152042229Y-72736229D01*
X152049368Y-72734441D01*
X152056649Y-72733361D01*
X152064000Y-72733000D01*
X152889000Y-72733000D01*
X152896351Y-72733361D01*
G37*
G04 #@! TD.AperFunction*
G04 #@! TA.AperFunction,SMDPad,CuDef*
G36*
X152896351Y-72083361D02*
G01*
X152903632Y-72084441D01*
X152910771Y-72086229D01*
X152917701Y-72088709D01*
X152924355Y-72091856D01*
X152930668Y-72095640D01*
X152936579Y-72100024D01*
X152942033Y-72104967D01*
X152946976Y-72110421D01*
X152951360Y-72116332D01*
X152955144Y-72122645D01*
X152958291Y-72129299D01*
X152960771Y-72136229D01*
X152962559Y-72143368D01*
X152963639Y-72150649D01*
X152964000Y-72158000D01*
X152964000Y-72308000D01*
X152963639Y-72315351D01*
X152962559Y-72322632D01*
X152960771Y-72329771D01*
X152958291Y-72336701D01*
X152955144Y-72343355D01*
X152951360Y-72349668D01*
X152946976Y-72355579D01*
X152942033Y-72361033D01*
X152936579Y-72365976D01*
X152930668Y-72370360D01*
X152924355Y-72374144D01*
X152917701Y-72377291D01*
X152910771Y-72379771D01*
X152903632Y-72381559D01*
X152896351Y-72382639D01*
X152889000Y-72383000D01*
X152064000Y-72383000D01*
X152056649Y-72382639D01*
X152049368Y-72381559D01*
X152042229Y-72379771D01*
X152035299Y-72377291D01*
X152028645Y-72374144D01*
X152022332Y-72370360D01*
X152016421Y-72365976D01*
X152010967Y-72361033D01*
X152006024Y-72355579D01*
X152001640Y-72349668D01*
X151997856Y-72343355D01*
X151994709Y-72336701D01*
X151992229Y-72329771D01*
X151990441Y-72322632D01*
X151989361Y-72315351D01*
X151989000Y-72308000D01*
X151989000Y-72158000D01*
X151989361Y-72150649D01*
X151990441Y-72143368D01*
X151992229Y-72136229D01*
X151994709Y-72129299D01*
X151997856Y-72122645D01*
X152001640Y-72116332D01*
X152006024Y-72110421D01*
X152010967Y-72104967D01*
X152016421Y-72100024D01*
X152022332Y-72095640D01*
X152028645Y-72091856D01*
X152035299Y-72088709D01*
X152042229Y-72086229D01*
X152049368Y-72084441D01*
X152056649Y-72083361D01*
X152064000Y-72083000D01*
X152889000Y-72083000D01*
X152896351Y-72083361D01*
G37*
G04 #@! TD.AperFunction*
G04 #@! TA.AperFunction,SMDPad,CuDef*
G36*
X151496351Y-70683361D02*
G01*
X151503632Y-70684441D01*
X151510771Y-70686229D01*
X151517701Y-70688709D01*
X151524355Y-70691856D01*
X151530668Y-70695640D01*
X151536579Y-70700024D01*
X151542033Y-70704967D01*
X151546976Y-70710421D01*
X151551360Y-70716332D01*
X151555144Y-70722645D01*
X151558291Y-70729299D01*
X151560771Y-70736229D01*
X151562559Y-70743368D01*
X151563639Y-70750649D01*
X151564000Y-70758000D01*
X151564000Y-71583000D01*
X151563639Y-71590351D01*
X151562559Y-71597632D01*
X151560771Y-71604771D01*
X151558291Y-71611701D01*
X151555144Y-71618355D01*
X151551360Y-71624668D01*
X151546976Y-71630579D01*
X151542033Y-71636033D01*
X151536579Y-71640976D01*
X151530668Y-71645360D01*
X151524355Y-71649144D01*
X151517701Y-71652291D01*
X151510771Y-71654771D01*
X151503632Y-71656559D01*
X151496351Y-71657639D01*
X151489000Y-71658000D01*
X151339000Y-71658000D01*
X151331649Y-71657639D01*
X151324368Y-71656559D01*
X151317229Y-71654771D01*
X151310299Y-71652291D01*
X151303645Y-71649144D01*
X151297332Y-71645360D01*
X151291421Y-71640976D01*
X151285967Y-71636033D01*
X151281024Y-71630579D01*
X151276640Y-71624668D01*
X151272856Y-71618355D01*
X151269709Y-71611701D01*
X151267229Y-71604771D01*
X151265441Y-71597632D01*
X151264361Y-71590351D01*
X151264000Y-71583000D01*
X151264000Y-70758000D01*
X151264361Y-70750649D01*
X151265441Y-70743368D01*
X151267229Y-70736229D01*
X151269709Y-70729299D01*
X151272856Y-70722645D01*
X151276640Y-70716332D01*
X151281024Y-70710421D01*
X151285967Y-70704967D01*
X151291421Y-70700024D01*
X151297332Y-70695640D01*
X151303645Y-70691856D01*
X151310299Y-70688709D01*
X151317229Y-70686229D01*
X151324368Y-70684441D01*
X151331649Y-70683361D01*
X151339000Y-70683000D01*
X151489000Y-70683000D01*
X151496351Y-70683361D01*
G37*
G04 #@! TD.AperFunction*
G04 #@! TA.AperFunction,SMDPad,CuDef*
G36*
X150846351Y-70683361D02*
G01*
X150853632Y-70684441D01*
X150860771Y-70686229D01*
X150867701Y-70688709D01*
X150874355Y-70691856D01*
X150880668Y-70695640D01*
X150886579Y-70700024D01*
X150892033Y-70704967D01*
X150896976Y-70710421D01*
X150901360Y-70716332D01*
X150905144Y-70722645D01*
X150908291Y-70729299D01*
X150910771Y-70736229D01*
X150912559Y-70743368D01*
X150913639Y-70750649D01*
X150914000Y-70758000D01*
X150914000Y-71583000D01*
X150913639Y-71590351D01*
X150912559Y-71597632D01*
X150910771Y-71604771D01*
X150908291Y-71611701D01*
X150905144Y-71618355D01*
X150901360Y-71624668D01*
X150896976Y-71630579D01*
X150892033Y-71636033D01*
X150886579Y-71640976D01*
X150880668Y-71645360D01*
X150874355Y-71649144D01*
X150867701Y-71652291D01*
X150860771Y-71654771D01*
X150853632Y-71656559D01*
X150846351Y-71657639D01*
X150839000Y-71658000D01*
X150689000Y-71658000D01*
X150681649Y-71657639D01*
X150674368Y-71656559D01*
X150667229Y-71654771D01*
X150660299Y-71652291D01*
X150653645Y-71649144D01*
X150647332Y-71645360D01*
X150641421Y-71640976D01*
X150635967Y-71636033D01*
X150631024Y-71630579D01*
X150626640Y-71624668D01*
X150622856Y-71618355D01*
X150619709Y-71611701D01*
X150617229Y-71604771D01*
X150615441Y-71597632D01*
X150614361Y-71590351D01*
X150614000Y-71583000D01*
X150614000Y-70758000D01*
X150614361Y-70750649D01*
X150615441Y-70743368D01*
X150617229Y-70736229D01*
X150619709Y-70729299D01*
X150622856Y-70722645D01*
X150626640Y-70716332D01*
X150631024Y-70710421D01*
X150635967Y-70704967D01*
X150641421Y-70700024D01*
X150647332Y-70695640D01*
X150653645Y-70691856D01*
X150660299Y-70688709D01*
X150667229Y-70686229D01*
X150674368Y-70684441D01*
X150681649Y-70683361D01*
X150689000Y-70683000D01*
X150839000Y-70683000D01*
X150846351Y-70683361D01*
G37*
G04 #@! TD.AperFunction*
G04 #@! TA.AperFunction,SMDPad,CuDef*
G36*
X150196351Y-70683361D02*
G01*
X150203632Y-70684441D01*
X150210771Y-70686229D01*
X150217701Y-70688709D01*
X150224355Y-70691856D01*
X150230668Y-70695640D01*
X150236579Y-70700024D01*
X150242033Y-70704967D01*
X150246976Y-70710421D01*
X150251360Y-70716332D01*
X150255144Y-70722645D01*
X150258291Y-70729299D01*
X150260771Y-70736229D01*
X150262559Y-70743368D01*
X150263639Y-70750649D01*
X150264000Y-70758000D01*
X150264000Y-71583000D01*
X150263639Y-71590351D01*
X150262559Y-71597632D01*
X150260771Y-71604771D01*
X150258291Y-71611701D01*
X150255144Y-71618355D01*
X150251360Y-71624668D01*
X150246976Y-71630579D01*
X150242033Y-71636033D01*
X150236579Y-71640976D01*
X150230668Y-71645360D01*
X150224355Y-71649144D01*
X150217701Y-71652291D01*
X150210771Y-71654771D01*
X150203632Y-71656559D01*
X150196351Y-71657639D01*
X150189000Y-71658000D01*
X150039000Y-71658000D01*
X150031649Y-71657639D01*
X150024368Y-71656559D01*
X150017229Y-71654771D01*
X150010299Y-71652291D01*
X150003645Y-71649144D01*
X149997332Y-71645360D01*
X149991421Y-71640976D01*
X149985967Y-71636033D01*
X149981024Y-71630579D01*
X149976640Y-71624668D01*
X149972856Y-71618355D01*
X149969709Y-71611701D01*
X149967229Y-71604771D01*
X149965441Y-71597632D01*
X149964361Y-71590351D01*
X149964000Y-71583000D01*
X149964000Y-70758000D01*
X149964361Y-70750649D01*
X149965441Y-70743368D01*
X149967229Y-70736229D01*
X149969709Y-70729299D01*
X149972856Y-70722645D01*
X149976640Y-70716332D01*
X149981024Y-70710421D01*
X149985967Y-70704967D01*
X149991421Y-70700024D01*
X149997332Y-70695640D01*
X150003645Y-70691856D01*
X150010299Y-70688709D01*
X150017229Y-70686229D01*
X150024368Y-70684441D01*
X150031649Y-70683361D01*
X150039000Y-70683000D01*
X150189000Y-70683000D01*
X150196351Y-70683361D01*
G37*
G04 #@! TD.AperFunction*
G04 #@! TA.AperFunction,SMDPad,CuDef*
G36*
X149546351Y-70683361D02*
G01*
X149553632Y-70684441D01*
X149560771Y-70686229D01*
X149567701Y-70688709D01*
X149574355Y-70691856D01*
X149580668Y-70695640D01*
X149586579Y-70700024D01*
X149592033Y-70704967D01*
X149596976Y-70710421D01*
X149601360Y-70716332D01*
X149605144Y-70722645D01*
X149608291Y-70729299D01*
X149610771Y-70736229D01*
X149612559Y-70743368D01*
X149613639Y-70750649D01*
X149614000Y-70758000D01*
X149614000Y-71583000D01*
X149613639Y-71590351D01*
X149612559Y-71597632D01*
X149610771Y-71604771D01*
X149608291Y-71611701D01*
X149605144Y-71618355D01*
X149601360Y-71624668D01*
X149596976Y-71630579D01*
X149592033Y-71636033D01*
X149586579Y-71640976D01*
X149580668Y-71645360D01*
X149574355Y-71649144D01*
X149567701Y-71652291D01*
X149560771Y-71654771D01*
X149553632Y-71656559D01*
X149546351Y-71657639D01*
X149539000Y-71658000D01*
X149389000Y-71658000D01*
X149381649Y-71657639D01*
X149374368Y-71656559D01*
X149367229Y-71654771D01*
X149360299Y-71652291D01*
X149353645Y-71649144D01*
X149347332Y-71645360D01*
X149341421Y-71640976D01*
X149335967Y-71636033D01*
X149331024Y-71630579D01*
X149326640Y-71624668D01*
X149322856Y-71618355D01*
X149319709Y-71611701D01*
X149317229Y-71604771D01*
X149315441Y-71597632D01*
X149314361Y-71590351D01*
X149314000Y-71583000D01*
X149314000Y-70758000D01*
X149314361Y-70750649D01*
X149315441Y-70743368D01*
X149317229Y-70736229D01*
X149319709Y-70729299D01*
X149322856Y-70722645D01*
X149326640Y-70716332D01*
X149331024Y-70710421D01*
X149335967Y-70704967D01*
X149341421Y-70700024D01*
X149347332Y-70695640D01*
X149353645Y-70691856D01*
X149360299Y-70688709D01*
X149367229Y-70686229D01*
X149374368Y-70684441D01*
X149381649Y-70683361D01*
X149389000Y-70683000D01*
X149539000Y-70683000D01*
X149546351Y-70683361D01*
G37*
G04 #@! TD.AperFunction*
G04 #@! TA.AperFunction,SMDPad,CuDef*
G36*
X148896351Y-70683361D02*
G01*
X148903632Y-70684441D01*
X148910771Y-70686229D01*
X148917701Y-70688709D01*
X148924355Y-70691856D01*
X148930668Y-70695640D01*
X148936579Y-70700024D01*
X148942033Y-70704967D01*
X148946976Y-70710421D01*
X148951360Y-70716332D01*
X148955144Y-70722645D01*
X148958291Y-70729299D01*
X148960771Y-70736229D01*
X148962559Y-70743368D01*
X148963639Y-70750649D01*
X148964000Y-70758000D01*
X148964000Y-71583000D01*
X148963639Y-71590351D01*
X148962559Y-71597632D01*
X148960771Y-71604771D01*
X148958291Y-71611701D01*
X148955144Y-71618355D01*
X148951360Y-71624668D01*
X148946976Y-71630579D01*
X148942033Y-71636033D01*
X148936579Y-71640976D01*
X148930668Y-71645360D01*
X148924355Y-71649144D01*
X148917701Y-71652291D01*
X148910771Y-71654771D01*
X148903632Y-71656559D01*
X148896351Y-71657639D01*
X148889000Y-71658000D01*
X148739000Y-71658000D01*
X148731649Y-71657639D01*
X148724368Y-71656559D01*
X148717229Y-71654771D01*
X148710299Y-71652291D01*
X148703645Y-71649144D01*
X148697332Y-71645360D01*
X148691421Y-71640976D01*
X148685967Y-71636033D01*
X148681024Y-71630579D01*
X148676640Y-71624668D01*
X148672856Y-71618355D01*
X148669709Y-71611701D01*
X148667229Y-71604771D01*
X148665441Y-71597632D01*
X148664361Y-71590351D01*
X148664000Y-71583000D01*
X148664000Y-70758000D01*
X148664361Y-70750649D01*
X148665441Y-70743368D01*
X148667229Y-70736229D01*
X148669709Y-70729299D01*
X148672856Y-70722645D01*
X148676640Y-70716332D01*
X148681024Y-70710421D01*
X148685967Y-70704967D01*
X148691421Y-70700024D01*
X148697332Y-70695640D01*
X148703645Y-70691856D01*
X148710299Y-70688709D01*
X148717229Y-70686229D01*
X148724368Y-70684441D01*
X148731649Y-70683361D01*
X148739000Y-70683000D01*
X148889000Y-70683000D01*
X148896351Y-70683361D01*
G37*
G04 #@! TD.AperFunction*
D14*
X152717500Y-70993000D03*
X147193000Y-78613000D03*
X144907000Y-86868000D03*
X144907000Y-89027000D03*
X148717000Y-89027000D03*
X148717000Y-86868000D03*
X152527000Y-86868000D03*
X152527000Y-89027000D03*
X153670000Y-72898000D03*
D15*
X151414000Y-71193000D02*
X151414000Y-72233000D01*
X151414000Y-72233000D02*
X150114000Y-73533000D01*
X152454000Y-72233000D02*
X151414000Y-72233000D01*
X152454000Y-72233000D02*
X152454000Y-71256500D01*
X152454000Y-71256500D02*
X152717500Y-70993000D01*
X151414000Y-74833000D02*
X150114000Y-73533000D01*
X151414000Y-75873000D02*
X151414000Y-74833000D01*
X145796000Y-74394000D02*
X145796000Y-74196000D01*
X145669000Y-74394000D02*
X145864480Y-74394000D01*
X146488980Y-73769500D02*
X146488980Y-72840020D01*
X145864480Y-74394000D02*
X146488980Y-73769500D01*
X146488980Y-72840020D02*
X146812000Y-72517000D01*
X146812000Y-72119298D02*
X147303298Y-71628000D01*
X146812000Y-72517000D02*
X146812000Y-72119298D01*
X148218298Y-71628000D02*
X150114000Y-73523702D01*
X150114000Y-73523702D02*
X150114000Y-73533000D01*
X147303298Y-71628000D02*
X148218298Y-71628000D01*
X144145000Y-72672000D02*
X144145000Y-72870000D01*
D16*
X147066000Y-80107000D02*
X147066000Y-78740000D01*
X147066000Y-78740000D02*
X147193000Y-78613000D01*
D15*
X144145000Y-72870000D02*
X145669000Y-74394000D01*
X151414000Y-75895500D02*
X151414000Y-75916000D01*
X152476500Y-83896500D02*
X154940000Y-86360000D01*
X152476500Y-74833000D02*
X152476500Y-83896500D01*
X153739020Y-80079020D02*
X154940000Y-81280000D01*
X153125400Y-73707990D02*
X153739020Y-74321610D01*
X152476500Y-73533000D02*
X152651490Y-73707990D01*
X153739020Y-74321610D02*
X153739020Y-80079020D01*
X152651490Y-73707990D02*
X153125400Y-73707990D01*
X154940000Y-78740000D02*
X154940000Y-76200000D01*
X153289010Y-74508010D02*
X153289010Y-82169010D01*
X152476500Y-74183000D02*
X152964000Y-74183000D01*
X153289010Y-82169010D02*
X154940000Y-83820000D01*
X152964000Y-74183000D02*
X153289010Y-74508010D01*
X152476500Y-72883000D02*
X153655000Y-72883000D01*
X153655000Y-72883000D02*
X153670000Y-72898000D01*
X144484010Y-70319990D02*
X149315990Y-70319990D01*
X149315990Y-70319990D02*
X149464000Y-70468000D01*
X144159000Y-70645000D02*
X144484010Y-70319990D01*
X149464000Y-70468000D02*
X149464000Y-71193000D01*
X144159000Y-71120000D02*
X144159000Y-70645000D01*
X144173000Y-71323490D02*
X144173000Y-71120000D01*
X142240000Y-73660000D02*
X143039999Y-72860001D01*
X143039999Y-72860001D02*
X143039999Y-72456491D01*
X143039999Y-72456491D02*
X144173000Y-71323490D01*
X143002000Y-74422000D02*
X142240000Y-73660000D01*
X144272000Y-74422000D02*
X143002000Y-74422000D01*
X144496510Y-76073000D02*
X145325500Y-75244010D01*
X144300000Y-76073000D02*
X144496510Y-76073000D01*
X145325500Y-75244010D02*
X146139500Y-75244010D01*
X146139500Y-75244010D02*
X146488990Y-74894520D01*
X147751500Y-72233000D02*
X147751500Y-72883000D01*
X146488990Y-74894520D02*
X146488991Y-74405897D01*
X146488991Y-74405897D02*
X146938990Y-73955898D01*
X147264000Y-72883000D02*
X147751500Y-72883000D01*
X146938990Y-73208010D02*
X147264000Y-72883000D01*
X146938990Y-73955898D02*
X146938990Y-73208010D01*
X147774000Y-73533000D02*
X147774000Y-74183000D01*
X147348298Y-74183000D02*
X146939000Y-74592298D01*
X147751500Y-74183000D02*
X147348298Y-74183000D01*
X146448000Y-76073000D02*
X145923000Y-76073000D01*
X146939000Y-75582000D02*
X146448000Y-76073000D01*
X146939000Y-74592298D02*
X146939000Y-75582000D01*
D17*
X143786000Y-77746000D02*
X145034000Y-77746000D01*
X142240000Y-76200000D02*
X143786000Y-77746000D01*
X147751500Y-75868788D02*
X147751500Y-74833000D01*
X145874288Y-77746000D02*
X147751500Y-75868788D01*
X145034000Y-77746000D02*
X145874288Y-77746000D01*
D15*
X142606000Y-83454000D02*
X142240000Y-83820000D01*
D16*
X143525000Y-85105000D02*
X142240000Y-83820000D01*
X145034000Y-85105000D02*
X143525000Y-85105000D01*
X145034000Y-85105000D02*
X147051000Y-85105000D01*
X150764000Y-81392000D02*
X150764000Y-75895500D01*
X147051000Y-85105000D02*
X150764000Y-81392000D01*
X150114000Y-81107692D02*
X150114000Y-75895500D01*
X147416692Y-83805000D02*
X150114000Y-81107692D01*
X145034000Y-83805000D02*
X147416692Y-83805000D01*
X145034000Y-82282000D02*
X145034000Y-83805000D01*
X144032000Y-81280000D02*
X145034000Y-82282000D01*
X142240000Y-81280000D02*
X144032000Y-81280000D01*
D15*
X142748000Y-78232000D02*
X142240000Y-78740000D01*
D16*
X147066000Y-82707000D02*
X147798000Y-82707000D01*
X149464000Y-81041000D02*
X149464000Y-75804000D01*
X147798000Y-82707000D02*
X149464000Y-81041000D01*
X149464000Y-75804000D02*
X149464000Y-75895500D01*
X144728000Y-78740000D02*
X145034000Y-79046000D01*
X142240000Y-78740000D02*
X144728000Y-78740000D01*
X145034000Y-79046000D02*
X145034000Y-80532000D01*
X145965999Y-82354591D02*
X146318408Y-82707000D01*
X146318408Y-82707000D02*
X147066000Y-82707000D01*
X145965999Y-80988999D02*
X145965999Y-82354591D01*
X145509000Y-80532000D02*
X145965999Y-80988999D01*
X145034000Y-80532000D02*
X145509000Y-80532000D01*
X148814000Y-75895500D02*
X148814000Y-76043000D01*
X148814000Y-76043000D02*
X148844000Y-76073000D01*
X148116000Y-81407000D02*
X147066000Y-81407000D01*
X148844000Y-76073000D02*
X148844000Y-80679000D01*
X148844000Y-80679000D02*
X148116000Y-81407000D01*
D15*
X148741000Y-71120000D02*
X148814000Y-71193000D01*
X145669000Y-71374000D02*
X145923000Y-71120000D01*
X145669000Y-72644000D02*
X145669000Y-71374000D01*
X147124388Y-71170500D02*
X148814000Y-71170500D01*
X146412888Y-71882000D02*
X147124388Y-71170500D01*
X145669000Y-72644000D02*
X145669000Y-72119000D01*
X145906000Y-71882000D02*
X146412888Y-71882000D01*
X145669000Y-72119000D02*
X145906000Y-71882000D01*
D18*
G36*
X151595750Y-77018000D02*
G01*
X151700796Y-77006236D01*
X151716500Y-77001132D01*
X151716501Y-83859168D01*
X151712824Y-83896500D01*
X151727498Y-84045485D01*
X151770954Y-84188746D01*
X151841526Y-84320776D01*
X151912701Y-84407502D01*
X151936500Y-84436501D01*
X151965498Y-84460299D01*
X153541312Y-86036114D01*
X153505000Y-86218665D01*
X153505000Y-86501335D01*
X153560147Y-86778574D01*
X153668320Y-87039727D01*
X153825363Y-87274759D01*
X154025241Y-87474637D01*
X154257759Y-87630000D01*
X154025241Y-87785363D01*
X153825363Y-87985241D01*
X153668320Y-88220273D01*
X153560147Y-88481426D01*
X153505000Y-88758665D01*
X153505000Y-89041335D01*
X153560147Y-89318574D01*
X153668320Y-89579727D01*
X153774743Y-89739000D01*
X143405257Y-89739000D01*
X143511680Y-89579727D01*
X143619853Y-89318574D01*
X143675000Y-89041335D01*
X143675000Y-88758665D01*
X143619853Y-88481426D01*
X143511680Y-88220273D01*
X143354637Y-87985241D01*
X143154759Y-87785363D01*
X142919727Y-87628320D01*
X142909135Y-87623933D01*
X143095131Y-87512385D01*
X143303519Y-87323414D01*
X143471037Y-87097420D01*
X143591246Y-86843087D01*
X143631904Y-86709039D01*
X143509915Y-86487000D01*
X142367000Y-86487000D01*
X142367000Y-86507000D01*
X142113000Y-86507000D01*
X142113000Y-86487000D01*
X142093000Y-86487000D01*
X142093000Y-86233000D01*
X142113000Y-86233000D01*
X142113000Y-86213000D01*
X142367000Y-86213000D01*
X142367000Y-86233000D01*
X143509915Y-86233000D01*
X143631904Y-86010961D01*
X143595215Y-85890000D01*
X143962928Y-85890000D01*
X144015618Y-85942690D01*
X144112309Y-86022042D01*
X144193808Y-86076498D01*
X144304125Y-86135464D01*
X144394681Y-86172973D01*
X144514377Y-86209282D01*
X144610510Y-86228404D01*
X144734991Y-86240664D01*
X144759550Y-86240664D01*
X144784000Y-86243072D01*
X145284000Y-86243072D01*
X145308450Y-86240664D01*
X145333009Y-86240664D01*
X145457490Y-86228404D01*
X145553623Y-86209282D01*
X145673319Y-86172973D01*
X145763875Y-86135464D01*
X145874192Y-86076498D01*
X145955691Y-86022042D01*
X146052382Y-85942690D01*
X146105072Y-85890000D01*
X147012447Y-85890000D01*
X147051000Y-85893797D01*
X147089553Y-85890000D01*
X147089561Y-85890000D01*
X147204887Y-85878641D01*
X147352860Y-85833754D01*
X147489233Y-85760862D01*
X147608764Y-85662764D01*
X147633347Y-85632810D01*
X151291817Y-81974341D01*
X151321764Y-81949764D01*
X151349180Y-81916359D01*
X151381674Y-81876764D01*
X151419862Y-81830233D01*
X151492754Y-81693860D01*
X151501370Y-81665456D01*
X151537642Y-81545887D01*
X151546825Y-81452641D01*
X151549000Y-81430561D01*
X151549000Y-81430556D01*
X151552797Y-81392000D01*
X151549000Y-81353445D01*
X151549000Y-76971250D01*
X151595750Y-77018000D01*
G37*
X151595750Y-77018000D02*
X151700796Y-77006236D01*
X151716500Y-77001132D01*
X151716501Y-83859168D01*
X151712824Y-83896500D01*
X151727498Y-84045485D01*
X151770954Y-84188746D01*
X151841526Y-84320776D01*
X151912701Y-84407502D01*
X151936500Y-84436501D01*
X151965498Y-84460299D01*
X153541312Y-86036114D01*
X153505000Y-86218665D01*
X153505000Y-86501335D01*
X153560147Y-86778574D01*
X153668320Y-87039727D01*
X153825363Y-87274759D01*
X154025241Y-87474637D01*
X154257759Y-87630000D01*
X154025241Y-87785363D01*
X153825363Y-87985241D01*
X153668320Y-88220273D01*
X153560147Y-88481426D01*
X153505000Y-88758665D01*
X153505000Y-89041335D01*
X153560147Y-89318574D01*
X153668320Y-89579727D01*
X153774743Y-89739000D01*
X143405257Y-89739000D01*
X143511680Y-89579727D01*
X143619853Y-89318574D01*
X143675000Y-89041335D01*
X143675000Y-88758665D01*
X143619853Y-88481426D01*
X143511680Y-88220273D01*
X143354637Y-87985241D01*
X143154759Y-87785363D01*
X142919727Y-87628320D01*
X142909135Y-87623933D01*
X143095131Y-87512385D01*
X143303519Y-87323414D01*
X143471037Y-87097420D01*
X143591246Y-86843087D01*
X143631904Y-86709039D01*
X143509915Y-86487000D01*
X142367000Y-86487000D01*
X142367000Y-86507000D01*
X142113000Y-86507000D01*
X142113000Y-86487000D01*
X142093000Y-86487000D01*
X142093000Y-86233000D01*
X142113000Y-86233000D01*
X142113000Y-86213000D01*
X142367000Y-86213000D01*
X142367000Y-86233000D01*
X143509915Y-86233000D01*
X143631904Y-86010961D01*
X143595215Y-85890000D01*
X143962928Y-85890000D01*
X144015618Y-85942690D01*
X144112309Y-86022042D01*
X144193808Y-86076498D01*
X144304125Y-86135464D01*
X144394681Y-86172973D01*
X144514377Y-86209282D01*
X144610510Y-86228404D01*
X144734991Y-86240664D01*
X144759550Y-86240664D01*
X144784000Y-86243072D01*
X145284000Y-86243072D01*
X145308450Y-86240664D01*
X145333009Y-86240664D01*
X145457490Y-86228404D01*
X145553623Y-86209282D01*
X145673319Y-86172973D01*
X145763875Y-86135464D01*
X145874192Y-86076498D01*
X145955691Y-86022042D01*
X146052382Y-85942690D01*
X146105072Y-85890000D01*
X147012447Y-85890000D01*
X147051000Y-85893797D01*
X147089553Y-85890000D01*
X147089561Y-85890000D01*
X147204887Y-85878641D01*
X147352860Y-85833754D01*
X147489233Y-85760862D01*
X147608764Y-85662764D01*
X147633347Y-85632810D01*
X151291817Y-81974341D01*
X151321764Y-81949764D01*
X151349180Y-81916359D01*
X151381674Y-81876764D01*
X151419862Y-81830233D01*
X151492754Y-81693860D01*
X151501370Y-81665456D01*
X151537642Y-81545887D01*
X151546825Y-81452641D01*
X151549000Y-81430561D01*
X151549000Y-81430556D01*
X151552797Y-81392000D01*
X151549000Y-81353445D01*
X151549000Y-76971250D01*
X151595750Y-77018000D01*
G36*
X148059001Y-80317140D02*
G01*
X147960060Y-80287127D01*
X147954762Y-80269125D01*
X147953731Y-80267153D01*
X147953087Y-80265020D01*
X147925012Y-80212219D01*
X147897345Y-80159297D01*
X147895951Y-80157563D01*
X147894905Y-80155596D01*
X147857117Y-80109263D01*
X147819690Y-80062714D01*
X147817985Y-80061283D01*
X147816577Y-80059557D01*
X147770527Y-80021461D01*
X147724754Y-79983053D01*
X147722802Y-79981980D01*
X147721087Y-79980561D01*
X147668539Y-79952149D01*
X147616153Y-79923349D01*
X147614029Y-79922675D01*
X147612072Y-79921617D01*
X147555050Y-79903966D01*
X147498024Y-79885876D01*
X147495808Y-79885627D01*
X147493684Y-79884970D01*
X147434257Y-79878724D01*
X147374866Y-79872062D01*
X147370596Y-79872032D01*
X147370433Y-79872015D01*
X147370270Y-79872030D01*
X147366000Y-79872000D01*
X146766000Y-79872000D01*
X146706495Y-79877834D01*
X146647013Y-79883248D01*
X146644882Y-79883875D01*
X146642661Y-79884093D01*
X146585379Y-79901388D01*
X146528125Y-79918238D01*
X146526153Y-79919269D01*
X146524020Y-79919913D01*
X146471219Y-79947988D01*
X146418297Y-79975655D01*
X146416563Y-79977049D01*
X146414596Y-79978095D01*
X146368263Y-80015883D01*
X146321714Y-80053310D01*
X146320283Y-80055015D01*
X146318557Y-80056423D01*
X146280461Y-80102473D01*
X146242053Y-80148246D01*
X146240980Y-80150198D01*
X146239561Y-80151913D01*
X146239389Y-80152232D01*
X146116927Y-80029770D01*
X146080423Y-79909433D01*
X146061689Y-79874383D01*
X146121690Y-79814382D01*
X146201042Y-79717691D01*
X146255498Y-79636192D01*
X146314464Y-79525875D01*
X146351973Y-79435319D01*
X146388282Y-79315623D01*
X146407404Y-79219490D01*
X146419664Y-79095009D01*
X146419664Y-79070450D01*
X146422072Y-79046000D01*
X146422072Y-78546000D01*
X146412533Y-78449148D01*
X146503105Y-78374817D01*
X146530822Y-78341044D01*
X148059000Y-76812867D01*
X148059001Y-80317140D01*
G37*
X148059001Y-80317140D02*
X147960060Y-80287127D01*
X147954762Y-80269125D01*
X147953731Y-80267153D01*
X147953087Y-80265020D01*
X147925012Y-80212219D01*
X147897345Y-80159297D01*
X147895951Y-80157563D01*
X147894905Y-80155596D01*
X147857117Y-80109263D01*
X147819690Y-80062714D01*
X147817985Y-80061283D01*
X147816577Y-80059557D01*
X147770527Y-80021461D01*
X147724754Y-79983053D01*
X147722802Y-79981980D01*
X147721087Y-79980561D01*
X147668539Y-79952149D01*
X147616153Y-79923349D01*
X147614029Y-79922675D01*
X147612072Y-79921617D01*
X147555050Y-79903966D01*
X147498024Y-79885876D01*
X147495808Y-79885627D01*
X147493684Y-79884970D01*
X147434257Y-79878724D01*
X147374866Y-79872062D01*
X147370596Y-79872032D01*
X147370433Y-79872015D01*
X147370270Y-79872030D01*
X147366000Y-79872000D01*
X146766000Y-79872000D01*
X146706495Y-79877834D01*
X146647013Y-79883248D01*
X146644882Y-79883875D01*
X146642661Y-79884093D01*
X146585379Y-79901388D01*
X146528125Y-79918238D01*
X146526153Y-79919269D01*
X146524020Y-79919913D01*
X146471219Y-79947988D01*
X146418297Y-79975655D01*
X146416563Y-79977049D01*
X146414596Y-79978095D01*
X146368263Y-80015883D01*
X146321714Y-80053310D01*
X146320283Y-80055015D01*
X146318557Y-80056423D01*
X146280461Y-80102473D01*
X146242053Y-80148246D01*
X146240980Y-80150198D01*
X146239561Y-80151913D01*
X146239389Y-80152232D01*
X146116927Y-80029770D01*
X146080423Y-79909433D01*
X146061689Y-79874383D01*
X146121690Y-79814382D01*
X146201042Y-79717691D01*
X146255498Y-79636192D01*
X146314464Y-79525875D01*
X146351973Y-79435319D01*
X146388282Y-79315623D01*
X146407404Y-79219490D01*
X146419664Y-79095009D01*
X146419664Y-79070450D01*
X146422072Y-79046000D01*
X146422072Y-78546000D01*
X146412533Y-78449148D01*
X146503105Y-78374817D01*
X146530822Y-78341044D01*
X148059000Y-76812867D01*
X148059001Y-80317140D01*
G36*
X145739989Y-74256910D02*
G01*
X145729289Y-74365546D01*
X145725315Y-74405897D01*
X145728992Y-74443227D01*
X145728992Y-74484010D01*
X145522000Y-74484010D01*
X145522000Y-74267000D01*
X145542000Y-74267000D01*
X145542000Y-74247000D01*
X145742995Y-74247000D01*
X145739989Y-74256910D01*
G37*
X145739989Y-74256910D02*
X145729289Y-74365546D01*
X145725315Y-74405897D01*
X145728992Y-74443227D01*
X145728992Y-74484010D01*
X145522000Y-74484010D01*
X145522000Y-74267000D01*
X145542000Y-74267000D01*
X145542000Y-74247000D01*
X145742995Y-74247000D01*
X145739989Y-74256910D01*
G36*
X150241000Y-73406000D02*
G01*
X150261000Y-73406000D01*
X150261000Y-73660000D01*
X150241000Y-73660000D01*
X150241000Y-73680000D01*
X149987000Y-73680000D01*
X149987000Y-73660000D01*
X149967000Y-73660000D01*
X149967000Y-73406000D01*
X149987000Y-73406000D01*
X149987000Y-73386000D01*
X150241000Y-73386000D01*
X150241000Y-73406000D01*
G37*
X150241000Y-73406000D02*
X150261000Y-73406000D01*
X150261000Y-73660000D01*
X150241000Y-73660000D01*
X150241000Y-73680000D01*
X149987000Y-73680000D01*
X149987000Y-73660000D01*
X149967000Y-73660000D01*
X149967000Y-73406000D01*
X149987000Y-73406000D01*
X149987000Y-73386000D01*
X150241000Y-73386000D01*
X150241000Y-73406000D01*
G36*
X144399000Y-72545000D02*
G01*
X144419000Y-72545000D01*
X144419000Y-72799000D01*
X144399000Y-72799000D01*
X144399000Y-72819000D01*
X144145000Y-72819000D01*
X144145000Y-72799000D01*
X144125000Y-72799000D01*
X144125000Y-72545000D01*
X144145000Y-72545000D01*
X144145000Y-72525000D01*
X144399000Y-72525000D01*
X144399000Y-72545000D01*
G37*
X144399000Y-72545000D02*
X144419000Y-72545000D01*
X144419000Y-72799000D01*
X144399000Y-72799000D01*
X144399000Y-72819000D01*
X144145000Y-72819000D01*
X144145000Y-72799000D01*
X144125000Y-72799000D01*
X144125000Y-72545000D01*
X144145000Y-72545000D01*
X144145000Y-72525000D01*
X144399000Y-72525000D01*
X144399000Y-72545000D01*
G36*
X153668320Y-70440273D02*
G01*
X153560147Y-70701426D01*
X153505000Y-70978665D01*
X153505000Y-71261335D01*
X153560147Y-71538574D01*
X153668320Y-71799727D01*
X153710598Y-71863000D01*
X153568061Y-71863000D01*
X153560671Y-71864470D01*
X153548573Y-71827245D01*
X153487445Y-71718115D01*
X153406201Y-71623007D01*
X153307964Y-71545576D01*
X153196509Y-71488799D01*
X153076119Y-71454856D01*
X152951419Y-71445052D01*
X152762250Y-71448000D01*
X152603500Y-71606750D01*
X152603500Y-72094928D01*
X152349500Y-72094928D01*
X152349500Y-71606750D01*
X152040250Y-71297500D01*
X151552072Y-71297500D01*
X151552072Y-71043500D01*
X152040250Y-71043500D01*
X152199000Y-70884750D01*
X152201948Y-70695581D01*
X152192144Y-70570881D01*
X152158201Y-70450491D01*
X152101424Y-70339036D01*
X152055680Y-70281000D01*
X153774743Y-70281000D01*
X153668320Y-70440273D01*
G37*
X153668320Y-70440273D02*
X153560147Y-70701426D01*
X153505000Y-70978665D01*
X153505000Y-71261335D01*
X153560147Y-71538574D01*
X153668320Y-71799727D01*
X153710598Y-71863000D01*
X153568061Y-71863000D01*
X153560671Y-71864470D01*
X153548573Y-71827245D01*
X153487445Y-71718115D01*
X153406201Y-71623007D01*
X153307964Y-71545576D01*
X153196509Y-71488799D01*
X153076119Y-71454856D01*
X152951419Y-71445052D01*
X152762250Y-71448000D01*
X152603500Y-71606750D01*
X152603500Y-72094928D01*
X152349500Y-72094928D01*
X152349500Y-71606750D01*
X152040250Y-71297500D01*
X151552072Y-71297500D01*
X151552072Y-71043500D01*
X152040250Y-71043500D01*
X152199000Y-70884750D01*
X152201948Y-70695581D01*
X152192144Y-70570881D01*
X152158201Y-70450491D01*
X152101424Y-70339036D01*
X152055680Y-70281000D01*
X153774743Y-70281000D01*
X153668320Y-70440273D01*
G36*
X142367000Y-70993000D02*
G01*
X142387000Y-70993000D01*
X142387000Y-71247000D01*
X142367000Y-71247000D01*
X142367000Y-71267000D01*
X142113000Y-71267000D01*
X142113000Y-71247000D01*
X142093000Y-71247000D01*
X142093000Y-70993000D01*
X142113000Y-70993000D01*
X142113000Y-70973000D01*
X142367000Y-70973000D01*
X142367000Y-70993000D01*
G37*
X142367000Y-70993000D02*
X142387000Y-70993000D01*
X142387000Y-71247000D01*
X142367000Y-71247000D01*
X142367000Y-71267000D01*
X142113000Y-71267000D01*
X142113000Y-71247000D01*
X142093000Y-71247000D01*
X142093000Y-70993000D01*
X142113000Y-70993000D01*
X142113000Y-70973000D01*
X142367000Y-70973000D01*
X142367000Y-70993000D01*
M02*
