G04 #@! TF.GenerationSoftware,KiCad,Pcbnew,(5.1.5)-3*
G04 #@! TF.CreationDate,2020-05-13T15:10:14-05:00*
G04 #@! TF.ProjectId,pt100stick,70743130-3073-4746-9963-6b2e6b696361,rev?*
G04 #@! TF.SameCoordinates,Original*
G04 #@! TF.FileFunction,Copper,L2,Bot*
G04 #@! TF.FilePolarity,Positive*
%FSLAX46Y46*%
G04 Gerber Fmt 4.6, Leading zero omitted, Abs format (unit mm)*
G04 Created by KiCad (PCBNEW (5.1.5)-3) date 2020-05-13 15:10:14*
%MOMM*%
%LPD*%
G04 APERTURE LIST*
%ADD10O,1.600000X1.600000*%
%ADD11R,1.600000X1.600000*%
%ADD12C,0.800000*%
%ADD13C,0.250000*%
%ADD14C,0.254000*%
G04 APERTURE END LIST*
D10*
X154940000Y-71120000D03*
X142240000Y-88900000D03*
X154940000Y-73660000D03*
X142240000Y-86360000D03*
X154940000Y-76200000D03*
X142240000Y-83820000D03*
X154940000Y-78740000D03*
X142240000Y-81280000D03*
X154940000Y-81280000D03*
X142240000Y-78740000D03*
X154940000Y-83820000D03*
X142240000Y-76200000D03*
X154940000Y-86360000D03*
X142240000Y-73660000D03*
X154940000Y-88900000D03*
D11*
X142240000Y-71120000D03*
D12*
X152717500Y-70993000D03*
X148907500Y-77279500D03*
X152400000Y-78359000D03*
D13*
X154559000Y-78359000D02*
X154940000Y-78740000D01*
X152400000Y-78359000D02*
X154559000Y-78359000D01*
D14*
G36*
X153668320Y-70440273D02*
G01*
X153560147Y-70701426D01*
X153505000Y-70978665D01*
X153505000Y-71261335D01*
X153560147Y-71538574D01*
X153668320Y-71799727D01*
X153825363Y-72034759D01*
X154025241Y-72234637D01*
X154257759Y-72390000D01*
X154025241Y-72545363D01*
X153825363Y-72745241D01*
X153668320Y-72980273D01*
X153560147Y-73241426D01*
X153505000Y-73518665D01*
X153505000Y-73801335D01*
X153560147Y-74078574D01*
X153668320Y-74339727D01*
X153825363Y-74574759D01*
X154025241Y-74774637D01*
X154257759Y-74930000D01*
X154025241Y-75085363D01*
X153825363Y-75285241D01*
X153668320Y-75520273D01*
X153560147Y-75781426D01*
X153505000Y-76058665D01*
X153505000Y-76341335D01*
X153560147Y-76618574D01*
X153668320Y-76879727D01*
X153825363Y-77114759D01*
X154025241Y-77314637D01*
X154257759Y-77470000D01*
X154064696Y-77599000D01*
X153103711Y-77599000D01*
X153059774Y-77555063D01*
X152890256Y-77441795D01*
X152701898Y-77363774D01*
X152501939Y-77324000D01*
X152298061Y-77324000D01*
X152098102Y-77363774D01*
X151909744Y-77441795D01*
X151740226Y-77555063D01*
X151596063Y-77699226D01*
X151482795Y-77868744D01*
X151404774Y-78057102D01*
X151365000Y-78257061D01*
X151365000Y-78460939D01*
X151404774Y-78660898D01*
X151482795Y-78849256D01*
X151596063Y-79018774D01*
X151740226Y-79162937D01*
X151909744Y-79276205D01*
X152098102Y-79354226D01*
X152298061Y-79394000D01*
X152501939Y-79394000D01*
X152701898Y-79354226D01*
X152890256Y-79276205D01*
X153059774Y-79162937D01*
X153103711Y-79119000D01*
X153552275Y-79119000D01*
X153560147Y-79158574D01*
X153668320Y-79419727D01*
X153825363Y-79654759D01*
X154025241Y-79854637D01*
X154257759Y-80010000D01*
X154025241Y-80165363D01*
X153825363Y-80365241D01*
X153668320Y-80600273D01*
X153560147Y-80861426D01*
X153505000Y-81138665D01*
X153505000Y-81421335D01*
X153560147Y-81698574D01*
X153668320Y-81959727D01*
X153825363Y-82194759D01*
X154025241Y-82394637D01*
X154257759Y-82550000D01*
X154025241Y-82705363D01*
X153825363Y-82905241D01*
X153668320Y-83140273D01*
X153560147Y-83401426D01*
X153505000Y-83678665D01*
X153505000Y-83961335D01*
X153560147Y-84238574D01*
X153668320Y-84499727D01*
X153825363Y-84734759D01*
X154025241Y-84934637D01*
X154257759Y-85090000D01*
X154025241Y-85245363D01*
X153825363Y-85445241D01*
X153668320Y-85680273D01*
X153560147Y-85941426D01*
X153505000Y-86218665D01*
X153505000Y-86501335D01*
X153560147Y-86778574D01*
X153668320Y-87039727D01*
X153825363Y-87274759D01*
X154025241Y-87474637D01*
X154257759Y-87630000D01*
X154025241Y-87785363D01*
X153825363Y-87985241D01*
X153668320Y-88220273D01*
X153560147Y-88481426D01*
X153505000Y-88758665D01*
X153505000Y-89041335D01*
X153560147Y-89318574D01*
X153668320Y-89579727D01*
X153774743Y-89739000D01*
X143405257Y-89739000D01*
X143511680Y-89579727D01*
X143619853Y-89318574D01*
X143675000Y-89041335D01*
X143675000Y-88758665D01*
X143619853Y-88481426D01*
X143511680Y-88220273D01*
X143354637Y-87985241D01*
X143154759Y-87785363D01*
X142919727Y-87628320D01*
X142909135Y-87623933D01*
X143095131Y-87512385D01*
X143303519Y-87323414D01*
X143471037Y-87097420D01*
X143591246Y-86843087D01*
X143631904Y-86709039D01*
X143509915Y-86487000D01*
X142367000Y-86487000D01*
X142367000Y-86507000D01*
X142113000Y-86507000D01*
X142113000Y-86487000D01*
X142093000Y-86487000D01*
X142093000Y-86233000D01*
X142113000Y-86233000D01*
X142113000Y-86213000D01*
X142367000Y-86213000D01*
X142367000Y-86233000D01*
X143509915Y-86233000D01*
X143631904Y-86010961D01*
X143591246Y-85876913D01*
X143471037Y-85622580D01*
X143303519Y-85396586D01*
X143095131Y-85207615D01*
X142909135Y-85096067D01*
X142919727Y-85091680D01*
X143154759Y-84934637D01*
X143354637Y-84734759D01*
X143511680Y-84499727D01*
X143619853Y-84238574D01*
X143675000Y-83961335D01*
X143675000Y-83678665D01*
X143619853Y-83401426D01*
X143511680Y-83140273D01*
X143354637Y-82905241D01*
X143154759Y-82705363D01*
X142922241Y-82550000D01*
X143154759Y-82394637D01*
X143354637Y-82194759D01*
X143511680Y-81959727D01*
X143619853Y-81698574D01*
X143675000Y-81421335D01*
X143675000Y-81138665D01*
X143619853Y-80861426D01*
X143511680Y-80600273D01*
X143354637Y-80365241D01*
X143154759Y-80165363D01*
X142922241Y-80010000D01*
X143154759Y-79854637D01*
X143354637Y-79654759D01*
X143511680Y-79419727D01*
X143619853Y-79158574D01*
X143675000Y-78881335D01*
X143675000Y-78598665D01*
X143619853Y-78321426D01*
X143511680Y-78060273D01*
X143354637Y-77825241D01*
X143154759Y-77625363D01*
X142922241Y-77470000D01*
X143154759Y-77314637D01*
X143354637Y-77114759D01*
X143511680Y-76879727D01*
X143619853Y-76618574D01*
X143675000Y-76341335D01*
X143675000Y-76058665D01*
X143619853Y-75781426D01*
X143511680Y-75520273D01*
X143354637Y-75285241D01*
X143154759Y-75085363D01*
X142922241Y-74930000D01*
X143154759Y-74774637D01*
X143354637Y-74574759D01*
X143511680Y-74339727D01*
X143619853Y-74078574D01*
X143675000Y-73801335D01*
X143675000Y-73518665D01*
X143619853Y-73241426D01*
X143511680Y-72980273D01*
X143354637Y-72745241D01*
X143156039Y-72546643D01*
X143164482Y-72545812D01*
X143284180Y-72509502D01*
X143394494Y-72450537D01*
X143491185Y-72371185D01*
X143570537Y-72274494D01*
X143629502Y-72164180D01*
X143665812Y-72044482D01*
X143678072Y-71920000D01*
X143675000Y-71405750D01*
X143516250Y-71247000D01*
X142367000Y-71247000D01*
X142367000Y-71267000D01*
X142113000Y-71267000D01*
X142113000Y-71247000D01*
X142093000Y-71247000D01*
X142093000Y-70993000D01*
X142113000Y-70993000D01*
X142113000Y-70973000D01*
X142367000Y-70973000D01*
X142367000Y-70993000D01*
X143516250Y-70993000D01*
X143675000Y-70834250D01*
X143678072Y-70320000D01*
X143674231Y-70281000D01*
X153774743Y-70281000D01*
X153668320Y-70440273D01*
G37*
X153668320Y-70440273D02*
X153560147Y-70701426D01*
X153505000Y-70978665D01*
X153505000Y-71261335D01*
X153560147Y-71538574D01*
X153668320Y-71799727D01*
X153825363Y-72034759D01*
X154025241Y-72234637D01*
X154257759Y-72390000D01*
X154025241Y-72545363D01*
X153825363Y-72745241D01*
X153668320Y-72980273D01*
X153560147Y-73241426D01*
X153505000Y-73518665D01*
X153505000Y-73801335D01*
X153560147Y-74078574D01*
X153668320Y-74339727D01*
X153825363Y-74574759D01*
X154025241Y-74774637D01*
X154257759Y-74930000D01*
X154025241Y-75085363D01*
X153825363Y-75285241D01*
X153668320Y-75520273D01*
X153560147Y-75781426D01*
X153505000Y-76058665D01*
X153505000Y-76341335D01*
X153560147Y-76618574D01*
X153668320Y-76879727D01*
X153825363Y-77114759D01*
X154025241Y-77314637D01*
X154257759Y-77470000D01*
X154064696Y-77599000D01*
X153103711Y-77599000D01*
X153059774Y-77555063D01*
X152890256Y-77441795D01*
X152701898Y-77363774D01*
X152501939Y-77324000D01*
X152298061Y-77324000D01*
X152098102Y-77363774D01*
X151909744Y-77441795D01*
X151740226Y-77555063D01*
X151596063Y-77699226D01*
X151482795Y-77868744D01*
X151404774Y-78057102D01*
X151365000Y-78257061D01*
X151365000Y-78460939D01*
X151404774Y-78660898D01*
X151482795Y-78849256D01*
X151596063Y-79018774D01*
X151740226Y-79162937D01*
X151909744Y-79276205D01*
X152098102Y-79354226D01*
X152298061Y-79394000D01*
X152501939Y-79394000D01*
X152701898Y-79354226D01*
X152890256Y-79276205D01*
X153059774Y-79162937D01*
X153103711Y-79119000D01*
X153552275Y-79119000D01*
X153560147Y-79158574D01*
X153668320Y-79419727D01*
X153825363Y-79654759D01*
X154025241Y-79854637D01*
X154257759Y-80010000D01*
X154025241Y-80165363D01*
X153825363Y-80365241D01*
X153668320Y-80600273D01*
X153560147Y-80861426D01*
X153505000Y-81138665D01*
X153505000Y-81421335D01*
X153560147Y-81698574D01*
X153668320Y-81959727D01*
X153825363Y-82194759D01*
X154025241Y-82394637D01*
X154257759Y-82550000D01*
X154025241Y-82705363D01*
X153825363Y-82905241D01*
X153668320Y-83140273D01*
X153560147Y-83401426D01*
X153505000Y-83678665D01*
X153505000Y-83961335D01*
X153560147Y-84238574D01*
X153668320Y-84499727D01*
X153825363Y-84734759D01*
X154025241Y-84934637D01*
X154257759Y-85090000D01*
X154025241Y-85245363D01*
X153825363Y-85445241D01*
X153668320Y-85680273D01*
X153560147Y-85941426D01*
X153505000Y-86218665D01*
X153505000Y-86501335D01*
X153560147Y-86778574D01*
X153668320Y-87039727D01*
X153825363Y-87274759D01*
X154025241Y-87474637D01*
X154257759Y-87630000D01*
X154025241Y-87785363D01*
X153825363Y-87985241D01*
X153668320Y-88220273D01*
X153560147Y-88481426D01*
X153505000Y-88758665D01*
X153505000Y-89041335D01*
X153560147Y-89318574D01*
X153668320Y-89579727D01*
X153774743Y-89739000D01*
X143405257Y-89739000D01*
X143511680Y-89579727D01*
X143619853Y-89318574D01*
X143675000Y-89041335D01*
X143675000Y-88758665D01*
X143619853Y-88481426D01*
X143511680Y-88220273D01*
X143354637Y-87985241D01*
X143154759Y-87785363D01*
X142919727Y-87628320D01*
X142909135Y-87623933D01*
X143095131Y-87512385D01*
X143303519Y-87323414D01*
X143471037Y-87097420D01*
X143591246Y-86843087D01*
X143631904Y-86709039D01*
X143509915Y-86487000D01*
X142367000Y-86487000D01*
X142367000Y-86507000D01*
X142113000Y-86507000D01*
X142113000Y-86487000D01*
X142093000Y-86487000D01*
X142093000Y-86233000D01*
X142113000Y-86233000D01*
X142113000Y-86213000D01*
X142367000Y-86213000D01*
X142367000Y-86233000D01*
X143509915Y-86233000D01*
X143631904Y-86010961D01*
X143591246Y-85876913D01*
X143471037Y-85622580D01*
X143303519Y-85396586D01*
X143095131Y-85207615D01*
X142909135Y-85096067D01*
X142919727Y-85091680D01*
X143154759Y-84934637D01*
X143354637Y-84734759D01*
X143511680Y-84499727D01*
X143619853Y-84238574D01*
X143675000Y-83961335D01*
X143675000Y-83678665D01*
X143619853Y-83401426D01*
X143511680Y-83140273D01*
X143354637Y-82905241D01*
X143154759Y-82705363D01*
X142922241Y-82550000D01*
X143154759Y-82394637D01*
X143354637Y-82194759D01*
X143511680Y-81959727D01*
X143619853Y-81698574D01*
X143675000Y-81421335D01*
X143675000Y-81138665D01*
X143619853Y-80861426D01*
X143511680Y-80600273D01*
X143354637Y-80365241D01*
X143154759Y-80165363D01*
X142922241Y-80010000D01*
X143154759Y-79854637D01*
X143354637Y-79654759D01*
X143511680Y-79419727D01*
X143619853Y-79158574D01*
X143675000Y-78881335D01*
X143675000Y-78598665D01*
X143619853Y-78321426D01*
X143511680Y-78060273D01*
X143354637Y-77825241D01*
X143154759Y-77625363D01*
X142922241Y-77470000D01*
X143154759Y-77314637D01*
X143354637Y-77114759D01*
X143511680Y-76879727D01*
X143619853Y-76618574D01*
X143675000Y-76341335D01*
X143675000Y-76058665D01*
X143619853Y-75781426D01*
X143511680Y-75520273D01*
X143354637Y-75285241D01*
X143154759Y-75085363D01*
X142922241Y-74930000D01*
X143154759Y-74774637D01*
X143354637Y-74574759D01*
X143511680Y-74339727D01*
X143619853Y-74078574D01*
X143675000Y-73801335D01*
X143675000Y-73518665D01*
X143619853Y-73241426D01*
X143511680Y-72980273D01*
X143354637Y-72745241D01*
X143156039Y-72546643D01*
X143164482Y-72545812D01*
X143284180Y-72509502D01*
X143394494Y-72450537D01*
X143491185Y-72371185D01*
X143570537Y-72274494D01*
X143629502Y-72164180D01*
X143665812Y-72044482D01*
X143678072Y-71920000D01*
X143675000Y-71405750D01*
X143516250Y-71247000D01*
X142367000Y-71247000D01*
X142367000Y-71267000D01*
X142113000Y-71267000D01*
X142113000Y-71247000D01*
X142093000Y-71247000D01*
X142093000Y-70993000D01*
X142113000Y-70993000D01*
X142113000Y-70973000D01*
X142367000Y-70973000D01*
X142367000Y-70993000D01*
X143516250Y-70993000D01*
X143675000Y-70834250D01*
X143678072Y-70320000D01*
X143674231Y-70281000D01*
X153774743Y-70281000D01*
X153668320Y-70440273D01*
M02*
