G04 #@! TF.GenerationSoftware,KiCad,Pcbnew,(5.1.5)-3*
G04 #@! TF.CreationDate,2020-05-13T15:10:14-05:00*
G04 #@! TF.ProjectId,pt100stick,70743130-3073-4746-9963-6b2e6b696361,rev?*
G04 #@! TF.SameCoordinates,Original*
G04 #@! TF.FileFunction,Copper,L1,Top*
G04 #@! TF.FilePolarity,Positive*
%FSLAX46Y46*%
G04 Gerber Fmt 4.6, Leading zero omitted, Abs format (unit mm)*
G04 Created by KiCad (PCBNEW (5.1.5)-3) date 2020-05-13 15:10:14*
%MOMM*%
%LPD*%
G04 APERTURE LIST*
%ADD10C,0.100000*%
%ADD11R,1.500000X1.000000*%
%ADD12O,1.600000X1.600000*%
%ADD13R,1.600000X1.600000*%
%ADD14C,0.800000*%
%ADD15C,0.250000*%
%ADD16C,0.254000*%
G04 APERTURE END LIST*
D10*
G36*
X149398000Y-78826000D02*
G01*
X149398000Y-79326000D01*
X148798000Y-79326000D01*
X148798000Y-78826000D01*
X149398000Y-78826000D01*
G37*
G36*
X145334000Y-77257000D02*
G01*
X145334000Y-77757000D01*
X144734000Y-77757000D01*
X144734000Y-77257000D01*
X145334000Y-77257000D01*
G37*
G36*
X144734000Y-83054000D02*
G01*
X144734000Y-82554000D01*
X145334000Y-82554000D01*
X145334000Y-83054000D01*
X144734000Y-83054000D01*
G37*
G04 #@! TA.AperFunction,SMDPad,CuDef*
G36*
X146310779Y-72148144D02*
G01*
X146333834Y-72151563D01*
X146356443Y-72157227D01*
X146378387Y-72165079D01*
X146399457Y-72175044D01*
X146419448Y-72187026D01*
X146438168Y-72200910D01*
X146455438Y-72216562D01*
X146471090Y-72233832D01*
X146484974Y-72252552D01*
X146496956Y-72272543D01*
X146506921Y-72293613D01*
X146514773Y-72315557D01*
X146520437Y-72338166D01*
X146523856Y-72361221D01*
X146525000Y-72384500D01*
X146525000Y-72959500D01*
X146523856Y-72982779D01*
X146520437Y-73005834D01*
X146514773Y-73028443D01*
X146506921Y-73050387D01*
X146496956Y-73071457D01*
X146484974Y-73091448D01*
X146471090Y-73110168D01*
X146455438Y-73127438D01*
X146438168Y-73143090D01*
X146419448Y-73156974D01*
X146399457Y-73168956D01*
X146378387Y-73178921D01*
X146356443Y-73186773D01*
X146333834Y-73192437D01*
X146310779Y-73195856D01*
X146287500Y-73197000D01*
X145812500Y-73197000D01*
X145789221Y-73195856D01*
X145766166Y-73192437D01*
X145743557Y-73186773D01*
X145721613Y-73178921D01*
X145700543Y-73168956D01*
X145680552Y-73156974D01*
X145661832Y-73143090D01*
X145644562Y-73127438D01*
X145628910Y-73110168D01*
X145615026Y-73091448D01*
X145603044Y-73071457D01*
X145593079Y-73050387D01*
X145585227Y-73028443D01*
X145579563Y-73005834D01*
X145576144Y-72982779D01*
X145575000Y-72959500D01*
X145575000Y-72384500D01*
X145576144Y-72361221D01*
X145579563Y-72338166D01*
X145585227Y-72315557D01*
X145593079Y-72293613D01*
X145603044Y-72272543D01*
X145615026Y-72252552D01*
X145628910Y-72233832D01*
X145644562Y-72216562D01*
X145661832Y-72200910D01*
X145680552Y-72187026D01*
X145700543Y-72175044D01*
X145721613Y-72165079D01*
X145743557Y-72157227D01*
X145766166Y-72151563D01*
X145789221Y-72148144D01*
X145812500Y-72147000D01*
X146287500Y-72147000D01*
X146310779Y-72148144D01*
G37*
G04 #@! TD.AperFunction*
G04 #@! TA.AperFunction,SMDPad,CuDef*
G36*
X146310779Y-73898144D02*
G01*
X146333834Y-73901563D01*
X146356443Y-73907227D01*
X146378387Y-73915079D01*
X146399457Y-73925044D01*
X146419448Y-73937026D01*
X146438168Y-73950910D01*
X146455438Y-73966562D01*
X146471090Y-73983832D01*
X146484974Y-74002552D01*
X146496956Y-74022543D01*
X146506921Y-74043613D01*
X146514773Y-74065557D01*
X146520437Y-74088166D01*
X146523856Y-74111221D01*
X146525000Y-74134500D01*
X146525000Y-74709500D01*
X146523856Y-74732779D01*
X146520437Y-74755834D01*
X146514773Y-74778443D01*
X146506921Y-74800387D01*
X146496956Y-74821457D01*
X146484974Y-74841448D01*
X146471090Y-74860168D01*
X146455438Y-74877438D01*
X146438168Y-74893090D01*
X146419448Y-74906974D01*
X146399457Y-74918956D01*
X146378387Y-74928921D01*
X146356443Y-74936773D01*
X146333834Y-74942437D01*
X146310779Y-74945856D01*
X146287500Y-74947000D01*
X145812500Y-74947000D01*
X145789221Y-74945856D01*
X145766166Y-74942437D01*
X145743557Y-74936773D01*
X145721613Y-74928921D01*
X145700543Y-74918956D01*
X145680552Y-74906974D01*
X145661832Y-74893090D01*
X145644562Y-74877438D01*
X145628910Y-74860168D01*
X145615026Y-74841448D01*
X145603044Y-74821457D01*
X145593079Y-74800387D01*
X145585227Y-74778443D01*
X145579563Y-74755834D01*
X145576144Y-74732779D01*
X145575000Y-74709500D01*
X145575000Y-74134500D01*
X145576144Y-74111221D01*
X145579563Y-74088166D01*
X145585227Y-74065557D01*
X145593079Y-74043613D01*
X145603044Y-74022543D01*
X145615026Y-74002552D01*
X145628910Y-73983832D01*
X145644562Y-73966562D01*
X145661832Y-73950910D01*
X145680552Y-73937026D01*
X145700543Y-73925044D01*
X145721613Y-73915079D01*
X145743557Y-73907227D01*
X145766166Y-73901563D01*
X145789221Y-73898144D01*
X145812500Y-73897000D01*
X146287500Y-73897000D01*
X146310779Y-73898144D01*
G37*
G04 #@! TD.AperFunction*
D11*
X149098000Y-79726000D03*
X149098000Y-81026000D03*
X149098000Y-78426000D03*
X145034000Y-78157000D03*
X145034000Y-76857000D03*
X145034000Y-82154000D03*
X145034000Y-83454000D03*
G04 #@! TA.AperFunction,SMDPad,CuDef*
D10*
G36*
X146360779Y-70646144D02*
G01*
X146383834Y-70649563D01*
X146406443Y-70655227D01*
X146428387Y-70663079D01*
X146449457Y-70673044D01*
X146469448Y-70685026D01*
X146488168Y-70698910D01*
X146505438Y-70714562D01*
X146521090Y-70731832D01*
X146534974Y-70750552D01*
X146546956Y-70770543D01*
X146556921Y-70791613D01*
X146564773Y-70813557D01*
X146570437Y-70836166D01*
X146573856Y-70859221D01*
X146575000Y-70882500D01*
X146575000Y-71357500D01*
X146573856Y-71380779D01*
X146570437Y-71403834D01*
X146564773Y-71426443D01*
X146556921Y-71448387D01*
X146546956Y-71469457D01*
X146534974Y-71489448D01*
X146521090Y-71508168D01*
X146505438Y-71525438D01*
X146488168Y-71541090D01*
X146469448Y-71554974D01*
X146449457Y-71566956D01*
X146428387Y-71576921D01*
X146406443Y-71584773D01*
X146383834Y-71590437D01*
X146360779Y-71593856D01*
X146337500Y-71595000D01*
X145762500Y-71595000D01*
X145739221Y-71593856D01*
X145716166Y-71590437D01*
X145693557Y-71584773D01*
X145671613Y-71576921D01*
X145650543Y-71566956D01*
X145630552Y-71554974D01*
X145611832Y-71541090D01*
X145594562Y-71525438D01*
X145578910Y-71508168D01*
X145565026Y-71489448D01*
X145553044Y-71469457D01*
X145543079Y-71448387D01*
X145535227Y-71426443D01*
X145529563Y-71403834D01*
X145526144Y-71380779D01*
X145525000Y-71357500D01*
X145525000Y-70882500D01*
X145526144Y-70859221D01*
X145529563Y-70836166D01*
X145535227Y-70813557D01*
X145543079Y-70791613D01*
X145553044Y-70770543D01*
X145565026Y-70750552D01*
X145578910Y-70731832D01*
X145594562Y-70714562D01*
X145611832Y-70698910D01*
X145630552Y-70685026D01*
X145650543Y-70673044D01*
X145671613Y-70663079D01*
X145693557Y-70655227D01*
X145716166Y-70649563D01*
X145739221Y-70646144D01*
X145762500Y-70645000D01*
X146337500Y-70645000D01*
X146360779Y-70646144D01*
G37*
G04 #@! TD.AperFunction*
G04 #@! TA.AperFunction,SMDPad,CuDef*
G36*
X144610779Y-70646144D02*
G01*
X144633834Y-70649563D01*
X144656443Y-70655227D01*
X144678387Y-70663079D01*
X144699457Y-70673044D01*
X144719448Y-70685026D01*
X144738168Y-70698910D01*
X144755438Y-70714562D01*
X144771090Y-70731832D01*
X144784974Y-70750552D01*
X144796956Y-70770543D01*
X144806921Y-70791613D01*
X144814773Y-70813557D01*
X144820437Y-70836166D01*
X144823856Y-70859221D01*
X144825000Y-70882500D01*
X144825000Y-71357500D01*
X144823856Y-71380779D01*
X144820437Y-71403834D01*
X144814773Y-71426443D01*
X144806921Y-71448387D01*
X144796956Y-71469457D01*
X144784974Y-71489448D01*
X144771090Y-71508168D01*
X144755438Y-71525438D01*
X144738168Y-71541090D01*
X144719448Y-71554974D01*
X144699457Y-71566956D01*
X144678387Y-71576921D01*
X144656443Y-71584773D01*
X144633834Y-71590437D01*
X144610779Y-71593856D01*
X144587500Y-71595000D01*
X144012500Y-71595000D01*
X143989221Y-71593856D01*
X143966166Y-71590437D01*
X143943557Y-71584773D01*
X143921613Y-71576921D01*
X143900543Y-71566956D01*
X143880552Y-71554974D01*
X143861832Y-71541090D01*
X143844562Y-71525438D01*
X143828910Y-71508168D01*
X143815026Y-71489448D01*
X143803044Y-71469457D01*
X143793079Y-71448387D01*
X143785227Y-71426443D01*
X143779563Y-71403834D01*
X143776144Y-71380779D01*
X143775000Y-71357500D01*
X143775000Y-70882500D01*
X143776144Y-70859221D01*
X143779563Y-70836166D01*
X143785227Y-70813557D01*
X143793079Y-70791613D01*
X143803044Y-70770543D01*
X143815026Y-70750552D01*
X143828910Y-70731832D01*
X143844562Y-70714562D01*
X143861832Y-70698910D01*
X143880552Y-70685026D01*
X143900543Y-70673044D01*
X143921613Y-70663079D01*
X143943557Y-70655227D01*
X143966166Y-70649563D01*
X143989221Y-70646144D01*
X144012500Y-70645000D01*
X144587500Y-70645000D01*
X144610779Y-70646144D01*
G37*
G04 #@! TD.AperFunction*
G04 #@! TA.AperFunction,SMDPad,CuDef*
G36*
X144532779Y-72148144D02*
G01*
X144555834Y-72151563D01*
X144578443Y-72157227D01*
X144600387Y-72165079D01*
X144621457Y-72175044D01*
X144641448Y-72187026D01*
X144660168Y-72200910D01*
X144677438Y-72216562D01*
X144693090Y-72233832D01*
X144706974Y-72252552D01*
X144718956Y-72272543D01*
X144728921Y-72293613D01*
X144736773Y-72315557D01*
X144742437Y-72338166D01*
X144745856Y-72361221D01*
X144747000Y-72384500D01*
X144747000Y-72959500D01*
X144745856Y-72982779D01*
X144742437Y-73005834D01*
X144736773Y-73028443D01*
X144728921Y-73050387D01*
X144718956Y-73071457D01*
X144706974Y-73091448D01*
X144693090Y-73110168D01*
X144677438Y-73127438D01*
X144660168Y-73143090D01*
X144641448Y-73156974D01*
X144621457Y-73168956D01*
X144600387Y-73178921D01*
X144578443Y-73186773D01*
X144555834Y-73192437D01*
X144532779Y-73195856D01*
X144509500Y-73197000D01*
X144034500Y-73197000D01*
X144011221Y-73195856D01*
X143988166Y-73192437D01*
X143965557Y-73186773D01*
X143943613Y-73178921D01*
X143922543Y-73168956D01*
X143902552Y-73156974D01*
X143883832Y-73143090D01*
X143866562Y-73127438D01*
X143850910Y-73110168D01*
X143837026Y-73091448D01*
X143825044Y-73071457D01*
X143815079Y-73050387D01*
X143807227Y-73028443D01*
X143801563Y-73005834D01*
X143798144Y-72982779D01*
X143797000Y-72959500D01*
X143797000Y-72384500D01*
X143798144Y-72361221D01*
X143801563Y-72338166D01*
X143807227Y-72315557D01*
X143815079Y-72293613D01*
X143825044Y-72272543D01*
X143837026Y-72252552D01*
X143850910Y-72233832D01*
X143866562Y-72216562D01*
X143883832Y-72200910D01*
X143902552Y-72187026D01*
X143922543Y-72175044D01*
X143943613Y-72165079D01*
X143965557Y-72157227D01*
X143988166Y-72151563D01*
X144011221Y-72148144D01*
X144034500Y-72147000D01*
X144509500Y-72147000D01*
X144532779Y-72148144D01*
G37*
G04 #@! TD.AperFunction*
G04 #@! TA.AperFunction,SMDPad,CuDef*
G36*
X144532779Y-73898144D02*
G01*
X144555834Y-73901563D01*
X144578443Y-73907227D01*
X144600387Y-73915079D01*
X144621457Y-73925044D01*
X144641448Y-73937026D01*
X144660168Y-73950910D01*
X144677438Y-73966562D01*
X144693090Y-73983832D01*
X144706974Y-74002552D01*
X144718956Y-74022543D01*
X144728921Y-74043613D01*
X144736773Y-74065557D01*
X144742437Y-74088166D01*
X144745856Y-74111221D01*
X144747000Y-74134500D01*
X144747000Y-74709500D01*
X144745856Y-74732779D01*
X144742437Y-74755834D01*
X144736773Y-74778443D01*
X144728921Y-74800387D01*
X144718956Y-74821457D01*
X144706974Y-74841448D01*
X144693090Y-74860168D01*
X144677438Y-74877438D01*
X144660168Y-74893090D01*
X144641448Y-74906974D01*
X144621457Y-74918956D01*
X144600387Y-74928921D01*
X144578443Y-74936773D01*
X144555834Y-74942437D01*
X144532779Y-74945856D01*
X144509500Y-74947000D01*
X144034500Y-74947000D01*
X144011221Y-74945856D01*
X143988166Y-74942437D01*
X143965557Y-74936773D01*
X143943613Y-74928921D01*
X143922543Y-74918956D01*
X143902552Y-74906974D01*
X143883832Y-74893090D01*
X143866562Y-74877438D01*
X143850910Y-74860168D01*
X143837026Y-74841448D01*
X143825044Y-74821457D01*
X143815079Y-74800387D01*
X143807227Y-74778443D01*
X143801563Y-74755834D01*
X143798144Y-74732779D01*
X143797000Y-74709500D01*
X143797000Y-74134500D01*
X143798144Y-74111221D01*
X143801563Y-74088166D01*
X143807227Y-74065557D01*
X143815079Y-74043613D01*
X143825044Y-74022543D01*
X143837026Y-74002552D01*
X143850910Y-73983832D01*
X143866562Y-73966562D01*
X143883832Y-73950910D01*
X143902552Y-73937026D01*
X143922543Y-73925044D01*
X143943613Y-73915079D01*
X143965557Y-73907227D01*
X143988166Y-73901563D01*
X144011221Y-73898144D01*
X144034500Y-73897000D01*
X144509500Y-73897000D01*
X144532779Y-73898144D01*
G37*
G04 #@! TD.AperFunction*
G04 #@! TA.AperFunction,SMDPad,CuDef*
G36*
X151807779Y-82584144D02*
G01*
X151830834Y-82587563D01*
X151853443Y-82593227D01*
X151875387Y-82601079D01*
X151896457Y-82611044D01*
X151916448Y-82623026D01*
X151935168Y-82636910D01*
X151952438Y-82652562D01*
X151968090Y-82669832D01*
X151981974Y-82688552D01*
X151993956Y-82708543D01*
X152003921Y-82729613D01*
X152011773Y-82751557D01*
X152017437Y-82774166D01*
X152020856Y-82797221D01*
X152022000Y-82820500D01*
X152022000Y-83295500D01*
X152020856Y-83318779D01*
X152017437Y-83341834D01*
X152011773Y-83364443D01*
X152003921Y-83386387D01*
X151993956Y-83407457D01*
X151981974Y-83427448D01*
X151968090Y-83446168D01*
X151952438Y-83463438D01*
X151935168Y-83479090D01*
X151916448Y-83492974D01*
X151896457Y-83504956D01*
X151875387Y-83514921D01*
X151853443Y-83522773D01*
X151830834Y-83528437D01*
X151807779Y-83531856D01*
X151784500Y-83533000D01*
X151209500Y-83533000D01*
X151186221Y-83531856D01*
X151163166Y-83528437D01*
X151140557Y-83522773D01*
X151118613Y-83514921D01*
X151097543Y-83504956D01*
X151077552Y-83492974D01*
X151058832Y-83479090D01*
X151041562Y-83463438D01*
X151025910Y-83446168D01*
X151012026Y-83427448D01*
X151000044Y-83407457D01*
X150990079Y-83386387D01*
X150982227Y-83364443D01*
X150976563Y-83341834D01*
X150973144Y-83318779D01*
X150972000Y-83295500D01*
X150972000Y-82820500D01*
X150973144Y-82797221D01*
X150976563Y-82774166D01*
X150982227Y-82751557D01*
X150990079Y-82729613D01*
X151000044Y-82708543D01*
X151012026Y-82688552D01*
X151025910Y-82669832D01*
X151041562Y-82652562D01*
X151058832Y-82636910D01*
X151077552Y-82623026D01*
X151097543Y-82611044D01*
X151118613Y-82601079D01*
X151140557Y-82593227D01*
X151163166Y-82587563D01*
X151186221Y-82584144D01*
X151209500Y-82583000D01*
X151784500Y-82583000D01*
X151807779Y-82584144D01*
G37*
G04 #@! TD.AperFunction*
G04 #@! TA.AperFunction,SMDPad,CuDef*
G36*
X150057779Y-82584144D02*
G01*
X150080834Y-82587563D01*
X150103443Y-82593227D01*
X150125387Y-82601079D01*
X150146457Y-82611044D01*
X150166448Y-82623026D01*
X150185168Y-82636910D01*
X150202438Y-82652562D01*
X150218090Y-82669832D01*
X150231974Y-82688552D01*
X150243956Y-82708543D01*
X150253921Y-82729613D01*
X150261773Y-82751557D01*
X150267437Y-82774166D01*
X150270856Y-82797221D01*
X150272000Y-82820500D01*
X150272000Y-83295500D01*
X150270856Y-83318779D01*
X150267437Y-83341834D01*
X150261773Y-83364443D01*
X150253921Y-83386387D01*
X150243956Y-83407457D01*
X150231974Y-83427448D01*
X150218090Y-83446168D01*
X150202438Y-83463438D01*
X150185168Y-83479090D01*
X150166448Y-83492974D01*
X150146457Y-83504956D01*
X150125387Y-83514921D01*
X150103443Y-83522773D01*
X150080834Y-83528437D01*
X150057779Y-83531856D01*
X150034500Y-83533000D01*
X149459500Y-83533000D01*
X149436221Y-83531856D01*
X149413166Y-83528437D01*
X149390557Y-83522773D01*
X149368613Y-83514921D01*
X149347543Y-83504956D01*
X149327552Y-83492974D01*
X149308832Y-83479090D01*
X149291562Y-83463438D01*
X149275910Y-83446168D01*
X149262026Y-83427448D01*
X149250044Y-83407457D01*
X149240079Y-83386387D01*
X149232227Y-83364443D01*
X149226563Y-83341834D01*
X149223144Y-83318779D01*
X149222000Y-83295500D01*
X149222000Y-82820500D01*
X149223144Y-82797221D01*
X149226563Y-82774166D01*
X149232227Y-82751557D01*
X149240079Y-82729613D01*
X149250044Y-82708543D01*
X149262026Y-82688552D01*
X149275910Y-82669832D01*
X149291562Y-82652562D01*
X149308832Y-82636910D01*
X149327552Y-82623026D01*
X149347543Y-82611044D01*
X149368613Y-82601079D01*
X149390557Y-82593227D01*
X149413166Y-82587563D01*
X149436221Y-82584144D01*
X149459500Y-82583000D01*
X150034500Y-82583000D01*
X150057779Y-82584144D01*
G37*
G04 #@! TD.AperFunction*
D12*
X154940000Y-71120000D03*
X142240000Y-88900000D03*
X154940000Y-73660000D03*
X142240000Y-86360000D03*
X154940000Y-76200000D03*
X142240000Y-83820000D03*
X154940000Y-78740000D03*
X142240000Y-81280000D03*
X154940000Y-81280000D03*
X142240000Y-78740000D03*
X154940000Y-83820000D03*
X142240000Y-76200000D03*
X154940000Y-86360000D03*
X142240000Y-73660000D03*
X154940000Y-88900000D03*
D13*
X142240000Y-71120000D03*
G04 #@! TA.AperFunction,SMDPad,CuDef*
D10*
G36*
X151438505Y-71984204D02*
G01*
X151462773Y-71987804D01*
X151486572Y-71993765D01*
X151509671Y-72002030D01*
X151531850Y-72012520D01*
X151552893Y-72025132D01*
X151572599Y-72039747D01*
X151590777Y-72056223D01*
X151607253Y-72074401D01*
X151621868Y-72094107D01*
X151634480Y-72115150D01*
X151644970Y-72137329D01*
X151653235Y-72160428D01*
X151659196Y-72184227D01*
X151662796Y-72208495D01*
X151664000Y-72232999D01*
X151664000Y-74833001D01*
X151662796Y-74857505D01*
X151659196Y-74881773D01*
X151653235Y-74905572D01*
X151644970Y-74928671D01*
X151634480Y-74950850D01*
X151621868Y-74971893D01*
X151607253Y-74991599D01*
X151590777Y-75009777D01*
X151572599Y-75026253D01*
X151552893Y-75040868D01*
X151531850Y-75053480D01*
X151509671Y-75063970D01*
X151486572Y-75072235D01*
X151462773Y-75078196D01*
X151438505Y-75081796D01*
X151414001Y-75083000D01*
X148813999Y-75083000D01*
X148789495Y-75081796D01*
X148765227Y-75078196D01*
X148741428Y-75072235D01*
X148718329Y-75063970D01*
X148696150Y-75053480D01*
X148675107Y-75040868D01*
X148655401Y-75026253D01*
X148637223Y-75009777D01*
X148620747Y-74991599D01*
X148606132Y-74971893D01*
X148593520Y-74950850D01*
X148583030Y-74928671D01*
X148574765Y-74905572D01*
X148568804Y-74881773D01*
X148565204Y-74857505D01*
X148564000Y-74833001D01*
X148564000Y-72232999D01*
X148565204Y-72208495D01*
X148568804Y-72184227D01*
X148574765Y-72160428D01*
X148583030Y-72137329D01*
X148593520Y-72115150D01*
X148606132Y-72094107D01*
X148620747Y-72074401D01*
X148637223Y-72056223D01*
X148655401Y-72039747D01*
X148675107Y-72025132D01*
X148696150Y-72012520D01*
X148718329Y-72002030D01*
X148741428Y-71993765D01*
X148765227Y-71987804D01*
X148789495Y-71984204D01*
X148813999Y-71983000D01*
X151414001Y-71983000D01*
X151438505Y-71984204D01*
G37*
G04 #@! TD.AperFunction*
G04 #@! TA.AperFunction,SMDPad,CuDef*
G36*
X148171351Y-72083361D02*
G01*
X148178632Y-72084441D01*
X148185771Y-72086229D01*
X148192701Y-72088709D01*
X148199355Y-72091856D01*
X148205668Y-72095640D01*
X148211579Y-72100024D01*
X148217033Y-72104967D01*
X148221976Y-72110421D01*
X148226360Y-72116332D01*
X148230144Y-72122645D01*
X148233291Y-72129299D01*
X148235771Y-72136229D01*
X148237559Y-72143368D01*
X148238639Y-72150649D01*
X148239000Y-72158000D01*
X148239000Y-72308000D01*
X148238639Y-72315351D01*
X148237559Y-72322632D01*
X148235771Y-72329771D01*
X148233291Y-72336701D01*
X148230144Y-72343355D01*
X148226360Y-72349668D01*
X148221976Y-72355579D01*
X148217033Y-72361033D01*
X148211579Y-72365976D01*
X148205668Y-72370360D01*
X148199355Y-72374144D01*
X148192701Y-72377291D01*
X148185771Y-72379771D01*
X148178632Y-72381559D01*
X148171351Y-72382639D01*
X148164000Y-72383000D01*
X147339000Y-72383000D01*
X147331649Y-72382639D01*
X147324368Y-72381559D01*
X147317229Y-72379771D01*
X147310299Y-72377291D01*
X147303645Y-72374144D01*
X147297332Y-72370360D01*
X147291421Y-72365976D01*
X147285967Y-72361033D01*
X147281024Y-72355579D01*
X147276640Y-72349668D01*
X147272856Y-72343355D01*
X147269709Y-72336701D01*
X147267229Y-72329771D01*
X147265441Y-72322632D01*
X147264361Y-72315351D01*
X147264000Y-72308000D01*
X147264000Y-72158000D01*
X147264361Y-72150649D01*
X147265441Y-72143368D01*
X147267229Y-72136229D01*
X147269709Y-72129299D01*
X147272856Y-72122645D01*
X147276640Y-72116332D01*
X147281024Y-72110421D01*
X147285967Y-72104967D01*
X147291421Y-72100024D01*
X147297332Y-72095640D01*
X147303645Y-72091856D01*
X147310299Y-72088709D01*
X147317229Y-72086229D01*
X147324368Y-72084441D01*
X147331649Y-72083361D01*
X147339000Y-72083000D01*
X148164000Y-72083000D01*
X148171351Y-72083361D01*
G37*
G04 #@! TD.AperFunction*
G04 #@! TA.AperFunction,SMDPad,CuDef*
G36*
X148171351Y-72733361D02*
G01*
X148178632Y-72734441D01*
X148185771Y-72736229D01*
X148192701Y-72738709D01*
X148199355Y-72741856D01*
X148205668Y-72745640D01*
X148211579Y-72750024D01*
X148217033Y-72754967D01*
X148221976Y-72760421D01*
X148226360Y-72766332D01*
X148230144Y-72772645D01*
X148233291Y-72779299D01*
X148235771Y-72786229D01*
X148237559Y-72793368D01*
X148238639Y-72800649D01*
X148239000Y-72808000D01*
X148239000Y-72958000D01*
X148238639Y-72965351D01*
X148237559Y-72972632D01*
X148235771Y-72979771D01*
X148233291Y-72986701D01*
X148230144Y-72993355D01*
X148226360Y-72999668D01*
X148221976Y-73005579D01*
X148217033Y-73011033D01*
X148211579Y-73015976D01*
X148205668Y-73020360D01*
X148199355Y-73024144D01*
X148192701Y-73027291D01*
X148185771Y-73029771D01*
X148178632Y-73031559D01*
X148171351Y-73032639D01*
X148164000Y-73033000D01*
X147339000Y-73033000D01*
X147331649Y-73032639D01*
X147324368Y-73031559D01*
X147317229Y-73029771D01*
X147310299Y-73027291D01*
X147303645Y-73024144D01*
X147297332Y-73020360D01*
X147291421Y-73015976D01*
X147285967Y-73011033D01*
X147281024Y-73005579D01*
X147276640Y-72999668D01*
X147272856Y-72993355D01*
X147269709Y-72986701D01*
X147267229Y-72979771D01*
X147265441Y-72972632D01*
X147264361Y-72965351D01*
X147264000Y-72958000D01*
X147264000Y-72808000D01*
X147264361Y-72800649D01*
X147265441Y-72793368D01*
X147267229Y-72786229D01*
X147269709Y-72779299D01*
X147272856Y-72772645D01*
X147276640Y-72766332D01*
X147281024Y-72760421D01*
X147285967Y-72754967D01*
X147291421Y-72750024D01*
X147297332Y-72745640D01*
X147303645Y-72741856D01*
X147310299Y-72738709D01*
X147317229Y-72736229D01*
X147324368Y-72734441D01*
X147331649Y-72733361D01*
X147339000Y-72733000D01*
X148164000Y-72733000D01*
X148171351Y-72733361D01*
G37*
G04 #@! TD.AperFunction*
G04 #@! TA.AperFunction,SMDPad,CuDef*
G36*
X148171351Y-73383361D02*
G01*
X148178632Y-73384441D01*
X148185771Y-73386229D01*
X148192701Y-73388709D01*
X148199355Y-73391856D01*
X148205668Y-73395640D01*
X148211579Y-73400024D01*
X148217033Y-73404967D01*
X148221976Y-73410421D01*
X148226360Y-73416332D01*
X148230144Y-73422645D01*
X148233291Y-73429299D01*
X148235771Y-73436229D01*
X148237559Y-73443368D01*
X148238639Y-73450649D01*
X148239000Y-73458000D01*
X148239000Y-73608000D01*
X148238639Y-73615351D01*
X148237559Y-73622632D01*
X148235771Y-73629771D01*
X148233291Y-73636701D01*
X148230144Y-73643355D01*
X148226360Y-73649668D01*
X148221976Y-73655579D01*
X148217033Y-73661033D01*
X148211579Y-73665976D01*
X148205668Y-73670360D01*
X148199355Y-73674144D01*
X148192701Y-73677291D01*
X148185771Y-73679771D01*
X148178632Y-73681559D01*
X148171351Y-73682639D01*
X148164000Y-73683000D01*
X147339000Y-73683000D01*
X147331649Y-73682639D01*
X147324368Y-73681559D01*
X147317229Y-73679771D01*
X147310299Y-73677291D01*
X147303645Y-73674144D01*
X147297332Y-73670360D01*
X147291421Y-73665976D01*
X147285967Y-73661033D01*
X147281024Y-73655579D01*
X147276640Y-73649668D01*
X147272856Y-73643355D01*
X147269709Y-73636701D01*
X147267229Y-73629771D01*
X147265441Y-73622632D01*
X147264361Y-73615351D01*
X147264000Y-73608000D01*
X147264000Y-73458000D01*
X147264361Y-73450649D01*
X147265441Y-73443368D01*
X147267229Y-73436229D01*
X147269709Y-73429299D01*
X147272856Y-73422645D01*
X147276640Y-73416332D01*
X147281024Y-73410421D01*
X147285967Y-73404967D01*
X147291421Y-73400024D01*
X147297332Y-73395640D01*
X147303645Y-73391856D01*
X147310299Y-73388709D01*
X147317229Y-73386229D01*
X147324368Y-73384441D01*
X147331649Y-73383361D01*
X147339000Y-73383000D01*
X148164000Y-73383000D01*
X148171351Y-73383361D01*
G37*
G04 #@! TD.AperFunction*
G04 #@! TA.AperFunction,SMDPad,CuDef*
G36*
X148171351Y-74033361D02*
G01*
X148178632Y-74034441D01*
X148185771Y-74036229D01*
X148192701Y-74038709D01*
X148199355Y-74041856D01*
X148205668Y-74045640D01*
X148211579Y-74050024D01*
X148217033Y-74054967D01*
X148221976Y-74060421D01*
X148226360Y-74066332D01*
X148230144Y-74072645D01*
X148233291Y-74079299D01*
X148235771Y-74086229D01*
X148237559Y-74093368D01*
X148238639Y-74100649D01*
X148239000Y-74108000D01*
X148239000Y-74258000D01*
X148238639Y-74265351D01*
X148237559Y-74272632D01*
X148235771Y-74279771D01*
X148233291Y-74286701D01*
X148230144Y-74293355D01*
X148226360Y-74299668D01*
X148221976Y-74305579D01*
X148217033Y-74311033D01*
X148211579Y-74315976D01*
X148205668Y-74320360D01*
X148199355Y-74324144D01*
X148192701Y-74327291D01*
X148185771Y-74329771D01*
X148178632Y-74331559D01*
X148171351Y-74332639D01*
X148164000Y-74333000D01*
X147339000Y-74333000D01*
X147331649Y-74332639D01*
X147324368Y-74331559D01*
X147317229Y-74329771D01*
X147310299Y-74327291D01*
X147303645Y-74324144D01*
X147297332Y-74320360D01*
X147291421Y-74315976D01*
X147285967Y-74311033D01*
X147281024Y-74305579D01*
X147276640Y-74299668D01*
X147272856Y-74293355D01*
X147269709Y-74286701D01*
X147267229Y-74279771D01*
X147265441Y-74272632D01*
X147264361Y-74265351D01*
X147264000Y-74258000D01*
X147264000Y-74108000D01*
X147264361Y-74100649D01*
X147265441Y-74093368D01*
X147267229Y-74086229D01*
X147269709Y-74079299D01*
X147272856Y-74072645D01*
X147276640Y-74066332D01*
X147281024Y-74060421D01*
X147285967Y-74054967D01*
X147291421Y-74050024D01*
X147297332Y-74045640D01*
X147303645Y-74041856D01*
X147310299Y-74038709D01*
X147317229Y-74036229D01*
X147324368Y-74034441D01*
X147331649Y-74033361D01*
X147339000Y-74033000D01*
X148164000Y-74033000D01*
X148171351Y-74033361D01*
G37*
G04 #@! TD.AperFunction*
G04 #@! TA.AperFunction,SMDPad,CuDef*
G36*
X148171351Y-74683361D02*
G01*
X148178632Y-74684441D01*
X148185771Y-74686229D01*
X148192701Y-74688709D01*
X148199355Y-74691856D01*
X148205668Y-74695640D01*
X148211579Y-74700024D01*
X148217033Y-74704967D01*
X148221976Y-74710421D01*
X148226360Y-74716332D01*
X148230144Y-74722645D01*
X148233291Y-74729299D01*
X148235771Y-74736229D01*
X148237559Y-74743368D01*
X148238639Y-74750649D01*
X148239000Y-74758000D01*
X148239000Y-74908000D01*
X148238639Y-74915351D01*
X148237559Y-74922632D01*
X148235771Y-74929771D01*
X148233291Y-74936701D01*
X148230144Y-74943355D01*
X148226360Y-74949668D01*
X148221976Y-74955579D01*
X148217033Y-74961033D01*
X148211579Y-74965976D01*
X148205668Y-74970360D01*
X148199355Y-74974144D01*
X148192701Y-74977291D01*
X148185771Y-74979771D01*
X148178632Y-74981559D01*
X148171351Y-74982639D01*
X148164000Y-74983000D01*
X147339000Y-74983000D01*
X147331649Y-74982639D01*
X147324368Y-74981559D01*
X147317229Y-74979771D01*
X147310299Y-74977291D01*
X147303645Y-74974144D01*
X147297332Y-74970360D01*
X147291421Y-74965976D01*
X147285967Y-74961033D01*
X147281024Y-74955579D01*
X147276640Y-74949668D01*
X147272856Y-74943355D01*
X147269709Y-74936701D01*
X147267229Y-74929771D01*
X147265441Y-74922632D01*
X147264361Y-74915351D01*
X147264000Y-74908000D01*
X147264000Y-74758000D01*
X147264361Y-74750649D01*
X147265441Y-74743368D01*
X147267229Y-74736229D01*
X147269709Y-74729299D01*
X147272856Y-74722645D01*
X147276640Y-74716332D01*
X147281024Y-74710421D01*
X147285967Y-74704967D01*
X147291421Y-74700024D01*
X147297332Y-74695640D01*
X147303645Y-74691856D01*
X147310299Y-74688709D01*
X147317229Y-74686229D01*
X147324368Y-74684441D01*
X147331649Y-74683361D01*
X147339000Y-74683000D01*
X148164000Y-74683000D01*
X148171351Y-74683361D01*
G37*
G04 #@! TD.AperFunction*
G04 #@! TA.AperFunction,SMDPad,CuDef*
G36*
X148896351Y-75408361D02*
G01*
X148903632Y-75409441D01*
X148910771Y-75411229D01*
X148917701Y-75413709D01*
X148924355Y-75416856D01*
X148930668Y-75420640D01*
X148936579Y-75425024D01*
X148942033Y-75429967D01*
X148946976Y-75435421D01*
X148951360Y-75441332D01*
X148955144Y-75447645D01*
X148958291Y-75454299D01*
X148960771Y-75461229D01*
X148962559Y-75468368D01*
X148963639Y-75475649D01*
X148964000Y-75483000D01*
X148964000Y-76308000D01*
X148963639Y-76315351D01*
X148962559Y-76322632D01*
X148960771Y-76329771D01*
X148958291Y-76336701D01*
X148955144Y-76343355D01*
X148951360Y-76349668D01*
X148946976Y-76355579D01*
X148942033Y-76361033D01*
X148936579Y-76365976D01*
X148930668Y-76370360D01*
X148924355Y-76374144D01*
X148917701Y-76377291D01*
X148910771Y-76379771D01*
X148903632Y-76381559D01*
X148896351Y-76382639D01*
X148889000Y-76383000D01*
X148739000Y-76383000D01*
X148731649Y-76382639D01*
X148724368Y-76381559D01*
X148717229Y-76379771D01*
X148710299Y-76377291D01*
X148703645Y-76374144D01*
X148697332Y-76370360D01*
X148691421Y-76365976D01*
X148685967Y-76361033D01*
X148681024Y-76355579D01*
X148676640Y-76349668D01*
X148672856Y-76343355D01*
X148669709Y-76336701D01*
X148667229Y-76329771D01*
X148665441Y-76322632D01*
X148664361Y-76315351D01*
X148664000Y-76308000D01*
X148664000Y-75483000D01*
X148664361Y-75475649D01*
X148665441Y-75468368D01*
X148667229Y-75461229D01*
X148669709Y-75454299D01*
X148672856Y-75447645D01*
X148676640Y-75441332D01*
X148681024Y-75435421D01*
X148685967Y-75429967D01*
X148691421Y-75425024D01*
X148697332Y-75420640D01*
X148703645Y-75416856D01*
X148710299Y-75413709D01*
X148717229Y-75411229D01*
X148724368Y-75409441D01*
X148731649Y-75408361D01*
X148739000Y-75408000D01*
X148889000Y-75408000D01*
X148896351Y-75408361D01*
G37*
G04 #@! TD.AperFunction*
G04 #@! TA.AperFunction,SMDPad,CuDef*
G36*
X149546351Y-75408361D02*
G01*
X149553632Y-75409441D01*
X149560771Y-75411229D01*
X149567701Y-75413709D01*
X149574355Y-75416856D01*
X149580668Y-75420640D01*
X149586579Y-75425024D01*
X149592033Y-75429967D01*
X149596976Y-75435421D01*
X149601360Y-75441332D01*
X149605144Y-75447645D01*
X149608291Y-75454299D01*
X149610771Y-75461229D01*
X149612559Y-75468368D01*
X149613639Y-75475649D01*
X149614000Y-75483000D01*
X149614000Y-76308000D01*
X149613639Y-76315351D01*
X149612559Y-76322632D01*
X149610771Y-76329771D01*
X149608291Y-76336701D01*
X149605144Y-76343355D01*
X149601360Y-76349668D01*
X149596976Y-76355579D01*
X149592033Y-76361033D01*
X149586579Y-76365976D01*
X149580668Y-76370360D01*
X149574355Y-76374144D01*
X149567701Y-76377291D01*
X149560771Y-76379771D01*
X149553632Y-76381559D01*
X149546351Y-76382639D01*
X149539000Y-76383000D01*
X149389000Y-76383000D01*
X149381649Y-76382639D01*
X149374368Y-76381559D01*
X149367229Y-76379771D01*
X149360299Y-76377291D01*
X149353645Y-76374144D01*
X149347332Y-76370360D01*
X149341421Y-76365976D01*
X149335967Y-76361033D01*
X149331024Y-76355579D01*
X149326640Y-76349668D01*
X149322856Y-76343355D01*
X149319709Y-76336701D01*
X149317229Y-76329771D01*
X149315441Y-76322632D01*
X149314361Y-76315351D01*
X149314000Y-76308000D01*
X149314000Y-75483000D01*
X149314361Y-75475649D01*
X149315441Y-75468368D01*
X149317229Y-75461229D01*
X149319709Y-75454299D01*
X149322856Y-75447645D01*
X149326640Y-75441332D01*
X149331024Y-75435421D01*
X149335967Y-75429967D01*
X149341421Y-75425024D01*
X149347332Y-75420640D01*
X149353645Y-75416856D01*
X149360299Y-75413709D01*
X149367229Y-75411229D01*
X149374368Y-75409441D01*
X149381649Y-75408361D01*
X149389000Y-75408000D01*
X149539000Y-75408000D01*
X149546351Y-75408361D01*
G37*
G04 #@! TD.AperFunction*
G04 #@! TA.AperFunction,SMDPad,CuDef*
G36*
X150196351Y-75408361D02*
G01*
X150203632Y-75409441D01*
X150210771Y-75411229D01*
X150217701Y-75413709D01*
X150224355Y-75416856D01*
X150230668Y-75420640D01*
X150236579Y-75425024D01*
X150242033Y-75429967D01*
X150246976Y-75435421D01*
X150251360Y-75441332D01*
X150255144Y-75447645D01*
X150258291Y-75454299D01*
X150260771Y-75461229D01*
X150262559Y-75468368D01*
X150263639Y-75475649D01*
X150264000Y-75483000D01*
X150264000Y-76308000D01*
X150263639Y-76315351D01*
X150262559Y-76322632D01*
X150260771Y-76329771D01*
X150258291Y-76336701D01*
X150255144Y-76343355D01*
X150251360Y-76349668D01*
X150246976Y-76355579D01*
X150242033Y-76361033D01*
X150236579Y-76365976D01*
X150230668Y-76370360D01*
X150224355Y-76374144D01*
X150217701Y-76377291D01*
X150210771Y-76379771D01*
X150203632Y-76381559D01*
X150196351Y-76382639D01*
X150189000Y-76383000D01*
X150039000Y-76383000D01*
X150031649Y-76382639D01*
X150024368Y-76381559D01*
X150017229Y-76379771D01*
X150010299Y-76377291D01*
X150003645Y-76374144D01*
X149997332Y-76370360D01*
X149991421Y-76365976D01*
X149985967Y-76361033D01*
X149981024Y-76355579D01*
X149976640Y-76349668D01*
X149972856Y-76343355D01*
X149969709Y-76336701D01*
X149967229Y-76329771D01*
X149965441Y-76322632D01*
X149964361Y-76315351D01*
X149964000Y-76308000D01*
X149964000Y-75483000D01*
X149964361Y-75475649D01*
X149965441Y-75468368D01*
X149967229Y-75461229D01*
X149969709Y-75454299D01*
X149972856Y-75447645D01*
X149976640Y-75441332D01*
X149981024Y-75435421D01*
X149985967Y-75429967D01*
X149991421Y-75425024D01*
X149997332Y-75420640D01*
X150003645Y-75416856D01*
X150010299Y-75413709D01*
X150017229Y-75411229D01*
X150024368Y-75409441D01*
X150031649Y-75408361D01*
X150039000Y-75408000D01*
X150189000Y-75408000D01*
X150196351Y-75408361D01*
G37*
G04 #@! TD.AperFunction*
G04 #@! TA.AperFunction,SMDPad,CuDef*
G36*
X150846351Y-75408361D02*
G01*
X150853632Y-75409441D01*
X150860771Y-75411229D01*
X150867701Y-75413709D01*
X150874355Y-75416856D01*
X150880668Y-75420640D01*
X150886579Y-75425024D01*
X150892033Y-75429967D01*
X150896976Y-75435421D01*
X150901360Y-75441332D01*
X150905144Y-75447645D01*
X150908291Y-75454299D01*
X150910771Y-75461229D01*
X150912559Y-75468368D01*
X150913639Y-75475649D01*
X150914000Y-75483000D01*
X150914000Y-76308000D01*
X150913639Y-76315351D01*
X150912559Y-76322632D01*
X150910771Y-76329771D01*
X150908291Y-76336701D01*
X150905144Y-76343355D01*
X150901360Y-76349668D01*
X150896976Y-76355579D01*
X150892033Y-76361033D01*
X150886579Y-76365976D01*
X150880668Y-76370360D01*
X150874355Y-76374144D01*
X150867701Y-76377291D01*
X150860771Y-76379771D01*
X150853632Y-76381559D01*
X150846351Y-76382639D01*
X150839000Y-76383000D01*
X150689000Y-76383000D01*
X150681649Y-76382639D01*
X150674368Y-76381559D01*
X150667229Y-76379771D01*
X150660299Y-76377291D01*
X150653645Y-76374144D01*
X150647332Y-76370360D01*
X150641421Y-76365976D01*
X150635967Y-76361033D01*
X150631024Y-76355579D01*
X150626640Y-76349668D01*
X150622856Y-76343355D01*
X150619709Y-76336701D01*
X150617229Y-76329771D01*
X150615441Y-76322632D01*
X150614361Y-76315351D01*
X150614000Y-76308000D01*
X150614000Y-75483000D01*
X150614361Y-75475649D01*
X150615441Y-75468368D01*
X150617229Y-75461229D01*
X150619709Y-75454299D01*
X150622856Y-75447645D01*
X150626640Y-75441332D01*
X150631024Y-75435421D01*
X150635967Y-75429967D01*
X150641421Y-75425024D01*
X150647332Y-75420640D01*
X150653645Y-75416856D01*
X150660299Y-75413709D01*
X150667229Y-75411229D01*
X150674368Y-75409441D01*
X150681649Y-75408361D01*
X150689000Y-75408000D01*
X150839000Y-75408000D01*
X150846351Y-75408361D01*
G37*
G04 #@! TD.AperFunction*
G04 #@! TA.AperFunction,SMDPad,CuDef*
G36*
X151496351Y-75408361D02*
G01*
X151503632Y-75409441D01*
X151510771Y-75411229D01*
X151517701Y-75413709D01*
X151524355Y-75416856D01*
X151530668Y-75420640D01*
X151536579Y-75425024D01*
X151542033Y-75429967D01*
X151546976Y-75435421D01*
X151551360Y-75441332D01*
X151555144Y-75447645D01*
X151558291Y-75454299D01*
X151560771Y-75461229D01*
X151562559Y-75468368D01*
X151563639Y-75475649D01*
X151564000Y-75483000D01*
X151564000Y-76308000D01*
X151563639Y-76315351D01*
X151562559Y-76322632D01*
X151560771Y-76329771D01*
X151558291Y-76336701D01*
X151555144Y-76343355D01*
X151551360Y-76349668D01*
X151546976Y-76355579D01*
X151542033Y-76361033D01*
X151536579Y-76365976D01*
X151530668Y-76370360D01*
X151524355Y-76374144D01*
X151517701Y-76377291D01*
X151510771Y-76379771D01*
X151503632Y-76381559D01*
X151496351Y-76382639D01*
X151489000Y-76383000D01*
X151339000Y-76383000D01*
X151331649Y-76382639D01*
X151324368Y-76381559D01*
X151317229Y-76379771D01*
X151310299Y-76377291D01*
X151303645Y-76374144D01*
X151297332Y-76370360D01*
X151291421Y-76365976D01*
X151285967Y-76361033D01*
X151281024Y-76355579D01*
X151276640Y-76349668D01*
X151272856Y-76343355D01*
X151269709Y-76336701D01*
X151267229Y-76329771D01*
X151265441Y-76322632D01*
X151264361Y-76315351D01*
X151264000Y-76308000D01*
X151264000Y-75483000D01*
X151264361Y-75475649D01*
X151265441Y-75468368D01*
X151267229Y-75461229D01*
X151269709Y-75454299D01*
X151272856Y-75447645D01*
X151276640Y-75441332D01*
X151281024Y-75435421D01*
X151285967Y-75429967D01*
X151291421Y-75425024D01*
X151297332Y-75420640D01*
X151303645Y-75416856D01*
X151310299Y-75413709D01*
X151317229Y-75411229D01*
X151324368Y-75409441D01*
X151331649Y-75408361D01*
X151339000Y-75408000D01*
X151489000Y-75408000D01*
X151496351Y-75408361D01*
G37*
G04 #@! TD.AperFunction*
G04 #@! TA.AperFunction,SMDPad,CuDef*
G36*
X152896351Y-74683361D02*
G01*
X152903632Y-74684441D01*
X152910771Y-74686229D01*
X152917701Y-74688709D01*
X152924355Y-74691856D01*
X152930668Y-74695640D01*
X152936579Y-74700024D01*
X152942033Y-74704967D01*
X152946976Y-74710421D01*
X152951360Y-74716332D01*
X152955144Y-74722645D01*
X152958291Y-74729299D01*
X152960771Y-74736229D01*
X152962559Y-74743368D01*
X152963639Y-74750649D01*
X152964000Y-74758000D01*
X152964000Y-74908000D01*
X152963639Y-74915351D01*
X152962559Y-74922632D01*
X152960771Y-74929771D01*
X152958291Y-74936701D01*
X152955144Y-74943355D01*
X152951360Y-74949668D01*
X152946976Y-74955579D01*
X152942033Y-74961033D01*
X152936579Y-74965976D01*
X152930668Y-74970360D01*
X152924355Y-74974144D01*
X152917701Y-74977291D01*
X152910771Y-74979771D01*
X152903632Y-74981559D01*
X152896351Y-74982639D01*
X152889000Y-74983000D01*
X152064000Y-74983000D01*
X152056649Y-74982639D01*
X152049368Y-74981559D01*
X152042229Y-74979771D01*
X152035299Y-74977291D01*
X152028645Y-74974144D01*
X152022332Y-74970360D01*
X152016421Y-74965976D01*
X152010967Y-74961033D01*
X152006024Y-74955579D01*
X152001640Y-74949668D01*
X151997856Y-74943355D01*
X151994709Y-74936701D01*
X151992229Y-74929771D01*
X151990441Y-74922632D01*
X151989361Y-74915351D01*
X151989000Y-74908000D01*
X151989000Y-74758000D01*
X151989361Y-74750649D01*
X151990441Y-74743368D01*
X151992229Y-74736229D01*
X151994709Y-74729299D01*
X151997856Y-74722645D01*
X152001640Y-74716332D01*
X152006024Y-74710421D01*
X152010967Y-74704967D01*
X152016421Y-74700024D01*
X152022332Y-74695640D01*
X152028645Y-74691856D01*
X152035299Y-74688709D01*
X152042229Y-74686229D01*
X152049368Y-74684441D01*
X152056649Y-74683361D01*
X152064000Y-74683000D01*
X152889000Y-74683000D01*
X152896351Y-74683361D01*
G37*
G04 #@! TD.AperFunction*
G04 #@! TA.AperFunction,SMDPad,CuDef*
G36*
X152896351Y-74033361D02*
G01*
X152903632Y-74034441D01*
X152910771Y-74036229D01*
X152917701Y-74038709D01*
X152924355Y-74041856D01*
X152930668Y-74045640D01*
X152936579Y-74050024D01*
X152942033Y-74054967D01*
X152946976Y-74060421D01*
X152951360Y-74066332D01*
X152955144Y-74072645D01*
X152958291Y-74079299D01*
X152960771Y-74086229D01*
X152962559Y-74093368D01*
X152963639Y-74100649D01*
X152964000Y-74108000D01*
X152964000Y-74258000D01*
X152963639Y-74265351D01*
X152962559Y-74272632D01*
X152960771Y-74279771D01*
X152958291Y-74286701D01*
X152955144Y-74293355D01*
X152951360Y-74299668D01*
X152946976Y-74305579D01*
X152942033Y-74311033D01*
X152936579Y-74315976D01*
X152930668Y-74320360D01*
X152924355Y-74324144D01*
X152917701Y-74327291D01*
X152910771Y-74329771D01*
X152903632Y-74331559D01*
X152896351Y-74332639D01*
X152889000Y-74333000D01*
X152064000Y-74333000D01*
X152056649Y-74332639D01*
X152049368Y-74331559D01*
X152042229Y-74329771D01*
X152035299Y-74327291D01*
X152028645Y-74324144D01*
X152022332Y-74320360D01*
X152016421Y-74315976D01*
X152010967Y-74311033D01*
X152006024Y-74305579D01*
X152001640Y-74299668D01*
X151997856Y-74293355D01*
X151994709Y-74286701D01*
X151992229Y-74279771D01*
X151990441Y-74272632D01*
X151989361Y-74265351D01*
X151989000Y-74258000D01*
X151989000Y-74108000D01*
X151989361Y-74100649D01*
X151990441Y-74093368D01*
X151992229Y-74086229D01*
X151994709Y-74079299D01*
X151997856Y-74072645D01*
X152001640Y-74066332D01*
X152006024Y-74060421D01*
X152010967Y-74054967D01*
X152016421Y-74050024D01*
X152022332Y-74045640D01*
X152028645Y-74041856D01*
X152035299Y-74038709D01*
X152042229Y-74036229D01*
X152049368Y-74034441D01*
X152056649Y-74033361D01*
X152064000Y-74033000D01*
X152889000Y-74033000D01*
X152896351Y-74033361D01*
G37*
G04 #@! TD.AperFunction*
G04 #@! TA.AperFunction,SMDPad,CuDef*
G36*
X152896351Y-73383361D02*
G01*
X152903632Y-73384441D01*
X152910771Y-73386229D01*
X152917701Y-73388709D01*
X152924355Y-73391856D01*
X152930668Y-73395640D01*
X152936579Y-73400024D01*
X152942033Y-73404967D01*
X152946976Y-73410421D01*
X152951360Y-73416332D01*
X152955144Y-73422645D01*
X152958291Y-73429299D01*
X152960771Y-73436229D01*
X152962559Y-73443368D01*
X152963639Y-73450649D01*
X152964000Y-73458000D01*
X152964000Y-73608000D01*
X152963639Y-73615351D01*
X152962559Y-73622632D01*
X152960771Y-73629771D01*
X152958291Y-73636701D01*
X152955144Y-73643355D01*
X152951360Y-73649668D01*
X152946976Y-73655579D01*
X152942033Y-73661033D01*
X152936579Y-73665976D01*
X152930668Y-73670360D01*
X152924355Y-73674144D01*
X152917701Y-73677291D01*
X152910771Y-73679771D01*
X152903632Y-73681559D01*
X152896351Y-73682639D01*
X152889000Y-73683000D01*
X152064000Y-73683000D01*
X152056649Y-73682639D01*
X152049368Y-73681559D01*
X152042229Y-73679771D01*
X152035299Y-73677291D01*
X152028645Y-73674144D01*
X152022332Y-73670360D01*
X152016421Y-73665976D01*
X152010967Y-73661033D01*
X152006024Y-73655579D01*
X152001640Y-73649668D01*
X151997856Y-73643355D01*
X151994709Y-73636701D01*
X151992229Y-73629771D01*
X151990441Y-73622632D01*
X151989361Y-73615351D01*
X151989000Y-73608000D01*
X151989000Y-73458000D01*
X151989361Y-73450649D01*
X151990441Y-73443368D01*
X151992229Y-73436229D01*
X151994709Y-73429299D01*
X151997856Y-73422645D01*
X152001640Y-73416332D01*
X152006024Y-73410421D01*
X152010967Y-73404967D01*
X152016421Y-73400024D01*
X152022332Y-73395640D01*
X152028645Y-73391856D01*
X152035299Y-73388709D01*
X152042229Y-73386229D01*
X152049368Y-73384441D01*
X152056649Y-73383361D01*
X152064000Y-73383000D01*
X152889000Y-73383000D01*
X152896351Y-73383361D01*
G37*
G04 #@! TD.AperFunction*
G04 #@! TA.AperFunction,SMDPad,CuDef*
G36*
X152896351Y-72733361D02*
G01*
X152903632Y-72734441D01*
X152910771Y-72736229D01*
X152917701Y-72738709D01*
X152924355Y-72741856D01*
X152930668Y-72745640D01*
X152936579Y-72750024D01*
X152942033Y-72754967D01*
X152946976Y-72760421D01*
X152951360Y-72766332D01*
X152955144Y-72772645D01*
X152958291Y-72779299D01*
X152960771Y-72786229D01*
X152962559Y-72793368D01*
X152963639Y-72800649D01*
X152964000Y-72808000D01*
X152964000Y-72958000D01*
X152963639Y-72965351D01*
X152962559Y-72972632D01*
X152960771Y-72979771D01*
X152958291Y-72986701D01*
X152955144Y-72993355D01*
X152951360Y-72999668D01*
X152946976Y-73005579D01*
X152942033Y-73011033D01*
X152936579Y-73015976D01*
X152930668Y-73020360D01*
X152924355Y-73024144D01*
X152917701Y-73027291D01*
X152910771Y-73029771D01*
X152903632Y-73031559D01*
X152896351Y-73032639D01*
X152889000Y-73033000D01*
X152064000Y-73033000D01*
X152056649Y-73032639D01*
X152049368Y-73031559D01*
X152042229Y-73029771D01*
X152035299Y-73027291D01*
X152028645Y-73024144D01*
X152022332Y-73020360D01*
X152016421Y-73015976D01*
X152010967Y-73011033D01*
X152006024Y-73005579D01*
X152001640Y-72999668D01*
X151997856Y-72993355D01*
X151994709Y-72986701D01*
X151992229Y-72979771D01*
X151990441Y-72972632D01*
X151989361Y-72965351D01*
X151989000Y-72958000D01*
X151989000Y-72808000D01*
X151989361Y-72800649D01*
X151990441Y-72793368D01*
X151992229Y-72786229D01*
X151994709Y-72779299D01*
X151997856Y-72772645D01*
X152001640Y-72766332D01*
X152006024Y-72760421D01*
X152010967Y-72754967D01*
X152016421Y-72750024D01*
X152022332Y-72745640D01*
X152028645Y-72741856D01*
X152035299Y-72738709D01*
X152042229Y-72736229D01*
X152049368Y-72734441D01*
X152056649Y-72733361D01*
X152064000Y-72733000D01*
X152889000Y-72733000D01*
X152896351Y-72733361D01*
G37*
G04 #@! TD.AperFunction*
G04 #@! TA.AperFunction,SMDPad,CuDef*
G36*
X152896351Y-72083361D02*
G01*
X152903632Y-72084441D01*
X152910771Y-72086229D01*
X152917701Y-72088709D01*
X152924355Y-72091856D01*
X152930668Y-72095640D01*
X152936579Y-72100024D01*
X152942033Y-72104967D01*
X152946976Y-72110421D01*
X152951360Y-72116332D01*
X152955144Y-72122645D01*
X152958291Y-72129299D01*
X152960771Y-72136229D01*
X152962559Y-72143368D01*
X152963639Y-72150649D01*
X152964000Y-72158000D01*
X152964000Y-72308000D01*
X152963639Y-72315351D01*
X152962559Y-72322632D01*
X152960771Y-72329771D01*
X152958291Y-72336701D01*
X152955144Y-72343355D01*
X152951360Y-72349668D01*
X152946976Y-72355579D01*
X152942033Y-72361033D01*
X152936579Y-72365976D01*
X152930668Y-72370360D01*
X152924355Y-72374144D01*
X152917701Y-72377291D01*
X152910771Y-72379771D01*
X152903632Y-72381559D01*
X152896351Y-72382639D01*
X152889000Y-72383000D01*
X152064000Y-72383000D01*
X152056649Y-72382639D01*
X152049368Y-72381559D01*
X152042229Y-72379771D01*
X152035299Y-72377291D01*
X152028645Y-72374144D01*
X152022332Y-72370360D01*
X152016421Y-72365976D01*
X152010967Y-72361033D01*
X152006024Y-72355579D01*
X152001640Y-72349668D01*
X151997856Y-72343355D01*
X151994709Y-72336701D01*
X151992229Y-72329771D01*
X151990441Y-72322632D01*
X151989361Y-72315351D01*
X151989000Y-72308000D01*
X151989000Y-72158000D01*
X151989361Y-72150649D01*
X151990441Y-72143368D01*
X151992229Y-72136229D01*
X151994709Y-72129299D01*
X151997856Y-72122645D01*
X152001640Y-72116332D01*
X152006024Y-72110421D01*
X152010967Y-72104967D01*
X152016421Y-72100024D01*
X152022332Y-72095640D01*
X152028645Y-72091856D01*
X152035299Y-72088709D01*
X152042229Y-72086229D01*
X152049368Y-72084441D01*
X152056649Y-72083361D01*
X152064000Y-72083000D01*
X152889000Y-72083000D01*
X152896351Y-72083361D01*
G37*
G04 #@! TD.AperFunction*
G04 #@! TA.AperFunction,SMDPad,CuDef*
G36*
X151496351Y-70683361D02*
G01*
X151503632Y-70684441D01*
X151510771Y-70686229D01*
X151517701Y-70688709D01*
X151524355Y-70691856D01*
X151530668Y-70695640D01*
X151536579Y-70700024D01*
X151542033Y-70704967D01*
X151546976Y-70710421D01*
X151551360Y-70716332D01*
X151555144Y-70722645D01*
X151558291Y-70729299D01*
X151560771Y-70736229D01*
X151562559Y-70743368D01*
X151563639Y-70750649D01*
X151564000Y-70758000D01*
X151564000Y-71583000D01*
X151563639Y-71590351D01*
X151562559Y-71597632D01*
X151560771Y-71604771D01*
X151558291Y-71611701D01*
X151555144Y-71618355D01*
X151551360Y-71624668D01*
X151546976Y-71630579D01*
X151542033Y-71636033D01*
X151536579Y-71640976D01*
X151530668Y-71645360D01*
X151524355Y-71649144D01*
X151517701Y-71652291D01*
X151510771Y-71654771D01*
X151503632Y-71656559D01*
X151496351Y-71657639D01*
X151489000Y-71658000D01*
X151339000Y-71658000D01*
X151331649Y-71657639D01*
X151324368Y-71656559D01*
X151317229Y-71654771D01*
X151310299Y-71652291D01*
X151303645Y-71649144D01*
X151297332Y-71645360D01*
X151291421Y-71640976D01*
X151285967Y-71636033D01*
X151281024Y-71630579D01*
X151276640Y-71624668D01*
X151272856Y-71618355D01*
X151269709Y-71611701D01*
X151267229Y-71604771D01*
X151265441Y-71597632D01*
X151264361Y-71590351D01*
X151264000Y-71583000D01*
X151264000Y-70758000D01*
X151264361Y-70750649D01*
X151265441Y-70743368D01*
X151267229Y-70736229D01*
X151269709Y-70729299D01*
X151272856Y-70722645D01*
X151276640Y-70716332D01*
X151281024Y-70710421D01*
X151285967Y-70704967D01*
X151291421Y-70700024D01*
X151297332Y-70695640D01*
X151303645Y-70691856D01*
X151310299Y-70688709D01*
X151317229Y-70686229D01*
X151324368Y-70684441D01*
X151331649Y-70683361D01*
X151339000Y-70683000D01*
X151489000Y-70683000D01*
X151496351Y-70683361D01*
G37*
G04 #@! TD.AperFunction*
G04 #@! TA.AperFunction,SMDPad,CuDef*
G36*
X150846351Y-70683361D02*
G01*
X150853632Y-70684441D01*
X150860771Y-70686229D01*
X150867701Y-70688709D01*
X150874355Y-70691856D01*
X150880668Y-70695640D01*
X150886579Y-70700024D01*
X150892033Y-70704967D01*
X150896976Y-70710421D01*
X150901360Y-70716332D01*
X150905144Y-70722645D01*
X150908291Y-70729299D01*
X150910771Y-70736229D01*
X150912559Y-70743368D01*
X150913639Y-70750649D01*
X150914000Y-70758000D01*
X150914000Y-71583000D01*
X150913639Y-71590351D01*
X150912559Y-71597632D01*
X150910771Y-71604771D01*
X150908291Y-71611701D01*
X150905144Y-71618355D01*
X150901360Y-71624668D01*
X150896976Y-71630579D01*
X150892033Y-71636033D01*
X150886579Y-71640976D01*
X150880668Y-71645360D01*
X150874355Y-71649144D01*
X150867701Y-71652291D01*
X150860771Y-71654771D01*
X150853632Y-71656559D01*
X150846351Y-71657639D01*
X150839000Y-71658000D01*
X150689000Y-71658000D01*
X150681649Y-71657639D01*
X150674368Y-71656559D01*
X150667229Y-71654771D01*
X150660299Y-71652291D01*
X150653645Y-71649144D01*
X150647332Y-71645360D01*
X150641421Y-71640976D01*
X150635967Y-71636033D01*
X150631024Y-71630579D01*
X150626640Y-71624668D01*
X150622856Y-71618355D01*
X150619709Y-71611701D01*
X150617229Y-71604771D01*
X150615441Y-71597632D01*
X150614361Y-71590351D01*
X150614000Y-71583000D01*
X150614000Y-70758000D01*
X150614361Y-70750649D01*
X150615441Y-70743368D01*
X150617229Y-70736229D01*
X150619709Y-70729299D01*
X150622856Y-70722645D01*
X150626640Y-70716332D01*
X150631024Y-70710421D01*
X150635967Y-70704967D01*
X150641421Y-70700024D01*
X150647332Y-70695640D01*
X150653645Y-70691856D01*
X150660299Y-70688709D01*
X150667229Y-70686229D01*
X150674368Y-70684441D01*
X150681649Y-70683361D01*
X150689000Y-70683000D01*
X150839000Y-70683000D01*
X150846351Y-70683361D01*
G37*
G04 #@! TD.AperFunction*
G04 #@! TA.AperFunction,SMDPad,CuDef*
G36*
X150196351Y-70683361D02*
G01*
X150203632Y-70684441D01*
X150210771Y-70686229D01*
X150217701Y-70688709D01*
X150224355Y-70691856D01*
X150230668Y-70695640D01*
X150236579Y-70700024D01*
X150242033Y-70704967D01*
X150246976Y-70710421D01*
X150251360Y-70716332D01*
X150255144Y-70722645D01*
X150258291Y-70729299D01*
X150260771Y-70736229D01*
X150262559Y-70743368D01*
X150263639Y-70750649D01*
X150264000Y-70758000D01*
X150264000Y-71583000D01*
X150263639Y-71590351D01*
X150262559Y-71597632D01*
X150260771Y-71604771D01*
X150258291Y-71611701D01*
X150255144Y-71618355D01*
X150251360Y-71624668D01*
X150246976Y-71630579D01*
X150242033Y-71636033D01*
X150236579Y-71640976D01*
X150230668Y-71645360D01*
X150224355Y-71649144D01*
X150217701Y-71652291D01*
X150210771Y-71654771D01*
X150203632Y-71656559D01*
X150196351Y-71657639D01*
X150189000Y-71658000D01*
X150039000Y-71658000D01*
X150031649Y-71657639D01*
X150024368Y-71656559D01*
X150017229Y-71654771D01*
X150010299Y-71652291D01*
X150003645Y-71649144D01*
X149997332Y-71645360D01*
X149991421Y-71640976D01*
X149985967Y-71636033D01*
X149981024Y-71630579D01*
X149976640Y-71624668D01*
X149972856Y-71618355D01*
X149969709Y-71611701D01*
X149967229Y-71604771D01*
X149965441Y-71597632D01*
X149964361Y-71590351D01*
X149964000Y-71583000D01*
X149964000Y-70758000D01*
X149964361Y-70750649D01*
X149965441Y-70743368D01*
X149967229Y-70736229D01*
X149969709Y-70729299D01*
X149972856Y-70722645D01*
X149976640Y-70716332D01*
X149981024Y-70710421D01*
X149985967Y-70704967D01*
X149991421Y-70700024D01*
X149997332Y-70695640D01*
X150003645Y-70691856D01*
X150010299Y-70688709D01*
X150017229Y-70686229D01*
X150024368Y-70684441D01*
X150031649Y-70683361D01*
X150039000Y-70683000D01*
X150189000Y-70683000D01*
X150196351Y-70683361D01*
G37*
G04 #@! TD.AperFunction*
G04 #@! TA.AperFunction,SMDPad,CuDef*
G36*
X149546351Y-70683361D02*
G01*
X149553632Y-70684441D01*
X149560771Y-70686229D01*
X149567701Y-70688709D01*
X149574355Y-70691856D01*
X149580668Y-70695640D01*
X149586579Y-70700024D01*
X149592033Y-70704967D01*
X149596976Y-70710421D01*
X149601360Y-70716332D01*
X149605144Y-70722645D01*
X149608291Y-70729299D01*
X149610771Y-70736229D01*
X149612559Y-70743368D01*
X149613639Y-70750649D01*
X149614000Y-70758000D01*
X149614000Y-71583000D01*
X149613639Y-71590351D01*
X149612559Y-71597632D01*
X149610771Y-71604771D01*
X149608291Y-71611701D01*
X149605144Y-71618355D01*
X149601360Y-71624668D01*
X149596976Y-71630579D01*
X149592033Y-71636033D01*
X149586579Y-71640976D01*
X149580668Y-71645360D01*
X149574355Y-71649144D01*
X149567701Y-71652291D01*
X149560771Y-71654771D01*
X149553632Y-71656559D01*
X149546351Y-71657639D01*
X149539000Y-71658000D01*
X149389000Y-71658000D01*
X149381649Y-71657639D01*
X149374368Y-71656559D01*
X149367229Y-71654771D01*
X149360299Y-71652291D01*
X149353645Y-71649144D01*
X149347332Y-71645360D01*
X149341421Y-71640976D01*
X149335967Y-71636033D01*
X149331024Y-71630579D01*
X149326640Y-71624668D01*
X149322856Y-71618355D01*
X149319709Y-71611701D01*
X149317229Y-71604771D01*
X149315441Y-71597632D01*
X149314361Y-71590351D01*
X149314000Y-71583000D01*
X149314000Y-70758000D01*
X149314361Y-70750649D01*
X149315441Y-70743368D01*
X149317229Y-70736229D01*
X149319709Y-70729299D01*
X149322856Y-70722645D01*
X149326640Y-70716332D01*
X149331024Y-70710421D01*
X149335967Y-70704967D01*
X149341421Y-70700024D01*
X149347332Y-70695640D01*
X149353645Y-70691856D01*
X149360299Y-70688709D01*
X149367229Y-70686229D01*
X149374368Y-70684441D01*
X149381649Y-70683361D01*
X149389000Y-70683000D01*
X149539000Y-70683000D01*
X149546351Y-70683361D01*
G37*
G04 #@! TD.AperFunction*
G04 #@! TA.AperFunction,SMDPad,CuDef*
G36*
X148896351Y-70683361D02*
G01*
X148903632Y-70684441D01*
X148910771Y-70686229D01*
X148917701Y-70688709D01*
X148924355Y-70691856D01*
X148930668Y-70695640D01*
X148936579Y-70700024D01*
X148942033Y-70704967D01*
X148946976Y-70710421D01*
X148951360Y-70716332D01*
X148955144Y-70722645D01*
X148958291Y-70729299D01*
X148960771Y-70736229D01*
X148962559Y-70743368D01*
X148963639Y-70750649D01*
X148964000Y-70758000D01*
X148964000Y-71583000D01*
X148963639Y-71590351D01*
X148962559Y-71597632D01*
X148960771Y-71604771D01*
X148958291Y-71611701D01*
X148955144Y-71618355D01*
X148951360Y-71624668D01*
X148946976Y-71630579D01*
X148942033Y-71636033D01*
X148936579Y-71640976D01*
X148930668Y-71645360D01*
X148924355Y-71649144D01*
X148917701Y-71652291D01*
X148910771Y-71654771D01*
X148903632Y-71656559D01*
X148896351Y-71657639D01*
X148889000Y-71658000D01*
X148739000Y-71658000D01*
X148731649Y-71657639D01*
X148724368Y-71656559D01*
X148717229Y-71654771D01*
X148710299Y-71652291D01*
X148703645Y-71649144D01*
X148697332Y-71645360D01*
X148691421Y-71640976D01*
X148685967Y-71636033D01*
X148681024Y-71630579D01*
X148676640Y-71624668D01*
X148672856Y-71618355D01*
X148669709Y-71611701D01*
X148667229Y-71604771D01*
X148665441Y-71597632D01*
X148664361Y-71590351D01*
X148664000Y-71583000D01*
X148664000Y-70758000D01*
X148664361Y-70750649D01*
X148665441Y-70743368D01*
X148667229Y-70736229D01*
X148669709Y-70729299D01*
X148672856Y-70722645D01*
X148676640Y-70716332D01*
X148681024Y-70710421D01*
X148685967Y-70704967D01*
X148691421Y-70700024D01*
X148697332Y-70695640D01*
X148703645Y-70691856D01*
X148710299Y-70688709D01*
X148717229Y-70686229D01*
X148724368Y-70684441D01*
X148731649Y-70683361D01*
X148739000Y-70683000D01*
X148889000Y-70683000D01*
X148896351Y-70683361D01*
G37*
G04 #@! TD.AperFunction*
D14*
X152717500Y-70993000D03*
X148907500Y-77279500D03*
X152400000Y-78359000D03*
D15*
X151414000Y-71193000D02*
X151414000Y-72233000D01*
X151414000Y-72233000D02*
X150114000Y-73533000D01*
X152454000Y-72233000D02*
X151414000Y-72233000D01*
X143792000Y-72672000D02*
X144272000Y-72672000D01*
X142240000Y-71120000D02*
X143792000Y-72672000D01*
X152454000Y-72233000D02*
X152454000Y-71256500D01*
X152454000Y-71256500D02*
X152717500Y-70993000D01*
X151414000Y-74833000D02*
X150114000Y-73533000D01*
X151414000Y-75873000D02*
X151414000Y-74833000D01*
X149098000Y-78426000D02*
X149098000Y-77470000D01*
X149098000Y-77470000D02*
X148907500Y-77279500D01*
X154940000Y-78740000D02*
X154940000Y-76200000D01*
X152454000Y-74833000D02*
X152454000Y-78305000D01*
X152454000Y-78305000D02*
X152400000Y-78359000D01*
X153814999Y-74200001D02*
X153814999Y-80154999D01*
X154140001Y-80480001D02*
X154940000Y-81280000D01*
X153814999Y-80154999D02*
X154140001Y-80480001D01*
X153147998Y-73533000D02*
X153814999Y-74200001D01*
X152454000Y-73533000D02*
X153147998Y-73533000D01*
X153254001Y-82134001D02*
X154940000Y-83820000D01*
X153254001Y-74397999D02*
X153254001Y-82134001D01*
X153189001Y-74332999D02*
X153254001Y-74397999D01*
X152603999Y-74332999D02*
X153189001Y-74332999D01*
X152454000Y-74183000D02*
X152603999Y-74332999D01*
X156065001Y-85234999D02*
X154940000Y-86360000D01*
X156065001Y-72880001D02*
X156065001Y-85234999D01*
X153762000Y-72883000D02*
X154110001Y-72534999D01*
X155719999Y-72534999D02*
X156065001Y-72880001D01*
X154110001Y-72534999D02*
X155719999Y-72534999D01*
X152454000Y-72883000D02*
X153762000Y-72883000D01*
X143002000Y-74422000D02*
X142240000Y-73660000D01*
X144272000Y-74422000D02*
X143002000Y-74422000D01*
X145224500Y-72185500D02*
X144159000Y-71120000D01*
X145224500Y-73944500D02*
X145224500Y-72185500D01*
X144747000Y-74422000D02*
X145224500Y-73944500D01*
X144272000Y-74422000D02*
X144747000Y-74422000D01*
X144484010Y-70319990D02*
X149315990Y-70319990D01*
X149315990Y-70319990D02*
X149464000Y-70468000D01*
X144159000Y-70645000D02*
X144484010Y-70319990D01*
X149464000Y-70468000D02*
X149464000Y-71193000D01*
X144159000Y-71120000D02*
X144159000Y-70645000D01*
X147563000Y-72672000D02*
X147774000Y-72883000D01*
X147774000Y-72658000D02*
X147774000Y-72233000D01*
X147760000Y-72672000D02*
X147774000Y-72658000D01*
X147348000Y-72672000D02*
X147760000Y-72672000D01*
X147348000Y-72672000D02*
X147563000Y-72672000D01*
X146050000Y-72672000D02*
X147348000Y-72672000D01*
X146289000Y-74183000D02*
X146050000Y-74422000D01*
X147774000Y-74183000D02*
X146289000Y-74183000D01*
X147774000Y-73533000D02*
X147774000Y-74183000D01*
X142822000Y-76782000D02*
X142240000Y-76200000D01*
X145034000Y-76782000D02*
X142822000Y-76782000D01*
X147774000Y-75258000D02*
X147774000Y-74833000D01*
X146250000Y-76782000D02*
X147774000Y-75258000D01*
X145034000Y-76782000D02*
X146250000Y-76782000D01*
X152347010Y-83528500D02*
X152017500Y-83858010D01*
X152347010Y-81035100D02*
X152347010Y-83528500D01*
X151574500Y-80262590D02*
X152347010Y-81035100D01*
X151574500Y-77435680D02*
X151574500Y-80262590D01*
X150764000Y-76625180D02*
X151574500Y-77435680D01*
X150764000Y-75873000D02*
X150764000Y-76625180D01*
X145138020Y-84308020D02*
X145034000Y-84204000D01*
X151358390Y-84308020D02*
X145138020Y-84308020D01*
X145034000Y-84204000D02*
X145034000Y-83454000D01*
X151808400Y-83858010D02*
X151358390Y-84308020D01*
X152017500Y-83858010D02*
X151808400Y-83858010D01*
X142606000Y-83454000D02*
X142240000Y-83820000D01*
X145034000Y-83454000D02*
X142606000Y-83454000D01*
X150114000Y-75873000D02*
X150114000Y-76611590D01*
X150114000Y-76611590D02*
X150876000Y-77373590D01*
X150876000Y-77373590D02*
X150876000Y-80200500D01*
X151497000Y-80821500D02*
X151497000Y-83058000D01*
X150876000Y-80200500D02*
X151497000Y-80821500D01*
X146034000Y-82154000D02*
X145034000Y-82154000D01*
X151171990Y-83858010D02*
X147738010Y-83858010D01*
X151497000Y-83533000D02*
X151171990Y-83858010D01*
X147738010Y-83858010D02*
X146034000Y-82154000D01*
X151497000Y-83058000D02*
X151497000Y-83533000D01*
X143114000Y-82154000D02*
X142240000Y-81280000D01*
X145034000Y-82154000D02*
X143114000Y-82154000D01*
X142748000Y-78232000D02*
X142240000Y-78740000D01*
X145034000Y-78232000D02*
X142748000Y-78232000D01*
X150098000Y-81026000D02*
X149098000Y-81026000D01*
X150173001Y-80950999D02*
X150098000Y-81026000D01*
X150173001Y-77307001D02*
X150173001Y-80950999D01*
X149464000Y-76598000D02*
X150173001Y-77307001D01*
X149464000Y-75873000D02*
X149464000Y-76598000D01*
X149222000Y-83058000D02*
X149747000Y-83058000D01*
X149098000Y-82934000D02*
X149222000Y-83058000D01*
X149098000Y-81026000D02*
X149098000Y-82934000D01*
X145034000Y-78907000D02*
X145034000Y-78157000D01*
X147153000Y-81026000D02*
X145034000Y-78907000D01*
X149098000Y-81026000D02*
X147153000Y-81026000D01*
X148022999Y-79650999D02*
X148098000Y-79726000D01*
X148098000Y-79726000D02*
X149098000Y-79726000D01*
X148022999Y-76239001D02*
X148022999Y-79650999D01*
X148389000Y-75873000D02*
X148022999Y-76239001D01*
X148814000Y-75873000D02*
X148389000Y-75873000D01*
X148741000Y-71120000D02*
X148814000Y-71193000D01*
X145909000Y-71120000D02*
X148741000Y-71120000D01*
D16*
G36*
X153541312Y-83496114D02*
G01*
X153505000Y-83678665D01*
X153505000Y-83961335D01*
X153560147Y-84238574D01*
X153668320Y-84499727D01*
X153825363Y-84734759D01*
X154025241Y-84934637D01*
X154257759Y-85090000D01*
X154025241Y-85245363D01*
X153825363Y-85445241D01*
X153668320Y-85680273D01*
X153560147Y-85941426D01*
X153505000Y-86218665D01*
X153505000Y-86501335D01*
X153560147Y-86778574D01*
X153668320Y-87039727D01*
X153825363Y-87274759D01*
X154025241Y-87474637D01*
X154257759Y-87630000D01*
X154025241Y-87785363D01*
X153825363Y-87985241D01*
X153668320Y-88220273D01*
X153560147Y-88481426D01*
X153505000Y-88758665D01*
X153505000Y-89041335D01*
X153560147Y-89318574D01*
X153668320Y-89579727D01*
X153774743Y-89739000D01*
X143405257Y-89739000D01*
X143511680Y-89579727D01*
X143619853Y-89318574D01*
X143675000Y-89041335D01*
X143675000Y-88758665D01*
X143619853Y-88481426D01*
X143511680Y-88220273D01*
X143354637Y-87985241D01*
X143154759Y-87785363D01*
X142919727Y-87628320D01*
X142909135Y-87623933D01*
X143095131Y-87512385D01*
X143303519Y-87323414D01*
X143471037Y-87097420D01*
X143591246Y-86843087D01*
X143631904Y-86709039D01*
X143509915Y-86487000D01*
X142367000Y-86487000D01*
X142367000Y-86507000D01*
X142113000Y-86507000D01*
X142113000Y-86487000D01*
X142093000Y-86487000D01*
X142093000Y-86233000D01*
X142113000Y-86233000D01*
X142113000Y-86213000D01*
X142367000Y-86213000D01*
X142367000Y-86233000D01*
X143509915Y-86233000D01*
X143631904Y-86010961D01*
X143591246Y-85876913D01*
X143471037Y-85622580D01*
X143303519Y-85396586D01*
X143095131Y-85207615D01*
X142909135Y-85096067D01*
X142919727Y-85091680D01*
X143154759Y-84934637D01*
X143354637Y-84734759D01*
X143511680Y-84499727D01*
X143619853Y-84238574D01*
X143624741Y-84214000D01*
X143702954Y-84214000D01*
X143753463Y-84308494D01*
X143832815Y-84405185D01*
X143929506Y-84484537D01*
X144039820Y-84543502D01*
X144159518Y-84579812D01*
X144284000Y-84592072D01*
X144379674Y-84592072D01*
X144399026Y-84628276D01*
X144434253Y-84671200D01*
X144493999Y-84744001D01*
X144523001Y-84767802D01*
X144574219Y-84819021D01*
X144598019Y-84848021D01*
X144713744Y-84942994D01*
X144845773Y-85013566D01*
X144989034Y-85057023D01*
X145100687Y-85068020D01*
X145100697Y-85068020D01*
X145138019Y-85071696D01*
X145175342Y-85068020D01*
X151321068Y-85068020D01*
X151358390Y-85071696D01*
X151395712Y-85068020D01*
X151395723Y-85068020D01*
X151507376Y-85057023D01*
X151650637Y-85013566D01*
X151782666Y-84942994D01*
X151898391Y-84848021D01*
X151922194Y-84819017D01*
X152130670Y-84610541D01*
X152166486Y-84607013D01*
X152309747Y-84563556D01*
X152441776Y-84492984D01*
X152557501Y-84398011D01*
X152581304Y-84369007D01*
X152858007Y-84092304D01*
X152887011Y-84068501D01*
X152981984Y-83952776D01*
X153052556Y-83820747D01*
X153096013Y-83677486D01*
X153107010Y-83565833D01*
X153110687Y-83528500D01*
X153107010Y-83491167D01*
X153107010Y-83061811D01*
X153541312Y-83496114D01*
G37*
X153541312Y-83496114D02*
X153505000Y-83678665D01*
X153505000Y-83961335D01*
X153560147Y-84238574D01*
X153668320Y-84499727D01*
X153825363Y-84734759D01*
X154025241Y-84934637D01*
X154257759Y-85090000D01*
X154025241Y-85245363D01*
X153825363Y-85445241D01*
X153668320Y-85680273D01*
X153560147Y-85941426D01*
X153505000Y-86218665D01*
X153505000Y-86501335D01*
X153560147Y-86778574D01*
X153668320Y-87039727D01*
X153825363Y-87274759D01*
X154025241Y-87474637D01*
X154257759Y-87630000D01*
X154025241Y-87785363D01*
X153825363Y-87985241D01*
X153668320Y-88220273D01*
X153560147Y-88481426D01*
X153505000Y-88758665D01*
X153505000Y-89041335D01*
X153560147Y-89318574D01*
X153668320Y-89579727D01*
X153774743Y-89739000D01*
X143405257Y-89739000D01*
X143511680Y-89579727D01*
X143619853Y-89318574D01*
X143675000Y-89041335D01*
X143675000Y-88758665D01*
X143619853Y-88481426D01*
X143511680Y-88220273D01*
X143354637Y-87985241D01*
X143154759Y-87785363D01*
X142919727Y-87628320D01*
X142909135Y-87623933D01*
X143095131Y-87512385D01*
X143303519Y-87323414D01*
X143471037Y-87097420D01*
X143591246Y-86843087D01*
X143631904Y-86709039D01*
X143509915Y-86487000D01*
X142367000Y-86487000D01*
X142367000Y-86507000D01*
X142113000Y-86507000D01*
X142113000Y-86487000D01*
X142093000Y-86487000D01*
X142093000Y-86233000D01*
X142113000Y-86233000D01*
X142113000Y-86213000D01*
X142367000Y-86213000D01*
X142367000Y-86233000D01*
X143509915Y-86233000D01*
X143631904Y-86010961D01*
X143591246Y-85876913D01*
X143471037Y-85622580D01*
X143303519Y-85396586D01*
X143095131Y-85207615D01*
X142909135Y-85096067D01*
X142919727Y-85091680D01*
X143154759Y-84934637D01*
X143354637Y-84734759D01*
X143511680Y-84499727D01*
X143619853Y-84238574D01*
X143624741Y-84214000D01*
X143702954Y-84214000D01*
X143753463Y-84308494D01*
X143832815Y-84405185D01*
X143929506Y-84484537D01*
X144039820Y-84543502D01*
X144159518Y-84579812D01*
X144284000Y-84592072D01*
X144379674Y-84592072D01*
X144399026Y-84628276D01*
X144434253Y-84671200D01*
X144493999Y-84744001D01*
X144523001Y-84767802D01*
X144574219Y-84819021D01*
X144598019Y-84848021D01*
X144713744Y-84942994D01*
X144845773Y-85013566D01*
X144989034Y-85057023D01*
X145100687Y-85068020D01*
X145100697Y-85068020D01*
X145138019Y-85071696D01*
X145175342Y-85068020D01*
X151321068Y-85068020D01*
X151358390Y-85071696D01*
X151395712Y-85068020D01*
X151395723Y-85068020D01*
X151507376Y-85057023D01*
X151650637Y-85013566D01*
X151782666Y-84942994D01*
X151898391Y-84848021D01*
X151922194Y-84819017D01*
X152130670Y-84610541D01*
X152166486Y-84607013D01*
X152309747Y-84563556D01*
X152441776Y-84492984D01*
X152557501Y-84398011D01*
X152581304Y-84369007D01*
X152858007Y-84092304D01*
X152887011Y-84068501D01*
X152981984Y-83952776D01*
X153052556Y-83820747D01*
X153096013Y-83677486D01*
X153107010Y-83565833D01*
X153110687Y-83528500D01*
X153107010Y-83491167D01*
X153107010Y-83061811D01*
X153541312Y-83496114D01*
G36*
X148829026Y-77022276D02*
G01*
X148900201Y-77109002D01*
X148924000Y-77138001D01*
X148952998Y-77161799D01*
X149082199Y-77291000D01*
X148970998Y-77291000D01*
X148970998Y-77449748D01*
X148812250Y-77291000D01*
X148782999Y-77290806D01*
X148782999Y-77021072D01*
X148828382Y-77021072D01*
X148829026Y-77022276D01*
G37*
X148829026Y-77022276D02*
X148900201Y-77109002D01*
X148924000Y-77138001D01*
X148952998Y-77161799D01*
X149082199Y-77291000D01*
X148970998Y-77291000D01*
X148970998Y-77449748D01*
X148812250Y-77291000D01*
X148782999Y-77290806D01*
X148782999Y-77021072D01*
X148828382Y-77021072D01*
X148829026Y-77022276D01*
G36*
X150241000Y-73406000D02*
G01*
X150261000Y-73406000D01*
X150261000Y-73660000D01*
X150241000Y-73660000D01*
X150241000Y-73680000D01*
X149987000Y-73680000D01*
X149987000Y-73660000D01*
X149967000Y-73660000D01*
X149967000Y-73406000D01*
X149987000Y-73406000D01*
X149987000Y-73386000D01*
X150241000Y-73386000D01*
X150241000Y-73406000D01*
G37*
X150241000Y-73406000D02*
X150261000Y-73406000D01*
X150261000Y-73660000D01*
X150241000Y-73660000D01*
X150241000Y-73680000D01*
X149987000Y-73680000D01*
X149987000Y-73660000D01*
X149967000Y-73660000D01*
X149967000Y-73406000D01*
X149987000Y-73406000D01*
X149987000Y-73386000D01*
X150241000Y-73386000D01*
X150241000Y-73406000D01*
G36*
X144399000Y-72545000D02*
G01*
X144419000Y-72545000D01*
X144419000Y-72799000D01*
X144399000Y-72799000D01*
X144399000Y-72819000D01*
X144145000Y-72819000D01*
X144145000Y-72799000D01*
X144125000Y-72799000D01*
X144125000Y-72545000D01*
X144145000Y-72545000D01*
X144145000Y-72525000D01*
X144399000Y-72525000D01*
X144399000Y-72545000D01*
G37*
X144399000Y-72545000D02*
X144419000Y-72545000D01*
X144419000Y-72799000D01*
X144399000Y-72799000D01*
X144399000Y-72819000D01*
X144145000Y-72819000D01*
X144145000Y-72799000D01*
X144125000Y-72799000D01*
X144125000Y-72545000D01*
X144145000Y-72545000D01*
X144145000Y-72525000D01*
X144399000Y-72525000D01*
X144399000Y-72545000D01*
G36*
X153668320Y-70440273D02*
G01*
X153560147Y-70701426D01*
X153505000Y-70978665D01*
X153505000Y-71261335D01*
X153560147Y-71538574D01*
X153668320Y-71799727D01*
X153722281Y-71880485D01*
X153685725Y-71900025D01*
X153590790Y-71977936D01*
X153587236Y-71946204D01*
X153548573Y-71827245D01*
X153487445Y-71718115D01*
X153406201Y-71623007D01*
X153307964Y-71545576D01*
X153196509Y-71488799D01*
X153076119Y-71454856D01*
X152951419Y-71445052D01*
X152762250Y-71448000D01*
X152603500Y-71606750D01*
X152603500Y-72094928D01*
X152349500Y-72094928D01*
X152349500Y-71606750D01*
X152040250Y-71297500D01*
X151552072Y-71297500D01*
X151552072Y-71043500D01*
X152040250Y-71043500D01*
X152199000Y-70884750D01*
X152201948Y-70695581D01*
X152192144Y-70570881D01*
X152158201Y-70450491D01*
X152101424Y-70339036D01*
X152055680Y-70281000D01*
X153774743Y-70281000D01*
X153668320Y-70440273D01*
G37*
X153668320Y-70440273D02*
X153560147Y-70701426D01*
X153505000Y-70978665D01*
X153505000Y-71261335D01*
X153560147Y-71538574D01*
X153668320Y-71799727D01*
X153722281Y-71880485D01*
X153685725Y-71900025D01*
X153590790Y-71977936D01*
X153587236Y-71946204D01*
X153548573Y-71827245D01*
X153487445Y-71718115D01*
X153406201Y-71623007D01*
X153307964Y-71545576D01*
X153196509Y-71488799D01*
X153076119Y-71454856D01*
X152951419Y-71445052D01*
X152762250Y-71448000D01*
X152603500Y-71606750D01*
X152603500Y-72094928D01*
X152349500Y-72094928D01*
X152349500Y-71606750D01*
X152040250Y-71297500D01*
X151552072Y-71297500D01*
X151552072Y-71043500D01*
X152040250Y-71043500D01*
X152199000Y-70884750D01*
X152201948Y-70695581D01*
X152192144Y-70570881D01*
X152158201Y-70450491D01*
X152101424Y-70339036D01*
X152055680Y-70281000D01*
X153774743Y-70281000D01*
X153668320Y-70440273D01*
G36*
X142367000Y-70993000D02*
G01*
X142387000Y-70993000D01*
X142387000Y-71247000D01*
X142367000Y-71247000D01*
X142367000Y-71267000D01*
X142113000Y-71267000D01*
X142113000Y-71247000D01*
X142093000Y-71247000D01*
X142093000Y-70993000D01*
X142113000Y-70993000D01*
X142113000Y-70973000D01*
X142367000Y-70973000D01*
X142367000Y-70993000D01*
G37*
X142367000Y-70993000D02*
X142387000Y-70993000D01*
X142387000Y-71247000D01*
X142367000Y-71247000D01*
X142367000Y-71267000D01*
X142113000Y-71267000D01*
X142113000Y-71247000D01*
X142093000Y-71247000D01*
X142093000Y-70993000D01*
X142113000Y-70993000D01*
X142113000Y-70973000D01*
X142367000Y-70973000D01*
X142367000Y-70993000D01*
M02*
