G04 #@! TF.GenerationSoftware,KiCad,Pcbnew,(5.1.5)-3*
G04 #@! TF.CreationDate,2020-05-13T15:10:14-05:00*
G04 #@! TF.ProjectId,pt100stick,70743130-3073-4746-9963-6b2e6b696361,rev?*
G04 #@! TF.SameCoordinates,Original*
G04 #@! TF.FileFunction,Soldermask,Top*
G04 #@! TF.FilePolarity,Negative*
%FSLAX46Y46*%
G04 Gerber Fmt 4.6, Leading zero omitted, Abs format (unit mm)*
G04 Created by KiCad (PCBNEW (5.1.5)-3) date 2020-05-13 15:10:14*
%MOMM*%
%LPD*%
G04 APERTURE LIST*
%ADD10C,0.100000*%
G04 APERTURE END LIST*
D10*
G36*
X155188228Y-88081703D02*
G01*
X155343100Y-88145853D01*
X155482481Y-88238985D01*
X155601015Y-88357519D01*
X155694147Y-88496900D01*
X155758297Y-88651772D01*
X155791000Y-88816184D01*
X155791000Y-88983816D01*
X155758297Y-89148228D01*
X155694147Y-89303100D01*
X155601015Y-89442481D01*
X155482481Y-89561015D01*
X155343100Y-89654147D01*
X155188228Y-89718297D01*
X155023816Y-89751000D01*
X154856184Y-89751000D01*
X154691772Y-89718297D01*
X154536900Y-89654147D01*
X154397519Y-89561015D01*
X154278985Y-89442481D01*
X154185853Y-89303100D01*
X154121703Y-89148228D01*
X154089000Y-88983816D01*
X154089000Y-88816184D01*
X154121703Y-88651772D01*
X154185853Y-88496900D01*
X154278985Y-88357519D01*
X154397519Y-88238985D01*
X154536900Y-88145853D01*
X154691772Y-88081703D01*
X154856184Y-88049000D01*
X155023816Y-88049000D01*
X155188228Y-88081703D01*
G37*
G36*
X142488228Y-88081703D02*
G01*
X142643100Y-88145853D01*
X142782481Y-88238985D01*
X142901015Y-88357519D01*
X142994147Y-88496900D01*
X143058297Y-88651772D01*
X143091000Y-88816184D01*
X143091000Y-88983816D01*
X143058297Y-89148228D01*
X142994147Y-89303100D01*
X142901015Y-89442481D01*
X142782481Y-89561015D01*
X142643100Y-89654147D01*
X142488228Y-89718297D01*
X142323816Y-89751000D01*
X142156184Y-89751000D01*
X141991772Y-89718297D01*
X141836900Y-89654147D01*
X141697519Y-89561015D01*
X141578985Y-89442481D01*
X141485853Y-89303100D01*
X141421703Y-89148228D01*
X141389000Y-88983816D01*
X141389000Y-88816184D01*
X141421703Y-88651772D01*
X141485853Y-88496900D01*
X141578985Y-88357519D01*
X141697519Y-88238985D01*
X141836900Y-88145853D01*
X141991772Y-88081703D01*
X142156184Y-88049000D01*
X142323816Y-88049000D01*
X142488228Y-88081703D01*
G37*
G36*
X142488228Y-85541703D02*
G01*
X142643100Y-85605853D01*
X142782481Y-85698985D01*
X142901015Y-85817519D01*
X142994147Y-85956900D01*
X143058297Y-86111772D01*
X143091000Y-86276184D01*
X143091000Y-86443816D01*
X143058297Y-86608228D01*
X142994147Y-86763100D01*
X142901015Y-86902481D01*
X142782481Y-87021015D01*
X142643100Y-87114147D01*
X142488228Y-87178297D01*
X142323816Y-87211000D01*
X142156184Y-87211000D01*
X141991772Y-87178297D01*
X141836900Y-87114147D01*
X141697519Y-87021015D01*
X141578985Y-86902481D01*
X141485853Y-86763100D01*
X141421703Y-86608228D01*
X141389000Y-86443816D01*
X141389000Y-86276184D01*
X141421703Y-86111772D01*
X141485853Y-85956900D01*
X141578985Y-85817519D01*
X141697519Y-85698985D01*
X141836900Y-85605853D01*
X141991772Y-85541703D01*
X142156184Y-85509000D01*
X142323816Y-85509000D01*
X142488228Y-85541703D01*
G37*
G36*
X155188228Y-85541703D02*
G01*
X155343100Y-85605853D01*
X155482481Y-85698985D01*
X155601015Y-85817519D01*
X155694147Y-85956900D01*
X155758297Y-86111772D01*
X155791000Y-86276184D01*
X155791000Y-86443816D01*
X155758297Y-86608228D01*
X155694147Y-86763100D01*
X155601015Y-86902481D01*
X155482481Y-87021015D01*
X155343100Y-87114147D01*
X155188228Y-87178297D01*
X155023816Y-87211000D01*
X154856184Y-87211000D01*
X154691772Y-87178297D01*
X154536900Y-87114147D01*
X154397519Y-87021015D01*
X154278985Y-86902481D01*
X154185853Y-86763100D01*
X154121703Y-86608228D01*
X154089000Y-86443816D01*
X154089000Y-86276184D01*
X154121703Y-86111772D01*
X154185853Y-85956900D01*
X154278985Y-85817519D01*
X154397519Y-85698985D01*
X154536900Y-85605853D01*
X154691772Y-85541703D01*
X154856184Y-85509000D01*
X155023816Y-85509000D01*
X155188228Y-85541703D01*
G37*
G36*
X142488228Y-83001703D02*
G01*
X142643100Y-83065853D01*
X142782481Y-83158985D01*
X142901015Y-83277519D01*
X142994147Y-83416900D01*
X143058297Y-83571772D01*
X143091000Y-83736184D01*
X143091000Y-83903816D01*
X143058297Y-84068228D01*
X142994147Y-84223100D01*
X142901015Y-84362481D01*
X142782481Y-84481015D01*
X142643100Y-84574147D01*
X142488228Y-84638297D01*
X142323816Y-84671000D01*
X142156184Y-84671000D01*
X141991772Y-84638297D01*
X141836900Y-84574147D01*
X141697519Y-84481015D01*
X141578985Y-84362481D01*
X141485853Y-84223100D01*
X141421703Y-84068228D01*
X141389000Y-83903816D01*
X141389000Y-83736184D01*
X141421703Y-83571772D01*
X141485853Y-83416900D01*
X141578985Y-83277519D01*
X141697519Y-83158985D01*
X141836900Y-83065853D01*
X141991772Y-83001703D01*
X142156184Y-82969000D01*
X142323816Y-82969000D01*
X142488228Y-83001703D01*
G37*
G36*
X155188228Y-83001703D02*
G01*
X155343100Y-83065853D01*
X155482481Y-83158985D01*
X155601015Y-83277519D01*
X155694147Y-83416900D01*
X155758297Y-83571772D01*
X155791000Y-83736184D01*
X155791000Y-83903816D01*
X155758297Y-84068228D01*
X155694147Y-84223100D01*
X155601015Y-84362481D01*
X155482481Y-84481015D01*
X155343100Y-84574147D01*
X155188228Y-84638297D01*
X155023816Y-84671000D01*
X154856184Y-84671000D01*
X154691772Y-84638297D01*
X154536900Y-84574147D01*
X154397519Y-84481015D01*
X154278985Y-84362481D01*
X154185853Y-84223100D01*
X154121703Y-84068228D01*
X154089000Y-83903816D01*
X154089000Y-83736184D01*
X154121703Y-83571772D01*
X154185853Y-83416900D01*
X154278985Y-83277519D01*
X154397519Y-83158985D01*
X154536900Y-83065853D01*
X154691772Y-83001703D01*
X154856184Y-82969000D01*
X155023816Y-82969000D01*
X155188228Y-83001703D01*
G37*
G36*
X145835000Y-84005000D02*
G01*
X144233000Y-84005000D01*
X144233000Y-81603000D01*
X145835000Y-81603000D01*
X145835000Y-84005000D01*
G37*
G36*
X151911499Y-82536445D02*
G01*
X151948995Y-82547820D01*
X151983554Y-82566292D01*
X152013847Y-82591153D01*
X152038708Y-82621446D01*
X152057180Y-82656005D01*
X152068555Y-82693501D01*
X152073000Y-82738638D01*
X152073000Y-83377362D01*
X152068555Y-83422499D01*
X152057180Y-83459995D01*
X152038708Y-83494554D01*
X152013847Y-83524847D01*
X151983554Y-83549708D01*
X151948995Y-83568180D01*
X151911499Y-83579555D01*
X151866362Y-83584000D01*
X151127638Y-83584000D01*
X151082501Y-83579555D01*
X151045005Y-83568180D01*
X151010446Y-83549708D01*
X150980153Y-83524847D01*
X150955292Y-83494554D01*
X150936820Y-83459995D01*
X150925445Y-83422499D01*
X150921000Y-83377362D01*
X150921000Y-82738638D01*
X150925445Y-82693501D01*
X150936820Y-82656005D01*
X150955292Y-82621446D01*
X150980153Y-82591153D01*
X151010446Y-82566292D01*
X151045005Y-82547820D01*
X151082501Y-82536445D01*
X151127638Y-82532000D01*
X151866362Y-82532000D01*
X151911499Y-82536445D01*
G37*
G36*
X150161499Y-82536445D02*
G01*
X150198995Y-82547820D01*
X150233554Y-82566292D01*
X150263847Y-82591153D01*
X150288708Y-82621446D01*
X150307180Y-82656005D01*
X150318555Y-82693501D01*
X150323000Y-82738638D01*
X150323000Y-83377362D01*
X150318555Y-83422499D01*
X150307180Y-83459995D01*
X150288708Y-83494554D01*
X150263847Y-83524847D01*
X150233554Y-83549708D01*
X150198995Y-83568180D01*
X150161499Y-83579555D01*
X150116362Y-83584000D01*
X149377638Y-83584000D01*
X149332501Y-83579555D01*
X149295005Y-83568180D01*
X149260446Y-83549708D01*
X149230153Y-83524847D01*
X149205292Y-83494554D01*
X149186820Y-83459995D01*
X149175445Y-83422499D01*
X149171000Y-83377362D01*
X149171000Y-82738638D01*
X149175445Y-82693501D01*
X149186820Y-82656005D01*
X149205292Y-82621446D01*
X149230153Y-82591153D01*
X149260446Y-82566292D01*
X149295005Y-82547820D01*
X149332501Y-82536445D01*
X149377638Y-82532000D01*
X150116362Y-82532000D01*
X150161499Y-82536445D01*
G37*
G36*
X142488228Y-80461703D02*
G01*
X142643100Y-80525853D01*
X142782481Y-80618985D01*
X142901015Y-80737519D01*
X142994147Y-80876900D01*
X143058297Y-81031772D01*
X143091000Y-81196184D01*
X143091000Y-81363816D01*
X143058297Y-81528228D01*
X142994147Y-81683100D01*
X142901015Y-81822481D01*
X142782481Y-81941015D01*
X142643100Y-82034147D01*
X142488228Y-82098297D01*
X142323816Y-82131000D01*
X142156184Y-82131000D01*
X141991772Y-82098297D01*
X141836900Y-82034147D01*
X141697519Y-81941015D01*
X141578985Y-81822481D01*
X141485853Y-81683100D01*
X141421703Y-81528228D01*
X141389000Y-81363816D01*
X141389000Y-81196184D01*
X141421703Y-81031772D01*
X141485853Y-80876900D01*
X141578985Y-80737519D01*
X141697519Y-80618985D01*
X141836900Y-80525853D01*
X141991772Y-80461703D01*
X142156184Y-80429000D01*
X142323816Y-80429000D01*
X142488228Y-80461703D01*
G37*
G36*
X155188228Y-80461703D02*
G01*
X155343100Y-80525853D01*
X155482481Y-80618985D01*
X155601015Y-80737519D01*
X155694147Y-80876900D01*
X155758297Y-81031772D01*
X155791000Y-81196184D01*
X155791000Y-81363816D01*
X155758297Y-81528228D01*
X155694147Y-81683100D01*
X155601015Y-81822481D01*
X155482481Y-81941015D01*
X155343100Y-82034147D01*
X155188228Y-82098297D01*
X155023816Y-82131000D01*
X154856184Y-82131000D01*
X154691772Y-82098297D01*
X154536900Y-82034147D01*
X154397519Y-81941015D01*
X154278985Y-81822481D01*
X154185853Y-81683100D01*
X154121703Y-81528228D01*
X154089000Y-81363816D01*
X154089000Y-81196184D01*
X154121703Y-81031772D01*
X154185853Y-80876900D01*
X154278985Y-80737519D01*
X154397519Y-80618985D01*
X154536900Y-80525853D01*
X154691772Y-80461703D01*
X154856184Y-80429000D01*
X155023816Y-80429000D01*
X155188228Y-80461703D01*
G37*
G36*
X149899000Y-81577000D02*
G01*
X148297000Y-81577000D01*
X148297000Y-77875000D01*
X149899000Y-77875000D01*
X149899000Y-81577000D01*
G37*
G36*
X142488228Y-77921703D02*
G01*
X142643100Y-77985853D01*
X142782481Y-78078985D01*
X142901015Y-78197519D01*
X142994147Y-78336900D01*
X143058297Y-78491772D01*
X143091000Y-78656184D01*
X143091000Y-78823816D01*
X143058297Y-78988228D01*
X142994147Y-79143100D01*
X142901015Y-79282481D01*
X142782481Y-79401015D01*
X142643100Y-79494147D01*
X142488228Y-79558297D01*
X142323816Y-79591000D01*
X142156184Y-79591000D01*
X141991772Y-79558297D01*
X141836900Y-79494147D01*
X141697519Y-79401015D01*
X141578985Y-79282481D01*
X141485853Y-79143100D01*
X141421703Y-78988228D01*
X141389000Y-78823816D01*
X141389000Y-78656184D01*
X141421703Y-78491772D01*
X141485853Y-78336900D01*
X141578985Y-78197519D01*
X141697519Y-78078985D01*
X141836900Y-77985853D01*
X141991772Y-77921703D01*
X142156184Y-77889000D01*
X142323816Y-77889000D01*
X142488228Y-77921703D01*
G37*
G36*
X155188228Y-77921703D02*
G01*
X155343100Y-77985853D01*
X155482481Y-78078985D01*
X155601015Y-78197519D01*
X155694147Y-78336900D01*
X155758297Y-78491772D01*
X155791000Y-78656184D01*
X155791000Y-78823816D01*
X155758297Y-78988228D01*
X155694147Y-79143100D01*
X155601015Y-79282481D01*
X155482481Y-79401015D01*
X155343100Y-79494147D01*
X155188228Y-79558297D01*
X155023816Y-79591000D01*
X154856184Y-79591000D01*
X154691772Y-79558297D01*
X154536900Y-79494147D01*
X154397519Y-79401015D01*
X154278985Y-79282481D01*
X154185853Y-79143100D01*
X154121703Y-78988228D01*
X154089000Y-78823816D01*
X154089000Y-78656184D01*
X154121703Y-78491772D01*
X154185853Y-78336900D01*
X154278985Y-78197519D01*
X154397519Y-78078985D01*
X154536900Y-77985853D01*
X154691772Y-77921703D01*
X154856184Y-77889000D01*
X155023816Y-77889000D01*
X155188228Y-77921703D01*
G37*
G36*
X145835000Y-78708000D02*
G01*
X144233000Y-78708000D01*
X144233000Y-76306000D01*
X145835000Y-76306000D01*
X145835000Y-78708000D01*
G37*
G36*
X155188228Y-75381703D02*
G01*
X155343100Y-75445853D01*
X155482481Y-75538985D01*
X155601015Y-75657519D01*
X155694147Y-75796900D01*
X155758297Y-75951772D01*
X155791000Y-76116184D01*
X155791000Y-76283816D01*
X155758297Y-76448228D01*
X155694147Y-76603100D01*
X155601015Y-76742481D01*
X155482481Y-76861015D01*
X155343100Y-76954147D01*
X155188228Y-77018297D01*
X155023816Y-77051000D01*
X154856184Y-77051000D01*
X154691772Y-77018297D01*
X154536900Y-76954147D01*
X154397519Y-76861015D01*
X154278985Y-76742481D01*
X154185853Y-76603100D01*
X154121703Y-76448228D01*
X154089000Y-76283816D01*
X154089000Y-76116184D01*
X154121703Y-75951772D01*
X154185853Y-75796900D01*
X154278985Y-75657519D01*
X154397519Y-75538985D01*
X154536900Y-75445853D01*
X154691772Y-75381703D01*
X154856184Y-75349000D01*
X155023816Y-75349000D01*
X155188228Y-75381703D01*
G37*
G36*
X142488228Y-75381703D02*
G01*
X142643100Y-75445853D01*
X142782481Y-75538985D01*
X142901015Y-75657519D01*
X142994147Y-75796900D01*
X143058297Y-75951772D01*
X143091000Y-76116184D01*
X143091000Y-76283816D01*
X143058297Y-76448228D01*
X142994147Y-76603100D01*
X142901015Y-76742481D01*
X142782481Y-76861015D01*
X142643100Y-76954147D01*
X142488228Y-77018297D01*
X142323816Y-77051000D01*
X142156184Y-77051000D01*
X141991772Y-77018297D01*
X141836900Y-76954147D01*
X141697519Y-76861015D01*
X141578985Y-76742481D01*
X141485853Y-76603100D01*
X141421703Y-76448228D01*
X141389000Y-76283816D01*
X141389000Y-76116184D01*
X141421703Y-75951772D01*
X141485853Y-75796900D01*
X141578985Y-75657519D01*
X141697519Y-75538985D01*
X141836900Y-75445853D01*
X141991772Y-75381703D01*
X142156184Y-75349000D01*
X142323816Y-75349000D01*
X142488228Y-75381703D01*
G37*
G36*
X148984295Y-70633323D02*
G01*
X148991310Y-70635451D01*
X148997776Y-70638908D01*
X149003442Y-70643558D01*
X149008092Y-70649224D01*
X149011549Y-70655690D01*
X149013677Y-70662705D01*
X149014603Y-70672109D01*
X149019383Y-70696142D01*
X149028761Y-70718781D01*
X149042374Y-70739155D01*
X149059701Y-70756482D01*
X149080076Y-70770096D01*
X149102715Y-70779474D01*
X149126748Y-70784254D01*
X149151252Y-70784254D01*
X149175285Y-70779474D01*
X149197924Y-70770096D01*
X149218298Y-70756483D01*
X149235625Y-70739156D01*
X149249239Y-70718781D01*
X149258617Y-70696142D01*
X149263397Y-70672109D01*
X149264323Y-70662705D01*
X149266451Y-70655690D01*
X149269908Y-70649224D01*
X149274558Y-70643558D01*
X149280224Y-70638908D01*
X149286690Y-70635451D01*
X149293705Y-70633323D01*
X149307140Y-70632000D01*
X149620860Y-70632000D01*
X149634295Y-70633323D01*
X149641310Y-70635451D01*
X149647776Y-70638908D01*
X149653442Y-70643558D01*
X149658092Y-70649224D01*
X149661549Y-70655690D01*
X149663677Y-70662705D01*
X149664603Y-70672109D01*
X149669383Y-70696142D01*
X149678761Y-70718781D01*
X149692374Y-70739155D01*
X149709701Y-70756482D01*
X149730076Y-70770096D01*
X149752715Y-70779474D01*
X149776748Y-70784254D01*
X149801252Y-70784254D01*
X149825285Y-70779474D01*
X149847924Y-70770096D01*
X149868298Y-70756483D01*
X149885625Y-70739156D01*
X149899239Y-70718781D01*
X149908617Y-70696142D01*
X149913397Y-70672109D01*
X149914323Y-70662705D01*
X149916451Y-70655690D01*
X149919908Y-70649224D01*
X149924558Y-70643558D01*
X149930224Y-70638908D01*
X149936690Y-70635451D01*
X149943705Y-70633323D01*
X149957140Y-70632000D01*
X150270860Y-70632000D01*
X150284295Y-70633323D01*
X150291310Y-70635451D01*
X150297776Y-70638908D01*
X150303442Y-70643558D01*
X150308092Y-70649224D01*
X150311549Y-70655690D01*
X150313677Y-70662705D01*
X150314603Y-70672109D01*
X150319383Y-70696142D01*
X150328761Y-70718781D01*
X150342374Y-70739155D01*
X150359701Y-70756482D01*
X150380076Y-70770096D01*
X150402715Y-70779474D01*
X150426748Y-70784254D01*
X150451252Y-70784254D01*
X150475285Y-70779474D01*
X150497924Y-70770096D01*
X150518298Y-70756483D01*
X150535625Y-70739156D01*
X150549239Y-70718781D01*
X150558617Y-70696142D01*
X150563397Y-70672109D01*
X150564323Y-70662705D01*
X150566451Y-70655690D01*
X150569908Y-70649224D01*
X150574558Y-70643558D01*
X150580224Y-70638908D01*
X150586690Y-70635451D01*
X150593705Y-70633323D01*
X150607140Y-70632000D01*
X150920860Y-70632000D01*
X150934295Y-70633323D01*
X150941310Y-70635451D01*
X150947776Y-70638908D01*
X150953442Y-70643558D01*
X150958092Y-70649224D01*
X150961549Y-70655690D01*
X150963677Y-70662705D01*
X150964603Y-70672109D01*
X150969383Y-70696142D01*
X150978761Y-70718781D01*
X150992374Y-70739155D01*
X151009701Y-70756482D01*
X151030076Y-70770096D01*
X151052715Y-70779474D01*
X151076748Y-70784254D01*
X151101252Y-70784254D01*
X151125285Y-70779474D01*
X151147924Y-70770096D01*
X151168298Y-70756483D01*
X151185625Y-70739156D01*
X151199239Y-70718781D01*
X151208617Y-70696142D01*
X151213397Y-70672109D01*
X151214323Y-70662705D01*
X151216451Y-70655690D01*
X151219908Y-70649224D01*
X151224558Y-70643558D01*
X151230224Y-70638908D01*
X151236690Y-70635451D01*
X151243705Y-70633323D01*
X151257140Y-70632000D01*
X151570860Y-70632000D01*
X151584295Y-70633323D01*
X151591310Y-70635451D01*
X151597776Y-70638908D01*
X151603442Y-70643558D01*
X151608092Y-70649224D01*
X151611549Y-70655690D01*
X151613677Y-70662705D01*
X151615000Y-70676140D01*
X151615000Y-71664860D01*
X151613677Y-71678295D01*
X151611549Y-71685310D01*
X151608092Y-71691776D01*
X151603442Y-71697442D01*
X151597774Y-71702094D01*
X151582991Y-71709996D01*
X151562616Y-71723610D01*
X151545289Y-71740937D01*
X151531676Y-71761311D01*
X151522298Y-71783950D01*
X151517518Y-71807983D01*
X151517518Y-71832487D01*
X151522298Y-71856521D01*
X151531676Y-71879159D01*
X151545290Y-71899534D01*
X151562617Y-71916861D01*
X151582991Y-71930474D01*
X151605631Y-71939852D01*
X151620080Y-71944235D01*
X151646495Y-71958354D01*
X151669646Y-71977354D01*
X151688646Y-72000505D01*
X151702765Y-72026920D01*
X151707148Y-72041369D01*
X151716525Y-72064008D01*
X151730138Y-72084382D01*
X151747465Y-72101709D01*
X151767839Y-72115323D01*
X151790478Y-72124701D01*
X151814511Y-72129482D01*
X151839015Y-72129482D01*
X151863049Y-72124702D01*
X151885688Y-72115325D01*
X151906062Y-72101712D01*
X151923389Y-72084385D01*
X151937004Y-72064009D01*
X151944906Y-72049226D01*
X151949558Y-72043558D01*
X151955224Y-72038908D01*
X151961690Y-72035451D01*
X151968705Y-72033323D01*
X151982140Y-72032000D01*
X152970860Y-72032000D01*
X152984295Y-72033323D01*
X152991310Y-72035451D01*
X152997776Y-72038908D01*
X153003442Y-72043558D01*
X153008092Y-72049224D01*
X153011549Y-72055690D01*
X153013677Y-72062705D01*
X153015000Y-72076140D01*
X153015000Y-72389860D01*
X153013677Y-72403295D01*
X153011549Y-72410310D01*
X153008092Y-72416776D01*
X153003442Y-72422442D01*
X152997776Y-72427092D01*
X152991310Y-72430549D01*
X152984295Y-72432677D01*
X152974891Y-72433603D01*
X152950858Y-72438383D01*
X152928219Y-72447761D01*
X152907845Y-72461374D01*
X152890518Y-72478701D01*
X152876904Y-72499076D01*
X152867526Y-72521715D01*
X152862746Y-72545748D01*
X152862746Y-72570252D01*
X152867526Y-72594285D01*
X152876904Y-72616924D01*
X152890517Y-72637298D01*
X152907844Y-72654625D01*
X152928219Y-72668239D01*
X152950858Y-72677617D01*
X152974891Y-72682397D01*
X152984295Y-72683323D01*
X152991310Y-72685451D01*
X152997776Y-72688908D01*
X153003442Y-72693558D01*
X153008092Y-72699224D01*
X153011549Y-72705690D01*
X153013677Y-72712705D01*
X153015000Y-72726140D01*
X153015000Y-73039860D01*
X153013677Y-73053295D01*
X153011549Y-73060310D01*
X153008092Y-73066776D01*
X153003442Y-73072442D01*
X152997776Y-73077092D01*
X152991310Y-73080549D01*
X152984295Y-73082677D01*
X152974891Y-73083603D01*
X152950858Y-73088383D01*
X152928219Y-73097761D01*
X152907845Y-73111374D01*
X152890518Y-73128701D01*
X152876904Y-73149076D01*
X152867526Y-73171715D01*
X152862746Y-73195748D01*
X152862746Y-73220252D01*
X152867526Y-73244285D01*
X152876904Y-73266924D01*
X152890517Y-73287298D01*
X152907844Y-73304625D01*
X152928219Y-73318239D01*
X152950858Y-73327617D01*
X152974891Y-73332397D01*
X152984295Y-73333323D01*
X152991310Y-73335451D01*
X152997776Y-73338908D01*
X153003442Y-73343558D01*
X153008092Y-73349224D01*
X153011549Y-73355690D01*
X153013677Y-73362705D01*
X153015000Y-73376140D01*
X153015000Y-73689860D01*
X153013677Y-73703295D01*
X153011549Y-73710310D01*
X153008092Y-73716776D01*
X153003442Y-73722442D01*
X152997776Y-73727092D01*
X152991310Y-73730549D01*
X152984295Y-73732677D01*
X152974891Y-73733603D01*
X152950858Y-73738383D01*
X152928219Y-73747761D01*
X152907845Y-73761374D01*
X152890518Y-73778701D01*
X152876904Y-73799076D01*
X152867526Y-73821715D01*
X152862746Y-73845748D01*
X152862746Y-73870252D01*
X152867526Y-73894285D01*
X152876904Y-73916924D01*
X152890517Y-73937298D01*
X152907844Y-73954625D01*
X152928219Y-73968239D01*
X152950858Y-73977617D01*
X152974891Y-73982397D01*
X152984295Y-73983323D01*
X152991310Y-73985451D01*
X152997776Y-73988908D01*
X153003442Y-73993558D01*
X153008092Y-73999224D01*
X153011549Y-74005690D01*
X153013677Y-74012705D01*
X153015000Y-74026140D01*
X153015000Y-74339860D01*
X153013677Y-74353295D01*
X153011549Y-74360310D01*
X153008092Y-74366776D01*
X153003442Y-74372442D01*
X152997776Y-74377092D01*
X152991310Y-74380549D01*
X152984295Y-74382677D01*
X152974891Y-74383603D01*
X152950858Y-74388383D01*
X152928219Y-74397761D01*
X152907845Y-74411374D01*
X152890518Y-74428701D01*
X152876904Y-74449076D01*
X152867526Y-74471715D01*
X152862746Y-74495748D01*
X152862746Y-74520252D01*
X152867526Y-74544285D01*
X152876904Y-74566924D01*
X152890517Y-74587298D01*
X152907844Y-74604625D01*
X152928219Y-74618239D01*
X152950858Y-74627617D01*
X152974891Y-74632397D01*
X152984295Y-74633323D01*
X152991310Y-74635451D01*
X152997776Y-74638908D01*
X153003442Y-74643558D01*
X153008092Y-74649224D01*
X153011549Y-74655690D01*
X153013677Y-74662705D01*
X153015000Y-74676140D01*
X153015000Y-74989860D01*
X153013677Y-75003295D01*
X153011549Y-75010310D01*
X153008092Y-75016776D01*
X153003442Y-75022442D01*
X152997776Y-75027092D01*
X152991310Y-75030549D01*
X152984295Y-75032677D01*
X152970860Y-75034000D01*
X151982140Y-75034000D01*
X151968705Y-75032677D01*
X151961690Y-75030549D01*
X151955224Y-75027092D01*
X151949558Y-75022442D01*
X151944906Y-75016774D01*
X151937004Y-75001991D01*
X151923390Y-74981616D01*
X151906063Y-74964289D01*
X151885689Y-74950676D01*
X151863050Y-74941298D01*
X151839017Y-74936518D01*
X151814513Y-74936518D01*
X151790479Y-74941298D01*
X151767841Y-74950676D01*
X151747466Y-74964290D01*
X151730139Y-74981617D01*
X151716526Y-75001991D01*
X151707148Y-75024631D01*
X151702765Y-75039080D01*
X151688646Y-75065495D01*
X151669646Y-75088646D01*
X151646495Y-75107646D01*
X151620080Y-75121765D01*
X151605631Y-75126148D01*
X151582992Y-75135525D01*
X151562618Y-75149138D01*
X151545291Y-75166465D01*
X151531677Y-75186839D01*
X151522299Y-75209478D01*
X151517518Y-75233511D01*
X151517518Y-75258015D01*
X151522298Y-75282049D01*
X151531675Y-75304688D01*
X151545288Y-75325062D01*
X151562615Y-75342389D01*
X151582991Y-75356004D01*
X151597774Y-75363906D01*
X151603442Y-75368558D01*
X151608092Y-75374224D01*
X151611549Y-75380690D01*
X151613677Y-75387705D01*
X151615000Y-75401140D01*
X151615000Y-76389860D01*
X151613677Y-76403295D01*
X151611549Y-76410310D01*
X151608092Y-76416776D01*
X151603442Y-76422442D01*
X151597776Y-76427092D01*
X151591310Y-76430549D01*
X151584295Y-76432677D01*
X151570860Y-76434000D01*
X151257140Y-76434000D01*
X151243705Y-76432677D01*
X151236690Y-76430549D01*
X151230224Y-76427092D01*
X151224558Y-76422442D01*
X151219908Y-76416776D01*
X151216451Y-76410310D01*
X151214323Y-76403295D01*
X151213397Y-76393891D01*
X151208617Y-76369858D01*
X151199239Y-76347219D01*
X151185626Y-76326845D01*
X151168299Y-76309518D01*
X151147924Y-76295904D01*
X151125285Y-76286526D01*
X151101252Y-76281746D01*
X151076748Y-76281746D01*
X151052715Y-76286526D01*
X151030076Y-76295904D01*
X151009702Y-76309517D01*
X150992375Y-76326844D01*
X150978761Y-76347219D01*
X150969383Y-76369858D01*
X150964603Y-76393891D01*
X150963677Y-76403295D01*
X150961549Y-76410310D01*
X150958092Y-76416776D01*
X150953442Y-76422442D01*
X150947776Y-76427092D01*
X150941310Y-76430549D01*
X150934295Y-76432677D01*
X150920860Y-76434000D01*
X150607140Y-76434000D01*
X150593705Y-76432677D01*
X150586690Y-76430549D01*
X150580224Y-76427092D01*
X150574558Y-76422442D01*
X150569908Y-76416776D01*
X150566451Y-76410310D01*
X150564323Y-76403295D01*
X150563397Y-76393891D01*
X150558617Y-76369858D01*
X150549239Y-76347219D01*
X150535626Y-76326845D01*
X150518299Y-76309518D01*
X150497924Y-76295904D01*
X150475285Y-76286526D01*
X150451252Y-76281746D01*
X150426748Y-76281746D01*
X150402715Y-76286526D01*
X150380076Y-76295904D01*
X150359702Y-76309517D01*
X150342375Y-76326844D01*
X150328761Y-76347219D01*
X150319383Y-76369858D01*
X150314603Y-76393891D01*
X150313677Y-76403295D01*
X150311549Y-76410310D01*
X150308092Y-76416776D01*
X150303442Y-76422442D01*
X150297776Y-76427092D01*
X150291310Y-76430549D01*
X150284295Y-76432677D01*
X150270860Y-76434000D01*
X149957140Y-76434000D01*
X149943705Y-76432677D01*
X149936690Y-76430549D01*
X149930224Y-76427092D01*
X149924558Y-76422442D01*
X149919908Y-76416776D01*
X149916451Y-76410310D01*
X149914323Y-76403295D01*
X149913397Y-76393891D01*
X149908617Y-76369858D01*
X149899239Y-76347219D01*
X149885626Y-76326845D01*
X149868299Y-76309518D01*
X149847924Y-76295904D01*
X149825285Y-76286526D01*
X149801252Y-76281746D01*
X149776748Y-76281746D01*
X149752715Y-76286526D01*
X149730076Y-76295904D01*
X149709702Y-76309517D01*
X149692375Y-76326844D01*
X149678761Y-76347219D01*
X149669383Y-76369858D01*
X149664603Y-76393891D01*
X149663677Y-76403295D01*
X149661549Y-76410310D01*
X149658092Y-76416776D01*
X149653442Y-76422442D01*
X149647776Y-76427092D01*
X149641310Y-76430549D01*
X149634295Y-76432677D01*
X149620860Y-76434000D01*
X149307140Y-76434000D01*
X149293705Y-76432677D01*
X149286690Y-76430549D01*
X149280224Y-76427092D01*
X149274558Y-76422442D01*
X149269908Y-76416776D01*
X149266451Y-76410310D01*
X149264323Y-76403295D01*
X149263397Y-76393891D01*
X149258617Y-76369858D01*
X149249239Y-76347219D01*
X149235626Y-76326845D01*
X149218299Y-76309518D01*
X149197924Y-76295904D01*
X149175285Y-76286526D01*
X149151252Y-76281746D01*
X149126748Y-76281746D01*
X149102715Y-76286526D01*
X149080076Y-76295904D01*
X149059702Y-76309517D01*
X149042375Y-76326844D01*
X149028761Y-76347219D01*
X149019383Y-76369858D01*
X149014603Y-76393891D01*
X149013677Y-76403295D01*
X149011549Y-76410310D01*
X149008092Y-76416776D01*
X149003442Y-76422442D01*
X148997776Y-76427092D01*
X148991310Y-76430549D01*
X148984295Y-76432677D01*
X148970860Y-76434000D01*
X148657140Y-76434000D01*
X148643705Y-76432677D01*
X148636690Y-76430549D01*
X148630224Y-76427092D01*
X148624558Y-76422442D01*
X148619908Y-76416776D01*
X148616451Y-76410310D01*
X148614323Y-76403295D01*
X148613000Y-76389860D01*
X148613000Y-75401140D01*
X148614323Y-75387705D01*
X148616451Y-75380690D01*
X148619908Y-75374224D01*
X148624558Y-75368558D01*
X148630226Y-75363906D01*
X148645009Y-75356004D01*
X148665384Y-75342390D01*
X148682711Y-75325063D01*
X148696324Y-75304689D01*
X148705702Y-75282050D01*
X148710286Y-75258999D01*
X148941675Y-75258999D01*
X148944077Y-75283385D01*
X148951190Y-75306834D01*
X148962741Y-75328445D01*
X148978286Y-75347387D01*
X148988930Y-75355281D01*
X148988260Y-75356098D01*
X149003442Y-75368558D01*
X149008092Y-75374224D01*
X149011549Y-75380690D01*
X149013677Y-75387705D01*
X149014603Y-75397109D01*
X149019383Y-75421142D01*
X149028761Y-75443781D01*
X149042374Y-75464155D01*
X149059701Y-75481482D01*
X149080076Y-75495096D01*
X149102715Y-75504474D01*
X149126748Y-75509254D01*
X149151252Y-75509254D01*
X149175285Y-75504474D01*
X149197924Y-75495096D01*
X149218298Y-75481483D01*
X149235625Y-75464156D01*
X149249239Y-75443781D01*
X149258617Y-75421142D01*
X149263397Y-75397109D01*
X149264323Y-75387705D01*
X149266451Y-75380690D01*
X149269908Y-75374224D01*
X149274558Y-75368558D01*
X149288968Y-75356732D01*
X149290627Y-75355623D01*
X149307953Y-75338295D01*
X149321567Y-75317921D01*
X149330943Y-75295281D01*
X149335723Y-75271248D01*
X149335723Y-75258999D01*
X149591675Y-75258999D01*
X149594077Y-75283385D01*
X149601190Y-75306834D01*
X149612741Y-75328445D01*
X149628286Y-75347387D01*
X149638930Y-75355281D01*
X149638260Y-75356098D01*
X149653442Y-75368558D01*
X149658092Y-75374224D01*
X149661549Y-75380690D01*
X149663677Y-75387705D01*
X149664603Y-75397109D01*
X149669383Y-75421142D01*
X149678761Y-75443781D01*
X149692374Y-75464155D01*
X149709701Y-75481482D01*
X149730076Y-75495096D01*
X149752715Y-75504474D01*
X149776748Y-75509254D01*
X149801252Y-75509254D01*
X149825285Y-75504474D01*
X149847924Y-75495096D01*
X149868298Y-75481483D01*
X149885625Y-75464156D01*
X149899239Y-75443781D01*
X149908617Y-75421142D01*
X149913397Y-75397109D01*
X149914323Y-75387705D01*
X149916451Y-75380690D01*
X149919908Y-75374224D01*
X149924558Y-75368558D01*
X149938968Y-75356732D01*
X149940627Y-75355623D01*
X149957953Y-75338295D01*
X149971567Y-75317921D01*
X149980943Y-75295281D01*
X149985723Y-75271248D01*
X149985723Y-75258999D01*
X150241675Y-75258999D01*
X150244077Y-75283385D01*
X150251190Y-75306834D01*
X150262741Y-75328445D01*
X150278286Y-75347387D01*
X150288930Y-75355281D01*
X150288260Y-75356098D01*
X150303442Y-75368558D01*
X150308092Y-75374224D01*
X150311549Y-75380690D01*
X150313677Y-75387705D01*
X150314603Y-75397109D01*
X150319383Y-75421142D01*
X150328761Y-75443781D01*
X150342374Y-75464155D01*
X150359701Y-75481482D01*
X150380076Y-75495096D01*
X150402715Y-75504474D01*
X150426748Y-75509254D01*
X150451252Y-75509254D01*
X150475285Y-75504474D01*
X150497924Y-75495096D01*
X150518298Y-75481483D01*
X150535625Y-75464156D01*
X150549239Y-75443781D01*
X150558617Y-75421142D01*
X150563397Y-75397109D01*
X150564323Y-75387705D01*
X150566451Y-75380690D01*
X150569908Y-75374224D01*
X150574558Y-75368558D01*
X150588968Y-75356732D01*
X150590627Y-75355623D01*
X150607953Y-75338295D01*
X150621567Y-75317921D01*
X150630943Y-75295281D01*
X150635723Y-75271248D01*
X150635723Y-75258999D01*
X150891675Y-75258999D01*
X150894077Y-75283385D01*
X150901190Y-75306834D01*
X150912741Y-75328445D01*
X150928286Y-75347387D01*
X150938930Y-75355281D01*
X150938260Y-75356098D01*
X150953442Y-75368558D01*
X150958092Y-75374224D01*
X150961549Y-75380690D01*
X150963677Y-75387705D01*
X150964603Y-75397109D01*
X150969383Y-75421142D01*
X150978761Y-75443781D01*
X150992374Y-75464155D01*
X151009701Y-75481482D01*
X151030076Y-75495096D01*
X151052715Y-75504474D01*
X151076748Y-75509254D01*
X151101252Y-75509254D01*
X151125285Y-75504474D01*
X151147924Y-75495096D01*
X151168298Y-75481483D01*
X151185625Y-75464156D01*
X151199239Y-75443781D01*
X151208617Y-75421142D01*
X151213397Y-75397109D01*
X151214323Y-75387705D01*
X151216451Y-75380690D01*
X151219908Y-75374224D01*
X151224558Y-75368558D01*
X151238968Y-75356732D01*
X151240627Y-75355623D01*
X151257953Y-75338295D01*
X151271567Y-75317921D01*
X151280943Y-75295281D01*
X151285723Y-75271248D01*
X151285723Y-75246744D01*
X151280942Y-75222711D01*
X151271564Y-75200072D01*
X151257950Y-75179698D01*
X151240622Y-75162372D01*
X151220248Y-75148758D01*
X151197608Y-75139382D01*
X151161326Y-75134000D01*
X151016674Y-75134000D01*
X150992288Y-75136402D01*
X150968839Y-75143515D01*
X150947228Y-75155066D01*
X150928286Y-75170611D01*
X150912741Y-75189553D01*
X150901190Y-75211164D01*
X150894077Y-75234613D01*
X150891675Y-75258999D01*
X150635723Y-75258999D01*
X150635723Y-75246744D01*
X150630942Y-75222711D01*
X150621564Y-75200072D01*
X150607950Y-75179698D01*
X150590622Y-75162372D01*
X150570248Y-75148758D01*
X150547608Y-75139382D01*
X150511326Y-75134000D01*
X150366674Y-75134000D01*
X150342288Y-75136402D01*
X150318839Y-75143515D01*
X150297228Y-75155066D01*
X150278286Y-75170611D01*
X150262741Y-75189553D01*
X150251190Y-75211164D01*
X150244077Y-75234613D01*
X150241675Y-75258999D01*
X149985723Y-75258999D01*
X149985723Y-75246744D01*
X149980942Y-75222711D01*
X149971564Y-75200072D01*
X149957950Y-75179698D01*
X149940622Y-75162372D01*
X149920248Y-75148758D01*
X149897608Y-75139382D01*
X149861326Y-75134000D01*
X149716674Y-75134000D01*
X149692288Y-75136402D01*
X149668839Y-75143515D01*
X149647228Y-75155066D01*
X149628286Y-75170611D01*
X149612741Y-75189553D01*
X149601190Y-75211164D01*
X149594077Y-75234613D01*
X149591675Y-75258999D01*
X149335723Y-75258999D01*
X149335723Y-75246744D01*
X149330942Y-75222711D01*
X149321564Y-75200072D01*
X149307950Y-75179698D01*
X149290622Y-75162372D01*
X149270248Y-75148758D01*
X149247608Y-75139382D01*
X149211326Y-75134000D01*
X149066674Y-75134000D01*
X149042288Y-75136402D01*
X149018839Y-75143515D01*
X148997228Y-75155066D01*
X148978286Y-75170611D01*
X148962741Y-75189553D01*
X148951190Y-75211164D01*
X148944077Y-75234613D01*
X148941675Y-75258999D01*
X148710286Y-75258999D01*
X148710482Y-75258017D01*
X148710482Y-75233513D01*
X148705702Y-75209479D01*
X148696324Y-75186841D01*
X148682710Y-75166466D01*
X148665383Y-75149139D01*
X148645009Y-75135526D01*
X148622369Y-75126148D01*
X148607920Y-75121765D01*
X148581505Y-75107646D01*
X148558354Y-75088646D01*
X148539354Y-75065495D01*
X148525235Y-75039080D01*
X148520852Y-75024631D01*
X148511475Y-75001992D01*
X148497862Y-74981618D01*
X148480535Y-74964291D01*
X148460161Y-74950677D01*
X148437522Y-74941299D01*
X148413489Y-74936518D01*
X148388985Y-74936518D01*
X148364951Y-74941298D01*
X148342312Y-74950675D01*
X148321938Y-74964288D01*
X148304611Y-74981615D01*
X148290996Y-75001991D01*
X148283094Y-75016774D01*
X148278442Y-75022442D01*
X148272776Y-75027092D01*
X148266310Y-75030549D01*
X148259295Y-75032677D01*
X148245860Y-75034000D01*
X147257140Y-75034000D01*
X147243705Y-75032677D01*
X147236690Y-75030549D01*
X147230224Y-75027092D01*
X147224558Y-75022442D01*
X147219908Y-75016776D01*
X147216451Y-75010310D01*
X147214323Y-75003295D01*
X147213000Y-74989860D01*
X147213000Y-74676140D01*
X147214323Y-74662705D01*
X147216451Y-74655690D01*
X147219908Y-74649224D01*
X147224558Y-74643558D01*
X147230224Y-74638908D01*
X147236690Y-74635451D01*
X147243705Y-74633323D01*
X147253109Y-74632397D01*
X147277142Y-74627617D01*
X147299781Y-74618239D01*
X147320155Y-74604626D01*
X147337482Y-74587299D01*
X147351096Y-74566924D01*
X147360474Y-74544285D01*
X147365254Y-74520252D01*
X147365254Y-74495748D01*
X148137746Y-74495748D01*
X148137746Y-74520252D01*
X148142526Y-74544285D01*
X148151904Y-74566924D01*
X148165517Y-74587298D01*
X148182844Y-74604625D01*
X148203219Y-74618239D01*
X148225858Y-74627617D01*
X148249891Y-74632397D01*
X148259295Y-74633323D01*
X148266310Y-74635451D01*
X148272776Y-74638908D01*
X148278442Y-74643558D01*
X148290268Y-74657968D01*
X148291377Y-74659627D01*
X148308705Y-74676953D01*
X148329079Y-74690567D01*
X148351719Y-74699943D01*
X148375752Y-74704723D01*
X148400256Y-74704723D01*
X148424289Y-74699942D01*
X148446928Y-74690564D01*
X148467302Y-74676950D01*
X148484628Y-74659622D01*
X148498242Y-74639248D01*
X148507618Y-74616608D01*
X148513000Y-74580326D01*
X148513000Y-74435674D01*
X151715000Y-74435674D01*
X151715000Y-74580326D01*
X151717402Y-74604712D01*
X151724515Y-74628161D01*
X151736066Y-74649772D01*
X151751611Y-74668714D01*
X151770553Y-74684259D01*
X151792164Y-74695810D01*
X151815613Y-74702923D01*
X151839999Y-74705325D01*
X151864385Y-74702923D01*
X151887834Y-74695810D01*
X151909445Y-74684259D01*
X151928387Y-74668714D01*
X151936281Y-74658070D01*
X151937098Y-74658740D01*
X151949558Y-74643558D01*
X151955224Y-74638908D01*
X151961690Y-74635451D01*
X151968705Y-74633323D01*
X151978109Y-74632397D01*
X152002142Y-74627617D01*
X152024781Y-74618239D01*
X152045155Y-74604626D01*
X152062482Y-74587299D01*
X152076096Y-74566924D01*
X152085474Y-74544285D01*
X152090254Y-74520252D01*
X152090254Y-74495748D01*
X152085474Y-74471715D01*
X152076096Y-74449076D01*
X152062483Y-74428702D01*
X152045156Y-74411375D01*
X152024781Y-74397761D01*
X152002142Y-74388383D01*
X151978109Y-74383603D01*
X151968705Y-74382677D01*
X151961690Y-74380549D01*
X151955224Y-74377092D01*
X151949558Y-74372442D01*
X151937732Y-74358032D01*
X151936623Y-74356373D01*
X151919295Y-74339047D01*
X151898921Y-74325433D01*
X151876281Y-74316057D01*
X151852248Y-74311277D01*
X151827744Y-74311277D01*
X151803711Y-74316058D01*
X151781072Y-74325436D01*
X151760698Y-74339050D01*
X151743372Y-74356378D01*
X151729758Y-74376752D01*
X151720382Y-74399392D01*
X151715000Y-74435674D01*
X148513000Y-74435674D01*
X148510598Y-74411288D01*
X148503485Y-74387839D01*
X148491934Y-74366228D01*
X148476389Y-74347286D01*
X148457447Y-74331741D01*
X148435836Y-74320190D01*
X148412387Y-74313077D01*
X148388001Y-74310675D01*
X148363615Y-74313077D01*
X148340166Y-74320190D01*
X148318555Y-74331741D01*
X148299613Y-74347286D01*
X148291719Y-74357930D01*
X148290902Y-74357260D01*
X148278442Y-74372442D01*
X148272776Y-74377092D01*
X148266310Y-74380549D01*
X148259295Y-74382677D01*
X148249891Y-74383603D01*
X148225858Y-74388383D01*
X148203219Y-74397761D01*
X148182845Y-74411374D01*
X148165518Y-74428701D01*
X148151904Y-74449076D01*
X148142526Y-74471715D01*
X148137746Y-74495748D01*
X147365254Y-74495748D01*
X147360474Y-74471715D01*
X147351096Y-74449076D01*
X147337483Y-74428702D01*
X147320156Y-74411375D01*
X147299781Y-74397761D01*
X147277142Y-74388383D01*
X147253109Y-74383603D01*
X147243705Y-74382677D01*
X147236690Y-74380549D01*
X147230224Y-74377092D01*
X147224558Y-74372442D01*
X147219908Y-74366776D01*
X147216451Y-74360310D01*
X147214323Y-74353295D01*
X147213000Y-74339860D01*
X147213000Y-74026140D01*
X147214323Y-74012705D01*
X147216451Y-74005690D01*
X147219908Y-73999224D01*
X147224558Y-73993558D01*
X147230224Y-73988908D01*
X147236690Y-73985451D01*
X147243705Y-73983323D01*
X147253109Y-73982397D01*
X147277142Y-73977617D01*
X147299781Y-73968239D01*
X147320155Y-73954626D01*
X147337482Y-73937299D01*
X147351096Y-73916924D01*
X147360474Y-73894285D01*
X147365254Y-73870252D01*
X147365254Y-73845748D01*
X148137746Y-73845748D01*
X148137746Y-73870252D01*
X148142526Y-73894285D01*
X148151904Y-73916924D01*
X148165517Y-73937298D01*
X148182844Y-73954625D01*
X148203219Y-73968239D01*
X148225858Y-73977617D01*
X148249891Y-73982397D01*
X148259295Y-73983323D01*
X148266310Y-73985451D01*
X148272776Y-73988908D01*
X148278442Y-73993558D01*
X148290268Y-74007968D01*
X148291377Y-74009627D01*
X148308705Y-74026953D01*
X148329079Y-74040567D01*
X148351719Y-74049943D01*
X148375752Y-74054723D01*
X148400256Y-74054723D01*
X148424289Y-74049942D01*
X148446928Y-74040564D01*
X148467302Y-74026950D01*
X148484628Y-74009622D01*
X148498242Y-73989248D01*
X148507618Y-73966608D01*
X148513000Y-73930326D01*
X148513000Y-73785674D01*
X151715000Y-73785674D01*
X151715000Y-73930326D01*
X151717402Y-73954712D01*
X151724515Y-73978161D01*
X151736066Y-73999772D01*
X151751611Y-74018714D01*
X151770553Y-74034259D01*
X151792164Y-74045810D01*
X151815613Y-74052923D01*
X151839999Y-74055325D01*
X151864385Y-74052923D01*
X151887834Y-74045810D01*
X151909445Y-74034259D01*
X151928387Y-74018714D01*
X151936281Y-74008070D01*
X151937098Y-74008740D01*
X151949558Y-73993558D01*
X151955224Y-73988908D01*
X151961690Y-73985451D01*
X151968705Y-73983323D01*
X151978109Y-73982397D01*
X152002142Y-73977617D01*
X152024781Y-73968239D01*
X152045155Y-73954626D01*
X152062482Y-73937299D01*
X152076096Y-73916924D01*
X152085474Y-73894285D01*
X152090254Y-73870252D01*
X152090254Y-73845748D01*
X152085474Y-73821715D01*
X152076096Y-73799076D01*
X152062483Y-73778702D01*
X152045156Y-73761375D01*
X152024781Y-73747761D01*
X152002142Y-73738383D01*
X151978109Y-73733603D01*
X151968705Y-73732677D01*
X151961690Y-73730549D01*
X151955224Y-73727092D01*
X151949558Y-73722442D01*
X151937732Y-73708032D01*
X151936623Y-73706373D01*
X151919295Y-73689047D01*
X151898921Y-73675433D01*
X151876281Y-73666057D01*
X151852248Y-73661277D01*
X151827744Y-73661277D01*
X151803711Y-73666058D01*
X151781072Y-73675436D01*
X151760698Y-73689050D01*
X151743372Y-73706378D01*
X151729758Y-73726752D01*
X151720382Y-73749392D01*
X151715000Y-73785674D01*
X148513000Y-73785674D01*
X148510598Y-73761288D01*
X148503485Y-73737839D01*
X148491934Y-73716228D01*
X148476389Y-73697286D01*
X148457447Y-73681741D01*
X148435836Y-73670190D01*
X148412387Y-73663077D01*
X148388001Y-73660675D01*
X148363615Y-73663077D01*
X148340166Y-73670190D01*
X148318555Y-73681741D01*
X148299613Y-73697286D01*
X148291719Y-73707930D01*
X148290902Y-73707260D01*
X148278442Y-73722442D01*
X148272776Y-73727092D01*
X148266310Y-73730549D01*
X148259295Y-73732677D01*
X148249891Y-73733603D01*
X148225858Y-73738383D01*
X148203219Y-73747761D01*
X148182845Y-73761374D01*
X148165518Y-73778701D01*
X148151904Y-73799076D01*
X148142526Y-73821715D01*
X148137746Y-73845748D01*
X147365254Y-73845748D01*
X147360474Y-73821715D01*
X147351096Y-73799076D01*
X147337483Y-73778702D01*
X147320156Y-73761375D01*
X147299781Y-73747761D01*
X147277142Y-73738383D01*
X147253109Y-73733603D01*
X147243705Y-73732677D01*
X147236690Y-73730549D01*
X147230224Y-73727092D01*
X147224558Y-73722442D01*
X147219908Y-73716776D01*
X147216451Y-73710310D01*
X147214323Y-73703295D01*
X147213000Y-73689860D01*
X147213000Y-73376140D01*
X147214323Y-73362705D01*
X147216451Y-73355690D01*
X147219908Y-73349224D01*
X147224558Y-73343558D01*
X147230224Y-73338908D01*
X147236690Y-73335451D01*
X147243705Y-73333323D01*
X147253109Y-73332397D01*
X147277142Y-73327617D01*
X147299781Y-73318239D01*
X147320155Y-73304626D01*
X147337482Y-73287299D01*
X147351096Y-73266924D01*
X147360474Y-73244285D01*
X147365254Y-73220252D01*
X147365254Y-73195748D01*
X148137746Y-73195748D01*
X148137746Y-73220252D01*
X148142526Y-73244285D01*
X148151904Y-73266924D01*
X148165517Y-73287298D01*
X148182844Y-73304625D01*
X148203219Y-73318239D01*
X148225858Y-73327617D01*
X148249891Y-73332397D01*
X148259295Y-73333323D01*
X148266310Y-73335451D01*
X148272776Y-73338908D01*
X148278442Y-73343558D01*
X148290268Y-73357968D01*
X148291377Y-73359627D01*
X148308705Y-73376953D01*
X148329079Y-73390567D01*
X148351719Y-73399943D01*
X148375752Y-73404723D01*
X148400256Y-73404723D01*
X148424289Y-73399942D01*
X148446928Y-73390564D01*
X148467302Y-73376950D01*
X148484628Y-73359622D01*
X148498242Y-73339248D01*
X148507618Y-73316608D01*
X148513000Y-73280326D01*
X148513000Y-73135674D01*
X151715000Y-73135674D01*
X151715000Y-73280326D01*
X151717402Y-73304712D01*
X151724515Y-73328161D01*
X151736066Y-73349772D01*
X151751611Y-73368714D01*
X151770553Y-73384259D01*
X151792164Y-73395810D01*
X151815613Y-73402923D01*
X151839999Y-73405325D01*
X151864385Y-73402923D01*
X151887834Y-73395810D01*
X151909445Y-73384259D01*
X151928387Y-73368714D01*
X151936281Y-73358070D01*
X151937098Y-73358740D01*
X151949558Y-73343558D01*
X151955224Y-73338908D01*
X151961690Y-73335451D01*
X151968705Y-73333323D01*
X151978109Y-73332397D01*
X152002142Y-73327617D01*
X152024781Y-73318239D01*
X152045155Y-73304626D01*
X152062482Y-73287299D01*
X152076096Y-73266924D01*
X152085474Y-73244285D01*
X152090254Y-73220252D01*
X152090254Y-73195748D01*
X152085474Y-73171715D01*
X152076096Y-73149076D01*
X152062483Y-73128702D01*
X152045156Y-73111375D01*
X152024781Y-73097761D01*
X152002142Y-73088383D01*
X151978109Y-73083603D01*
X151968705Y-73082677D01*
X151961690Y-73080549D01*
X151955224Y-73077092D01*
X151949558Y-73072442D01*
X151937732Y-73058032D01*
X151936623Y-73056373D01*
X151919295Y-73039047D01*
X151898921Y-73025433D01*
X151876281Y-73016057D01*
X151852248Y-73011277D01*
X151827744Y-73011277D01*
X151803711Y-73016058D01*
X151781072Y-73025436D01*
X151760698Y-73039050D01*
X151743372Y-73056378D01*
X151729758Y-73076752D01*
X151720382Y-73099392D01*
X151715000Y-73135674D01*
X148513000Y-73135674D01*
X148510598Y-73111288D01*
X148503485Y-73087839D01*
X148491934Y-73066228D01*
X148476389Y-73047286D01*
X148457447Y-73031741D01*
X148435836Y-73020190D01*
X148412387Y-73013077D01*
X148388001Y-73010675D01*
X148363615Y-73013077D01*
X148340166Y-73020190D01*
X148318555Y-73031741D01*
X148299613Y-73047286D01*
X148291719Y-73057930D01*
X148290902Y-73057260D01*
X148278442Y-73072442D01*
X148272776Y-73077092D01*
X148266310Y-73080549D01*
X148259295Y-73082677D01*
X148249891Y-73083603D01*
X148225858Y-73088383D01*
X148203219Y-73097761D01*
X148182845Y-73111374D01*
X148165518Y-73128701D01*
X148151904Y-73149076D01*
X148142526Y-73171715D01*
X148137746Y-73195748D01*
X147365254Y-73195748D01*
X147360474Y-73171715D01*
X147351096Y-73149076D01*
X147337483Y-73128702D01*
X147320156Y-73111375D01*
X147299781Y-73097761D01*
X147277142Y-73088383D01*
X147253109Y-73083603D01*
X147243705Y-73082677D01*
X147236690Y-73080549D01*
X147230224Y-73077092D01*
X147224558Y-73072442D01*
X147219908Y-73066776D01*
X147216451Y-73060310D01*
X147214323Y-73053295D01*
X147213000Y-73039860D01*
X147213000Y-72726140D01*
X147214323Y-72712705D01*
X147216451Y-72705690D01*
X147219908Y-72699224D01*
X147224558Y-72693558D01*
X147230224Y-72688908D01*
X147236690Y-72685451D01*
X147243705Y-72683323D01*
X147253109Y-72682397D01*
X147277142Y-72677617D01*
X147299781Y-72668239D01*
X147320155Y-72654626D01*
X147337482Y-72637299D01*
X147351096Y-72616924D01*
X147360474Y-72594285D01*
X147365254Y-72570252D01*
X147365254Y-72545748D01*
X148137746Y-72545748D01*
X148137746Y-72570252D01*
X148142526Y-72594285D01*
X148151904Y-72616924D01*
X148165517Y-72637298D01*
X148182844Y-72654625D01*
X148203219Y-72668239D01*
X148225858Y-72677617D01*
X148249891Y-72682397D01*
X148259295Y-72683323D01*
X148266310Y-72685451D01*
X148272776Y-72688908D01*
X148278442Y-72693558D01*
X148290268Y-72707968D01*
X148291377Y-72709627D01*
X148308705Y-72726953D01*
X148329079Y-72740567D01*
X148351719Y-72749943D01*
X148375752Y-72754723D01*
X148400256Y-72754723D01*
X148424289Y-72749942D01*
X148446928Y-72740564D01*
X148467302Y-72726950D01*
X148484628Y-72709622D01*
X148498242Y-72689248D01*
X148507618Y-72666608D01*
X148513000Y-72630326D01*
X148513000Y-72485674D01*
X151715000Y-72485674D01*
X151715000Y-72630326D01*
X151717402Y-72654712D01*
X151724515Y-72678161D01*
X151736066Y-72699772D01*
X151751611Y-72718714D01*
X151770553Y-72734259D01*
X151792164Y-72745810D01*
X151815613Y-72752923D01*
X151839999Y-72755325D01*
X151864385Y-72752923D01*
X151887834Y-72745810D01*
X151909445Y-72734259D01*
X151928387Y-72718714D01*
X151936281Y-72708070D01*
X151937098Y-72708740D01*
X151949558Y-72693558D01*
X151955224Y-72688908D01*
X151961690Y-72685451D01*
X151968705Y-72683323D01*
X151978109Y-72682397D01*
X152002142Y-72677617D01*
X152024781Y-72668239D01*
X152045155Y-72654626D01*
X152062482Y-72637299D01*
X152076096Y-72616924D01*
X152085474Y-72594285D01*
X152090254Y-72570252D01*
X152090254Y-72545748D01*
X152085474Y-72521715D01*
X152076096Y-72499076D01*
X152062483Y-72478702D01*
X152045156Y-72461375D01*
X152024781Y-72447761D01*
X152002142Y-72438383D01*
X151978109Y-72433603D01*
X151968705Y-72432677D01*
X151961690Y-72430549D01*
X151955224Y-72427092D01*
X151949558Y-72422442D01*
X151937732Y-72408032D01*
X151936623Y-72406373D01*
X151919295Y-72389047D01*
X151898921Y-72375433D01*
X151876281Y-72366057D01*
X151852248Y-72361277D01*
X151827744Y-72361277D01*
X151803711Y-72366058D01*
X151781072Y-72375436D01*
X151760698Y-72389050D01*
X151743372Y-72406378D01*
X151729758Y-72426752D01*
X151720382Y-72449392D01*
X151715000Y-72485674D01*
X148513000Y-72485674D01*
X148510598Y-72461288D01*
X148503485Y-72437839D01*
X148491934Y-72416228D01*
X148476389Y-72397286D01*
X148457447Y-72381741D01*
X148435836Y-72370190D01*
X148412387Y-72363077D01*
X148388001Y-72360675D01*
X148363615Y-72363077D01*
X148340166Y-72370190D01*
X148318555Y-72381741D01*
X148299613Y-72397286D01*
X148291719Y-72407930D01*
X148290902Y-72407260D01*
X148278442Y-72422442D01*
X148272776Y-72427092D01*
X148266310Y-72430549D01*
X148259295Y-72432677D01*
X148249891Y-72433603D01*
X148225858Y-72438383D01*
X148203219Y-72447761D01*
X148182845Y-72461374D01*
X148165518Y-72478701D01*
X148151904Y-72499076D01*
X148142526Y-72521715D01*
X148137746Y-72545748D01*
X147365254Y-72545748D01*
X147360474Y-72521715D01*
X147351096Y-72499076D01*
X147337483Y-72478702D01*
X147320156Y-72461375D01*
X147299781Y-72447761D01*
X147277142Y-72438383D01*
X147253109Y-72433603D01*
X147243705Y-72432677D01*
X147236690Y-72430549D01*
X147230224Y-72427092D01*
X147224558Y-72422442D01*
X147219908Y-72416776D01*
X147216451Y-72410310D01*
X147214323Y-72403295D01*
X147213000Y-72389860D01*
X147213000Y-72076140D01*
X147214323Y-72062705D01*
X147216451Y-72055690D01*
X147219908Y-72049224D01*
X147224558Y-72043558D01*
X147230224Y-72038908D01*
X147236690Y-72035451D01*
X147243705Y-72033323D01*
X147257140Y-72032000D01*
X148245860Y-72032000D01*
X148259295Y-72033323D01*
X148266310Y-72035451D01*
X148272776Y-72038908D01*
X148278442Y-72043558D01*
X148283094Y-72049226D01*
X148290996Y-72064009D01*
X148304610Y-72084384D01*
X148321937Y-72101711D01*
X148342311Y-72115324D01*
X148364950Y-72124702D01*
X148388983Y-72129482D01*
X148413487Y-72129482D01*
X148437521Y-72124702D01*
X148460159Y-72115324D01*
X148480534Y-72101710D01*
X148497861Y-72084383D01*
X148511474Y-72064009D01*
X148520852Y-72041369D01*
X148525235Y-72026920D01*
X148539354Y-72000505D01*
X148558354Y-71977354D01*
X148581505Y-71958354D01*
X148607920Y-71944235D01*
X148622369Y-71939852D01*
X148645008Y-71930475D01*
X148665382Y-71916862D01*
X148682709Y-71899535D01*
X148696323Y-71879161D01*
X148705701Y-71856522D01*
X148710482Y-71832489D01*
X148710482Y-71807985D01*
X148707851Y-71794752D01*
X148942277Y-71794752D01*
X148942277Y-71819256D01*
X148947058Y-71843289D01*
X148956436Y-71865928D01*
X148970050Y-71886302D01*
X148987378Y-71903628D01*
X149007752Y-71917242D01*
X149030392Y-71926618D01*
X149066674Y-71932000D01*
X149211326Y-71932000D01*
X149235712Y-71929598D01*
X149259161Y-71922485D01*
X149280772Y-71910934D01*
X149299714Y-71895389D01*
X149315259Y-71876447D01*
X149326810Y-71854836D01*
X149333923Y-71831387D01*
X149336325Y-71807001D01*
X149335119Y-71794752D01*
X149592277Y-71794752D01*
X149592277Y-71819256D01*
X149597058Y-71843289D01*
X149606436Y-71865928D01*
X149620050Y-71886302D01*
X149637378Y-71903628D01*
X149657752Y-71917242D01*
X149680392Y-71926618D01*
X149716674Y-71932000D01*
X149861326Y-71932000D01*
X149885712Y-71929598D01*
X149909161Y-71922485D01*
X149930772Y-71910934D01*
X149949714Y-71895389D01*
X149965259Y-71876447D01*
X149976810Y-71854836D01*
X149983923Y-71831387D01*
X149986325Y-71807001D01*
X149985119Y-71794752D01*
X150242277Y-71794752D01*
X150242277Y-71819256D01*
X150247058Y-71843289D01*
X150256436Y-71865928D01*
X150270050Y-71886302D01*
X150287378Y-71903628D01*
X150307752Y-71917242D01*
X150330392Y-71926618D01*
X150366674Y-71932000D01*
X150511326Y-71932000D01*
X150535712Y-71929598D01*
X150559161Y-71922485D01*
X150580772Y-71910934D01*
X150599714Y-71895389D01*
X150615259Y-71876447D01*
X150626810Y-71854836D01*
X150633923Y-71831387D01*
X150636325Y-71807001D01*
X150635119Y-71794752D01*
X150892277Y-71794752D01*
X150892277Y-71819256D01*
X150897058Y-71843289D01*
X150906436Y-71865928D01*
X150920050Y-71886302D01*
X150937378Y-71903628D01*
X150957752Y-71917242D01*
X150980392Y-71926618D01*
X151016674Y-71932000D01*
X151161326Y-71932000D01*
X151185712Y-71929598D01*
X151209161Y-71922485D01*
X151230772Y-71910934D01*
X151249714Y-71895389D01*
X151265259Y-71876447D01*
X151276810Y-71854836D01*
X151283923Y-71831387D01*
X151286325Y-71807001D01*
X151283923Y-71782615D01*
X151276810Y-71759166D01*
X151265259Y-71737555D01*
X151249714Y-71718613D01*
X151239070Y-71710719D01*
X151239740Y-71709902D01*
X151224558Y-71697442D01*
X151219908Y-71691776D01*
X151216451Y-71685310D01*
X151214323Y-71678295D01*
X151213397Y-71668891D01*
X151208617Y-71644858D01*
X151199239Y-71622219D01*
X151185626Y-71601845D01*
X151168299Y-71584518D01*
X151147924Y-71570904D01*
X151125285Y-71561526D01*
X151101252Y-71556746D01*
X151076748Y-71556746D01*
X151052715Y-71561526D01*
X151030076Y-71570904D01*
X151009702Y-71584517D01*
X150992375Y-71601844D01*
X150978761Y-71622219D01*
X150969383Y-71644858D01*
X150964603Y-71668891D01*
X150963677Y-71678295D01*
X150961549Y-71685310D01*
X150958092Y-71691776D01*
X150953442Y-71697442D01*
X150939032Y-71709268D01*
X150937373Y-71710377D01*
X150920047Y-71727705D01*
X150906433Y-71748079D01*
X150897057Y-71770719D01*
X150892277Y-71794752D01*
X150635119Y-71794752D01*
X150633923Y-71782615D01*
X150626810Y-71759166D01*
X150615259Y-71737555D01*
X150599714Y-71718613D01*
X150589070Y-71710719D01*
X150589740Y-71709902D01*
X150574558Y-71697442D01*
X150569908Y-71691776D01*
X150566451Y-71685310D01*
X150564323Y-71678295D01*
X150563397Y-71668891D01*
X150558617Y-71644858D01*
X150549239Y-71622219D01*
X150535626Y-71601845D01*
X150518299Y-71584518D01*
X150497924Y-71570904D01*
X150475285Y-71561526D01*
X150451252Y-71556746D01*
X150426748Y-71556746D01*
X150402715Y-71561526D01*
X150380076Y-71570904D01*
X150359702Y-71584517D01*
X150342375Y-71601844D01*
X150328761Y-71622219D01*
X150319383Y-71644858D01*
X150314603Y-71668891D01*
X150313677Y-71678295D01*
X150311549Y-71685310D01*
X150308092Y-71691776D01*
X150303442Y-71697442D01*
X150289032Y-71709268D01*
X150287373Y-71710377D01*
X150270047Y-71727705D01*
X150256433Y-71748079D01*
X150247057Y-71770719D01*
X150242277Y-71794752D01*
X149985119Y-71794752D01*
X149983923Y-71782615D01*
X149976810Y-71759166D01*
X149965259Y-71737555D01*
X149949714Y-71718613D01*
X149939070Y-71710719D01*
X149939740Y-71709902D01*
X149924558Y-71697442D01*
X149919908Y-71691776D01*
X149916451Y-71685310D01*
X149914323Y-71678295D01*
X149913397Y-71668891D01*
X149908617Y-71644858D01*
X149899239Y-71622219D01*
X149885626Y-71601845D01*
X149868299Y-71584518D01*
X149847924Y-71570904D01*
X149825285Y-71561526D01*
X149801252Y-71556746D01*
X149776748Y-71556746D01*
X149752715Y-71561526D01*
X149730076Y-71570904D01*
X149709702Y-71584517D01*
X149692375Y-71601844D01*
X149678761Y-71622219D01*
X149669383Y-71644858D01*
X149664603Y-71668891D01*
X149663677Y-71678295D01*
X149661549Y-71685310D01*
X149658092Y-71691776D01*
X149653442Y-71697442D01*
X149639032Y-71709268D01*
X149637373Y-71710377D01*
X149620047Y-71727705D01*
X149606433Y-71748079D01*
X149597057Y-71770719D01*
X149592277Y-71794752D01*
X149335119Y-71794752D01*
X149333923Y-71782615D01*
X149326810Y-71759166D01*
X149315259Y-71737555D01*
X149299714Y-71718613D01*
X149289070Y-71710719D01*
X149289740Y-71709902D01*
X149274558Y-71697442D01*
X149269908Y-71691776D01*
X149266451Y-71685310D01*
X149264323Y-71678295D01*
X149263397Y-71668891D01*
X149258617Y-71644858D01*
X149249239Y-71622219D01*
X149235626Y-71601845D01*
X149218299Y-71584518D01*
X149197924Y-71570904D01*
X149175285Y-71561526D01*
X149151252Y-71556746D01*
X149126748Y-71556746D01*
X149102715Y-71561526D01*
X149080076Y-71570904D01*
X149059702Y-71584517D01*
X149042375Y-71601844D01*
X149028761Y-71622219D01*
X149019383Y-71644858D01*
X149014603Y-71668891D01*
X149013677Y-71678295D01*
X149011549Y-71685310D01*
X149008092Y-71691776D01*
X149003442Y-71697442D01*
X148989032Y-71709268D01*
X148987373Y-71710377D01*
X148970047Y-71727705D01*
X148956433Y-71748079D01*
X148947057Y-71770719D01*
X148942277Y-71794752D01*
X148707851Y-71794752D01*
X148705702Y-71783951D01*
X148696325Y-71761312D01*
X148682712Y-71740938D01*
X148665385Y-71723611D01*
X148645009Y-71709996D01*
X148630226Y-71702094D01*
X148624558Y-71697442D01*
X148619908Y-71691776D01*
X148616451Y-71685310D01*
X148614323Y-71678295D01*
X148613000Y-71664860D01*
X148613000Y-70676140D01*
X148614323Y-70662705D01*
X148616451Y-70655690D01*
X148619908Y-70649224D01*
X148624558Y-70643558D01*
X148630224Y-70638908D01*
X148636690Y-70635451D01*
X148643705Y-70633323D01*
X148657140Y-70632000D01*
X148970860Y-70632000D01*
X148984295Y-70633323D01*
G37*
G36*
X144636499Y-73850445D02*
G01*
X144673995Y-73861820D01*
X144708554Y-73880292D01*
X144738847Y-73905153D01*
X144763708Y-73935446D01*
X144782180Y-73970005D01*
X144793555Y-74007501D01*
X144798000Y-74052638D01*
X144798000Y-74791362D01*
X144793555Y-74836499D01*
X144782180Y-74873995D01*
X144763708Y-74908554D01*
X144738847Y-74938847D01*
X144708554Y-74963708D01*
X144673995Y-74982180D01*
X144636499Y-74993555D01*
X144591362Y-74998000D01*
X143952638Y-74998000D01*
X143907501Y-74993555D01*
X143870005Y-74982180D01*
X143835446Y-74963708D01*
X143805153Y-74938847D01*
X143780292Y-74908554D01*
X143761820Y-74873995D01*
X143750445Y-74836499D01*
X143746000Y-74791362D01*
X143746000Y-74052638D01*
X143750445Y-74007501D01*
X143761820Y-73970005D01*
X143780292Y-73935446D01*
X143805153Y-73905153D01*
X143835446Y-73880292D01*
X143870005Y-73861820D01*
X143907501Y-73850445D01*
X143952638Y-73846000D01*
X144591362Y-73846000D01*
X144636499Y-73850445D01*
G37*
G36*
X146414499Y-73850445D02*
G01*
X146451995Y-73861820D01*
X146486554Y-73880292D01*
X146516847Y-73905153D01*
X146541708Y-73935446D01*
X146560180Y-73970005D01*
X146571555Y-74007501D01*
X146576000Y-74052638D01*
X146576000Y-74791362D01*
X146571555Y-74836499D01*
X146560180Y-74873995D01*
X146541708Y-74908554D01*
X146516847Y-74938847D01*
X146486554Y-74963708D01*
X146451995Y-74982180D01*
X146414499Y-74993555D01*
X146369362Y-74998000D01*
X145730638Y-74998000D01*
X145685501Y-74993555D01*
X145648005Y-74982180D01*
X145613446Y-74963708D01*
X145583153Y-74938847D01*
X145558292Y-74908554D01*
X145539820Y-74873995D01*
X145528445Y-74836499D01*
X145524000Y-74791362D01*
X145524000Y-74052638D01*
X145528445Y-74007501D01*
X145539820Y-73970005D01*
X145558292Y-73935446D01*
X145583153Y-73905153D01*
X145613446Y-73880292D01*
X145648005Y-73861820D01*
X145685501Y-73850445D01*
X145730638Y-73846000D01*
X146369362Y-73846000D01*
X146414499Y-73850445D01*
G37*
G36*
X155188228Y-72841703D02*
G01*
X155343100Y-72905853D01*
X155482481Y-72998985D01*
X155601015Y-73117519D01*
X155694147Y-73256900D01*
X155758297Y-73411772D01*
X155791000Y-73576184D01*
X155791000Y-73743816D01*
X155758297Y-73908228D01*
X155694147Y-74063100D01*
X155601015Y-74202481D01*
X155482481Y-74321015D01*
X155343100Y-74414147D01*
X155188228Y-74478297D01*
X155023816Y-74511000D01*
X154856184Y-74511000D01*
X154691772Y-74478297D01*
X154536900Y-74414147D01*
X154397519Y-74321015D01*
X154278985Y-74202481D01*
X154185853Y-74063100D01*
X154121703Y-73908228D01*
X154089000Y-73743816D01*
X154089000Y-73576184D01*
X154121703Y-73411772D01*
X154185853Y-73256900D01*
X154278985Y-73117519D01*
X154397519Y-72998985D01*
X154536900Y-72905853D01*
X154691772Y-72841703D01*
X154856184Y-72809000D01*
X155023816Y-72809000D01*
X155188228Y-72841703D01*
G37*
G36*
X142488228Y-72841703D02*
G01*
X142643100Y-72905853D01*
X142782481Y-72998985D01*
X142901015Y-73117519D01*
X142994147Y-73256900D01*
X143058297Y-73411772D01*
X143091000Y-73576184D01*
X143091000Y-73743816D01*
X143058297Y-73908228D01*
X142994147Y-74063100D01*
X142901015Y-74202481D01*
X142782481Y-74321015D01*
X142643100Y-74414147D01*
X142488228Y-74478297D01*
X142323816Y-74511000D01*
X142156184Y-74511000D01*
X141991772Y-74478297D01*
X141836900Y-74414147D01*
X141697519Y-74321015D01*
X141578985Y-74202481D01*
X141485853Y-74063100D01*
X141421703Y-73908228D01*
X141389000Y-73743816D01*
X141389000Y-73576184D01*
X141421703Y-73411772D01*
X141485853Y-73256900D01*
X141578985Y-73117519D01*
X141697519Y-72998985D01*
X141836900Y-72905853D01*
X141991772Y-72841703D01*
X142156184Y-72809000D01*
X142323816Y-72809000D01*
X142488228Y-72841703D01*
G37*
G36*
X146414499Y-72100445D02*
G01*
X146451995Y-72111820D01*
X146486554Y-72130292D01*
X146516847Y-72155153D01*
X146541708Y-72185446D01*
X146560180Y-72220005D01*
X146571555Y-72257501D01*
X146576000Y-72302638D01*
X146576000Y-73041362D01*
X146571555Y-73086499D01*
X146560180Y-73123995D01*
X146541708Y-73158554D01*
X146516847Y-73188847D01*
X146486554Y-73213708D01*
X146451995Y-73232180D01*
X146414499Y-73243555D01*
X146369362Y-73248000D01*
X145730638Y-73248000D01*
X145685501Y-73243555D01*
X145648005Y-73232180D01*
X145613446Y-73213708D01*
X145583153Y-73188847D01*
X145558292Y-73158554D01*
X145539820Y-73123995D01*
X145528445Y-73086499D01*
X145524000Y-73041362D01*
X145524000Y-72302638D01*
X145528445Y-72257501D01*
X145539820Y-72220005D01*
X145558292Y-72185446D01*
X145583153Y-72155153D01*
X145613446Y-72130292D01*
X145648005Y-72111820D01*
X145685501Y-72100445D01*
X145730638Y-72096000D01*
X146369362Y-72096000D01*
X146414499Y-72100445D01*
G37*
G36*
X144636499Y-72100445D02*
G01*
X144673995Y-72111820D01*
X144708554Y-72130292D01*
X144738847Y-72155153D01*
X144763708Y-72185446D01*
X144782180Y-72220005D01*
X144793555Y-72257501D01*
X144798000Y-72302638D01*
X144798000Y-73041362D01*
X144793555Y-73086499D01*
X144782180Y-73123995D01*
X144763708Y-73158554D01*
X144738847Y-73188847D01*
X144708554Y-73213708D01*
X144673995Y-73232180D01*
X144636499Y-73243555D01*
X144591362Y-73248000D01*
X143952638Y-73248000D01*
X143907501Y-73243555D01*
X143870005Y-73232180D01*
X143835446Y-73213708D01*
X143805153Y-73188847D01*
X143780292Y-73158554D01*
X143761820Y-73123995D01*
X143750445Y-73086499D01*
X143746000Y-73041362D01*
X143746000Y-72302638D01*
X143750445Y-72257501D01*
X143761820Y-72220005D01*
X143780292Y-72185446D01*
X143805153Y-72155153D01*
X143835446Y-72130292D01*
X143870005Y-72111820D01*
X143907501Y-72100445D01*
X143952638Y-72096000D01*
X144591362Y-72096000D01*
X144636499Y-72100445D01*
G37*
G36*
X155188228Y-70301703D02*
G01*
X155343100Y-70365853D01*
X155482481Y-70458985D01*
X155601015Y-70577519D01*
X155694147Y-70716900D01*
X155758297Y-70871772D01*
X155791000Y-71036184D01*
X155791000Y-71203816D01*
X155758297Y-71368228D01*
X155694147Y-71523100D01*
X155601015Y-71662481D01*
X155482481Y-71781015D01*
X155343100Y-71874147D01*
X155188228Y-71938297D01*
X155023816Y-71971000D01*
X154856184Y-71971000D01*
X154691772Y-71938297D01*
X154536900Y-71874147D01*
X154397519Y-71781015D01*
X154278985Y-71662481D01*
X154185853Y-71523100D01*
X154121703Y-71368228D01*
X154089000Y-71203816D01*
X154089000Y-71036184D01*
X154121703Y-70871772D01*
X154185853Y-70716900D01*
X154278985Y-70577519D01*
X154397519Y-70458985D01*
X154536900Y-70365853D01*
X154691772Y-70301703D01*
X154856184Y-70269000D01*
X155023816Y-70269000D01*
X155188228Y-70301703D01*
G37*
G36*
X143091000Y-71971000D02*
G01*
X141389000Y-71971000D01*
X141389000Y-70269000D01*
X143091000Y-70269000D01*
X143091000Y-71971000D01*
G37*
G36*
X144714499Y-70598445D02*
G01*
X144751995Y-70609820D01*
X144786554Y-70628292D01*
X144816847Y-70653153D01*
X144841708Y-70683446D01*
X144860180Y-70718005D01*
X144871555Y-70755501D01*
X144876000Y-70800638D01*
X144876000Y-71439362D01*
X144871555Y-71484499D01*
X144860180Y-71521995D01*
X144841708Y-71556554D01*
X144816847Y-71586847D01*
X144786554Y-71611708D01*
X144751995Y-71630180D01*
X144714499Y-71641555D01*
X144669362Y-71646000D01*
X143930638Y-71646000D01*
X143885501Y-71641555D01*
X143848005Y-71630180D01*
X143813446Y-71611708D01*
X143783153Y-71586847D01*
X143758292Y-71556554D01*
X143739820Y-71521995D01*
X143728445Y-71484499D01*
X143724000Y-71439362D01*
X143724000Y-70800638D01*
X143728445Y-70755501D01*
X143739820Y-70718005D01*
X143758292Y-70683446D01*
X143783153Y-70653153D01*
X143813446Y-70628292D01*
X143848005Y-70609820D01*
X143885501Y-70598445D01*
X143930638Y-70594000D01*
X144669362Y-70594000D01*
X144714499Y-70598445D01*
G37*
G36*
X146464499Y-70598445D02*
G01*
X146501995Y-70609820D01*
X146536554Y-70628292D01*
X146566847Y-70653153D01*
X146591708Y-70683446D01*
X146610180Y-70718005D01*
X146621555Y-70755501D01*
X146626000Y-70800638D01*
X146626000Y-71439362D01*
X146621555Y-71484499D01*
X146610180Y-71521995D01*
X146591708Y-71556554D01*
X146566847Y-71586847D01*
X146536554Y-71611708D01*
X146501995Y-71630180D01*
X146464499Y-71641555D01*
X146419362Y-71646000D01*
X145680638Y-71646000D01*
X145635501Y-71641555D01*
X145598005Y-71630180D01*
X145563446Y-71611708D01*
X145533153Y-71586847D01*
X145508292Y-71556554D01*
X145489820Y-71521995D01*
X145478445Y-71484499D01*
X145474000Y-71439362D01*
X145474000Y-70800638D01*
X145478445Y-70755501D01*
X145489820Y-70718005D01*
X145508292Y-70683446D01*
X145533153Y-70653153D01*
X145563446Y-70628292D01*
X145598005Y-70609820D01*
X145635501Y-70598445D01*
X145680638Y-70594000D01*
X146419362Y-70594000D01*
X146464499Y-70598445D01*
G37*
M02*
